<svg width="87" height="35" viewBox="0 0 87 35" fill="none" xmlns="http://www.w3.org/2000/svg">
<path d="M25.8117 1.59351C25.7644 1.63383 25.7215 1.67024 25.6735 1.71057C23.173 3.85014 20.8324 6.10678 18.5866 8.43959C16.3451 10.773 14.2196 13.1926 12.2194 15.6895C10.2192 18.1898 8.34831 20.7629 6.5983 23.4334C5.71911 24.7653 4.88282 26.1236 4.07662 27.5255C3.67157 28.2262 3.27934 28.9375 2.891 29.6752C2.69711 30.0392 2.50712 30.4195 2.31769 30.8032C2.22297 30.9936 2.1238 31.207 2.02908 31.4109C1.98173 31.5078 1.93437 31.6243 1.88255 31.7414L1.80901 31.915C1.78728 31.9716 1.74884 32.092 1.71875 32.1754H15.4269L15.5044 31.9352C15.7284 31.2776 15.9568 30.6234 16.2025 29.9759C16.6856 28.6776 17.207 27.3888 17.7714 26.1141C18.888 23.5639 20.1382 21.0541 21.5177 18.5903C21.8843 17.9361 22.2593 17.2819 22.6471 16.6344H25.9839C25.4752 17.5922 24.9838 18.5572 24.518 19.5284C23.3368 21.9817 22.2849 24.4685 21.3712 26.9817C20.9099 28.2368 20.492 29.4982 20.1126 30.7668C19.9705 31.2339 19.8324 31.705 19.7076 32.1754H32.2948C32.3549 31.3476 32.4329 30.5064 32.536 29.6656C32.8207 27.269 33.2475 24.846 33.8074 22.4292C34.3724 20.009 35.0749 17.5961 35.9112 15.1961C36.752 12.796 37.7131 10.3994 38.8552 8.05312C39.9027 5.87378 41.0755 3.7174 42.3943 1.59463H25.8117V1.59351ZM33.1829 5.32152C31.4585 7.58152 29.9023 9.91433 28.4537 12.2841C27.9841 13.0621 27.5227 13.8429 27.0831 14.6304H23.8762C24.5743 13.5253 25.2986 12.4309 26.0491 11.3459C27.6916 8.98625 29.4371 6.66968 31.3515 4.43993C31.5927 4.15596 31.8345 3.87591 32.0802 3.5953H34.5245C34.0665 4.1666 33.6185 4.74406 33.1829 5.32152Z" fill="#484848"/>
<path d="M51.7493 15.9998H45.9777L45.1944 18.2379H41.2676L47.0904 3.37964H50.6567L56.4595 18.2379H52.5427L51.7493 15.9998ZM47.1935 12.6739H50.5431L48.8733 7.91812L47.1935 12.6739Z" fill="#969696"/>
<path d="M58.9125 12.9433C60.1388 14.021 61.6231 14.8185 63.128 14.8185C64.0556 14.8185 65.3337 14.539 65.3337 13.658C65.3337 12.6532 63.5815 12.4975 61.7055 12.1144C59.2936 11.617 56.8511 10.7259 56.8511 7.9282C56.8511 5.38983 58.7889 3.37964 62.2828 3.37964C64.1687 3.37964 66.1683 4.01199 67.9312 5.34839L65.8491 8.01109C64.839 7.20287 63.4478 6.72623 62.2415 6.72623C61.4582 6.72623 60.448 6.92282 60.448 7.59662C60.448 8.32195 61.5924 8.51854 63.3854 8.81932C65.921 9.23379 68.9614 10.042 68.9614 13.5958C68.9614 16.2899 66.4157 18.2379 63.1792 18.2379C61.2314 18.2379 58.902 17.5232 56.7168 15.6268L58.9125 12.9433Z" fill="#969696"/>
<path d="M79.7845 15.9998H74.0129L73.2295 18.2379H69.3027L75.1261 3.37964H78.6924L84.4952 18.2379H80.5784L79.7845 15.9998ZM75.2292 12.6739H78.5788L76.909 7.91812L75.2292 12.6739Z" fill="#969696"/>
<path d="M49.1107 21.1123V22.1983H45.8893V30.3881H44.7382V22.1983H41.5234V21.1123H49.1107Z" fill="#969696"/>
<path d="M50.4414 30.388V21.1184H54.5437C55.1867 21.1184 55.5856 21.2153 55.9327 21.3901C56.7879 21.7844 57.3473 22.6312 57.3473 23.6786C57.3473 24.2477 57.1802 24.7646 56.8782 25.1847C56.5952 25.579 56.2157 25.8636 55.7722 26.0316C55.5984 26.096 55.4123 26.1481 55.2 26.1867L57.7719 30.3886H56.4341L53.9459 26.2321H51.5858V30.3886H50.4414V30.388ZM54.4211 25.1651C54.8713 25.1651 55.1025 25.1198 55.3148 25.0296C55.8358 24.81 56.2152 24.3317 56.2152 23.6848C56.2152 23.0513 55.8424 22.5668 55.3148 22.3405C55.1025 22.2498 54.8713 22.205 54.4211 22.205H51.5852V25.1657H54.4211V25.1651Z" fill="#969696"/>
<path d="M64.9467 28.4876H60.2338L59.4749 30.388H58.2598L62.0345 21.1184H63.1599L66.9213 30.388H65.7122L64.9467 28.4876ZM60.6578 27.4145H64.5222L62.5994 22.5472L60.6578 27.4145Z" fill="#969696"/>
<path d="M67.9668 30.3881V21.1123H68.578L74.661 28.197V21.1123H75.8054V30.3881H75.2009L69.1179 23.2972V30.3881H67.9668Z" fill="#969696"/>
<path d="M77.8931 27.8671C78.7227 28.7784 79.8091 29.2959 80.8894 29.3021C82.201 29.3021 83.0562 28.5459 83.0562 27.6022C83.0562 26.4388 81.7508 26.1734 80.3685 25.8827C78.8703 25.5724 77.3721 25.1523 77.3721 23.5622C77.3721 22.1983 78.5037 21.119 80.4069 21.1123C81.5196 21.1123 82.7152 21.5649 83.6217 22.4504L82.908 23.2519C82.2584 22.5859 81.3262 22.1855 80.3874 22.1855C79.2364 22.1855 78.497 22.7545 78.497 23.5039C78.497 24.3637 79.4297 24.5771 80.9017 24.8549C82.2456 25.1136 84.1872 25.5595 84.1872 27.6212C84.1872 29.1788 82.8306 30.3875 80.895 30.3875C79.6347 30.3875 78.2714 29.851 77.1465 28.6748L77.8931 27.8671Z" fill="#969696"/>
</svg>
