<svg width="87" height="35" viewBox="0 0 87 35" fill="none" xmlns="http://www.w3.org/2000/svg">
<g clip-path="url(#clip0_1439_3248)">
<path d="M1.04688 11.7946C1.04688 11.7946 11.3386 6.65812 24.8468 6.97875C38.3549 7.29939 54.7583 7.5404 63.6833 5.85547C63.6833 5.85547 54.3563 9.22637 38.1943 8.82505C22.0324 8.42373 12.7862 8.34304 1.04688 11.7946Z" fill="#484848"/>
<path d="M29.3477 5.37344C29.3477 5.37344 39.8 -3.45567 59.4198 1.52053C79.0396 6.49673 75.0988 7.9417 83.944 5.8544C83.944 5.8544 80.8084 10.4293 76.8687 10.5896C72.929 10.7499 68.5064 8.18166 63.6818 9.30494C58.8571 10.4282 51.8616 9.62558 51.8616 9.62558C51.8616 9.62558 62.8777 7.45865 65.5304 7.45865C68.1831 7.45865 77.4303 8.82294 77.4303 8.82294C77.4303 8.82294 63.2787 3.04409 56.6453 2.32213C50.012 1.60016 42.6154 -0.164401 29.3477 5.37344Z" fill="#484848"/>
<path d="M9.08558 12.2757C9.08558 12.2757 4.56956 12.2222 2.77344 12.9976C2.77344 12.9976 5.655 9.66653 9.08558 12.2757Z" fill="#484848"/>
<path d="M11.1276 25.3923H8.91066L8.0294 23.2946H3.9949L3.16183 25.3923H1L4.93123 16.1575H7.08618L11.1276 25.3923ZM7.37534 21.7387L5.98461 18.3118L4.62142 21.7387H7.37534Z" fill="#484848"/>
<path d="M11.699 22.3875L13.6818 22.2111C13.8012 22.8201 14.0421 23.2673 14.4047 23.5529C14.7719 23.8384 15.2653 23.9812 15.885 23.9812C16.5413 23.9812 17.0347 23.8552 17.3652 23.6033C17.7003 23.3471 17.8678 23.0489 17.8678 22.7088C17.8678 22.4904 17.7967 22.3056 17.6544 22.1544C17.5167 21.999 17.2734 21.8647 16.9246 21.7513C16.6859 21.6757 16.142 21.5413 15.2929 21.3481C14.2005 21.1003 13.434 20.7959 12.9934 20.4347C12.3737 19.9266 12.0639 19.3071 12.0639 18.5764C12.0639 18.1061 12.2085 17.6672 12.4977 17.2599C12.7914 16.8483 13.2114 16.5354 13.7576 16.3213C14.3084 16.1071 14.9716 16 15.7473 16C17.0141 16 17.9665 16.2541 18.6045 16.7622C19.2471 17.2704 19.5844 17.9486 19.6166 18.7969L17.5786 18.8788C17.4914 18.4042 17.3033 18.0641 17.0141 17.8583C16.7295 17.6483 16.3004 17.5433 15.7266 17.5433C15.1345 17.5433 14.671 17.6546 14.3359 17.8772C14.1202 18.02 14.0123 18.2111 14.0123 18.4504C14.0123 18.6688 14.1133 18.8557 14.3152 19.0111C14.5723 19.2084 15.1965 19.4142 16.1879 19.6284C17.1793 19.8426 17.9114 20.0652 18.3842 20.2961C18.8615 20.5229 19.2333 20.8358 19.4995 21.2347C19.7703 21.6295 19.9057 22.1187 19.9057 22.7025C19.9057 23.2316 19.7451 23.7272 19.4238 24.1891C19.1025 24.6511 18.6481 24.9954 18.0606 25.2222C17.4731 25.4448 16.741 25.5561 15.8643 25.5561C14.5883 25.5561 13.6084 25.2873 12.9245 24.7497C12.2406 24.208 11.8321 23.4206 11.699 22.3875Z" fill="#484848"/>
<path d="M21.5581 25.3923V16.1575H23.596V25.3923H21.5581Z" fill="#484848"/>
<path d="M34.6461 25.3923H32.4292L31.548 23.2946H27.5134L26.6804 25.3923H24.5185L28.4498 16.1575H30.6047L34.6461 25.3923ZM30.8939 21.7387L29.5032 18.3118L28.14 21.7387H30.8939Z" fill="#484848"/>
<path d="M41.407 25.3923V17.7197H38.4121V16.1575H46.4329V17.7197H43.4449V25.3923H41.407Z" fill="#484848"/>
<path d="M47.7617 25.3923V16.1575H52.0509C53.1296 16.1575 53.9121 16.2415 54.3987 16.4095C54.8898 16.5732 55.2822 16.8672 55.576 17.2914C55.8697 17.7155 56.0166 18.2006 56.0166 18.7465C56.0166 19.4394 55.794 20.0127 55.3488 20.4662C54.9036 20.9156 54.238 21.199 53.3522 21.3166C53.7928 21.5518 54.1554 21.8101 54.44 22.0914C54.7291 22.3728 55.117 22.8726 55.6035 23.5907L56.8359 25.3923H54.3987L52.9253 23.3828C52.4021 22.6647 52.0441 22.2132 51.8513 22.0284C51.6585 21.8395 51.4543 21.7114 51.2385 21.6442C51.0228 21.5728 50.6809 21.5371 50.2127 21.5371H49.7996V25.3923H47.7617ZM49.7996 20.0631H51.3074C52.285 20.0631 52.8955 20.0253 53.1388 19.9497C53.382 19.8741 53.5725 19.7439 53.7102 19.5591C53.8479 19.3743 53.9167 19.1434 53.9167 18.8662C53.9167 18.5554 53.8249 18.3055 53.6413 18.1166C53.4623 17.9234 53.2076 17.8016 52.8771 17.7512C52.7119 17.7302 52.2162 17.7197 51.39 17.7197H49.7996V20.0631Z" fill="#484848"/>
<path d="M67.0461 25.3923H64.8292L63.9479 23.2946H59.9134L59.0804 25.3923H56.9185L60.8498 16.1575H63.0047L67.0461 25.3923ZM63.2939 21.7387L61.9031 18.3118L60.5399 21.7387H63.2939Z" fill="#484848"/>
<path d="M68.127 16.1575H71.8517C72.6916 16.1575 73.3319 16.2163 73.7726 16.3339C74.3647 16.4934 74.8718 16.7769 75.2941 17.1843C75.7164 17.5916 76.0377 18.0914 76.258 18.6835C76.4783 19.2714 76.5885 19.998 76.5885 20.8631C76.5885 21.6232 76.4852 22.2783 76.2786 22.8285C76.0262 23.5004 75.6659 24.0442 75.1977 24.46C74.8443 24.7749 74.367 25.0206 73.7657 25.197C73.3159 25.3272 72.7146 25.3923 71.9619 25.3923H68.127V16.1575ZM70.1649 17.7197V23.8363H71.6865C72.2556 23.8363 72.6664 23.8069 72.9188 23.7482C73.2493 23.6726 73.5224 23.5445 73.7381 23.3639C73.9585 23.1833 74.1375 22.8872 74.2752 22.4757C74.4128 22.0599 74.4817 21.4951 74.4817 20.7812C74.4817 20.0673 74.4128 19.5192 74.2752 19.1371C74.1375 18.7549 73.9447 18.4567 73.6968 18.2426C73.449 18.0284 73.1346 17.8835 72.7536 17.8079C72.469 17.7491 71.9114 17.7197 71.0806 17.7197H70.1649Z" fill="#484848"/>
<path d="M78.3234 25.3923V16.1575H85.8072V17.7197H80.3613V19.767H85.4286V21.3229H80.3613V23.8363H86V25.3923H78.3234Z" fill="#484848"/>
<path d="M20 33.2079V29.0706H20.913V30.9078L22.7576 29.0706H23.9852L22.2826 30.682L24.0778 33.2079H22.8964L21.6533 31.2662L20.913 31.9577V33.2079H20Z" fill="#484848"/>
<path d="M29.2623 33.2079H28.269L27.8742 32.2681H26.0667L25.6934 33.2079H24.7249L26.4862 29.0706H27.4516L29.2623 33.2079ZM27.5812 31.571L26.9581 30.0358L26.3474 31.571H27.5812Z" fill="#484848"/>
<path d="M29.9896 33.2079V32.4544L32.3647 29.7705H30.258V29.0706H33.5677V29.7197L31.0908 32.5108H33.6633V33.2079H29.9896Z" fill="#484848"/>
<path d="M38.9527 33.2079H37.9594L37.5646 32.2681H35.7571L35.3839 33.2079H34.4153L36.1766 29.0706H37.142L38.9527 33.2079ZM37.2716 31.571L36.6485 30.0358L36.0378 31.571H37.2716Z" fill="#484848"/>
<path d="M40.0841 33.2079V29.0706H40.9971V30.9078L42.8417 29.0706H44.0693L42.3666 30.682L44.1618 33.2079H42.9805L41.7374 31.2662L40.9971 31.9577V33.2079H40.0841Z" fill="#484848"/>
<path d="M45.2717 33.2079V29.0706H46.1847V30.699H47.9737V29.0706H48.8867V33.2079H47.9737V31.3989H46.1847V33.2079H45.2717Z" fill="#484848"/>
<path d="M50.2341 31.8617L51.1224 31.7827C51.1759 32.0555 51.2838 32.2559 51.4463 32.3838C51.6108 32.5118 51.8319 32.5758 52.1095 32.5758C52.4035 32.5758 52.6246 32.5193 52.7727 32.4064C52.9228 32.2917 52.9978 32.1581 52.9978 32.0057C52.9978 31.9078 52.966 31.825 52.9022 31.7573C52.8405 31.6877 52.7315 31.6275 52.5752 31.5767C52.4683 31.5428 52.2246 31.4826 51.8442 31.3961C51.3548 31.2851 51.0114 31.1487 50.814 30.9868C50.5364 30.7592 50.3976 30.4817 50.3976 30.1543C50.3976 29.9436 50.4623 29.7469 50.5919 29.5644C50.7235 29.3801 50.9116 29.2399 51.1564 29.1439C51.4031 29.048 51.7003 29 52.0478 29C52.6153 29 53.042 29.1138 53.3279 29.3415C53.6158 29.5691 53.7669 29.873 53.7813 30.2531L52.8683 30.2898C52.8292 30.0771 52.7449 29.9247 52.6153 29.8326C52.4878 29.7385 52.2956 29.6914 52.0385 29.6914C51.7733 29.6914 51.5656 29.7413 51.4155 29.841C51.3188 29.905 51.2705 29.9906 51.2705 30.0978C51.2705 30.1957 51.3157 30.2794 51.4062 30.349C51.5214 30.4375 51.801 30.5296 52.2452 30.6256C52.6894 30.7216 53.0174 30.8213 53.2292 30.9248C53.443 31.0264 53.6096 31.1665 53.7289 31.3453C53.8502 31.5221 53.9109 31.7413 53.9109 32.0028C53.9109 32.2399 53.8389 32.4619 53.6949 32.6689C53.551 32.8759 53.3474 33.0301 53.0842 33.1317C52.821 33.2315 52.493 33.2813 52.1002 33.2813C51.5286 33.2813 51.0895 33.1609 50.7831 32.9201C50.4767 32.6774 50.2937 32.3246 50.2341 31.8617Z" fill="#484848"/>
<path d="M56.3285 33.2079V29.7705H54.9867V29.0706H58.5802V29.7705H57.2415V33.2079H56.3285Z" fill="#484848"/>
<path d="M63.4131 33.2079H62.4199L62.025 32.2681H60.2175L59.8443 33.2079H58.8757L60.637 29.0706H61.6025L63.4131 33.2079ZM61.732 31.571L61.1089 30.0358L60.4982 31.571H61.732Z" fill="#484848"/>
<path d="M64.5414 33.2079V29.0706H65.4298L67.2805 31.8335V29.0706H68.1287V33.2079H67.2126L65.3897 30.5099V33.2079H64.5414Z" fill="#484848"/>
<path d="M15.6608 31H1L2.09909 32.0971H15.6608V31Z" fill="#484848"/>
<path d="M72 30.9983H86.6608L85.5617 32.0954H72V30.9983Z" fill="#484848"/>
</g>
<defs>
<clipPath id="clip0_1439_3248">
<rect width="87" height="35" fill="white"/>
</clipPath>
</defs>
</svg>
