<svg width="112" height="35" viewBox="0 0 112 35" fill="none" xmlns="http://www.w3.org/2000/svg">
<g clip-path="url(#clip0_1439_3170)">
<path d="M18.0209 0H46.3081L41.5459 8.652L17.1399 8.65642C13.6328 9.04805 11.3752 11.5905 10.0348 14.7379C8.15087 19.1627 6.4339 23.6663 4.56544 28.0984C3.8981 29.4792 2.81436 30.3992 1.274 30.5045C0.872667 30.5322 0.395949 30.5148 0 30.4681V30.3944L0.0972821 30.2934C3.1701 22.5625 5.88323 14.6716 8.98333 6.95358C9.31431 6.12942 9.61441 5.64163 10.1446 4.94016C12.1326 2.31184 14.569 0.749 17.7585 0.0788421C17.8245 0.0648421 17.8985 0.112 17.8773 0H18.0209Z" fill="#484848"/>
<path d="M32.2361 35C32.2562 34.8872 32.1812 34.9303 32.1119 34.9263C31.157 34.8721 29.6942 34.5648 29.3108 33.5259C29.0649 32.8594 29.2444 32.2607 29.4397 31.6142L39.0746 31.6105L39.1722 31.5265L39.5592 30.4684H31.931C31.8692 30.4684 31.4442 30.3188 31.3609 30.2797C30.905 30.0661 30.4983 29.6129 30.6742 29.068L33.6763 21.3912C34.1319 20.486 35.4112 20.0303 36.3446 19.9297L50.2563 19.9315L44.8903 33.5635C44.4876 34.3228 43.421 34.7774 42.6256 34.9252C42.5588 34.9377 42.482 34.8832 42.5024 34.9996H32.2358L32.2361 35ZM42.3951 23.321H39.4695L37.9797 27.1157H40.9233L42.3951 23.321Z" fill="#B8B8B8"/>
<path d="M112 21.3316L108.392 30.358H101.912L104.641 23.2474H101.751L98.915 30.358H92.4355L96.4977 19.9379L110.404 19.9302C110.885 19.9788 111.339 20.103 111.709 20.4331L112 20.8159V21.3316Z" fill="#B8B8B8"/>
<path d="M73.2306 30.3579H66.6972L69.4614 23.2473H66.5716L63.7537 30.3579H57.2203L59.9844 23.2473H57.0947L54.2588 30.3579H47.7793L51.8881 19.929L75.2243 19.9301C75.9469 19.9875 76.9524 20.3707 76.7683 21.2965L73.2306 30.3579Z" fill="#B8B8B8"/>
<path d="M30.6736 19.9315C31.3431 19.9949 32.2782 20.4278 32.1189 21.2674L28.5776 30.335L28.5212 30.3604L14.7337 30.3593C13.8133 30.2635 12.8236 29.912 13.183 28.7644C13.5423 27.6168 14.1734 26.3778 14.6027 25.211C15.0755 24.4189 16.347 23.9635 17.2107 23.9086L24.5671 23.9127C24.5836 23.8427 24.8557 23.2558 24.7865 23.2469H19.4385C18.5457 23.1519 17.4957 22.9135 16.9709 22.0949C16.5638 21.4597 16.5196 20.6628 16.656 19.9312H30.674L30.6736 19.9315ZM23.5121 26.5631H20.5685C20.5459 26.5631 20.4335 26.9522 20.4249 27.0052H23.3685L23.5121 26.5631Z" fill="#B8B8B8"/>
<path d="M87.0167 23.2474L81.6845 23.2489C79.9148 23.0931 78.6846 22.315 78.8325 20.3189C78.8386 20.2341 78.8651 19.9578 78.9269 19.9368L92.8156 19.9302C93.666 19.9899 94.7189 20.5204 94.2594 21.5626L90.7863 30.3403L76.982 30.3598C76.2008 30.3193 75.0309 29.8886 75.3856 28.8655C75.863 27.7742 76.2102 26.5426 76.7081 25.4701C77.206 24.3976 78.3611 24.0384 79.3889 23.911H86.7478C86.7992 23.9117 86.8082 23.8852 86.8304 23.8487C86.8699 23.785 87.0483 23.281 87.0164 23.2478L87.0167 23.2474ZM85.7244 26.5632H82.8347C82.783 26.5632 82.6742 26.942 82.6372 27.0053H85.5629C85.6239 26.956 85.7614 26.6015 85.7244 26.5632Z" fill="#B8B8B8"/>
<path d="M40.9593 9.80043C40.5522 10.559 40.1225 11.3183 39.6099 12.0073C37.161 15.3002 34.6542 15.3035 30.8915 15.3245C25.2427 15.3559 19.5935 15.3061 13.9447 15.3245C12.8663 15.3964 11.7721 15.4741 10.7695 15.9155C11.1095 14.9594 11.4868 14.0023 12.0536 13.1626C13.1948 11.4734 15.0621 10.0156 17.1033 9.79785L40.9589 9.80006L40.9593 9.80043Z" fill="#484848"/>
<path d="M16.9801 16.395L13.1096 26.4408C12.181 28.5544 10.7149 29.7676 8.47922 30.199C7.34055 30.419 6.21588 30.3527 5.0625 30.3578L5.09696 30.1909C6.56194 26.6876 7.77204 23.0627 9.24563 19.5645C10.2859 17.095 11.7689 16.5413 14.3064 16.4322C15.1942 16.3943 16.092 16.4433 16.9804 16.3954L16.9801 16.395Z" fill="#B8B8B8"/>
</g>
<defs>
<clipPath id="clip0_1439_3170">
<rect width="112" height="35" fill="white"/>
</clipPath>
</defs>
</svg>
