<svg width="88" height="35" viewBox="0 0 88 35" fill="none" xmlns="http://www.w3.org/2000/svg">
<mask id="mask0_1439_3200" style="mask-type:luminance" maskUnits="userSpaceOnUse" x="7" y="0" width="28" height="35">
<path d="M34.1675 0.278809H7.66992V34.8899H34.1675V0.278809Z" fill="white"/>
</mask>
<g mask="url(#mask0_1439_3200)">
<path fill-rule="evenodd" clip-rule="evenodd" d="M20.5721 34.7378C20.7561 34.8337 20.8507 34.883 20.8367 34.883H20.9826C20.9688 34.883 21.0643 34.8337 21.2496 34.7381C23.0215 33.825 33.0044 28.679 34.1387 21.8681V0.32251H7.68164V21.8681C9.10664 28.7621 18.8329 33.8315 20.5721 34.7378ZM20.0273 8.77566C20.3799 9.03458 20.7898 9.16633 21.2458 9.16633C21.8183 9.16633 22.3102 8.97784 22.7074 8.60435C23.1102 8.22783 23.3144 7.76213 23.3144 7.22092C23.3144 6.78715 23.1847 6.43392 22.9293 6.17041C22.6968 5.93074 22.2586 5.66365 21.5903 5.35304C20.999 5.07837 20.7563 4.90559 20.6566 4.80879C20.5395 4.69528 20.4848 4.55998 20.4848 4.38362C20.4848 4.14446 20.5663 3.9473 20.7346 3.78058C20.9027 3.61336 21.1024 3.53179 21.344 3.53179C21.7717 3.53179 22.0731 3.71065 22.2935 4.09479L22.4445 4.35831L23.1026 3.8049L22.9922 3.61944C22.6203 2.99361 22.0746 2.67638 21.3704 2.67638C20.8587 2.67638 20.4326 2.83955 20.1043 3.16033C19.7745 3.48313 19.6072 3.90222 19.6072 4.40641C19.6072 4.82501 19.7527 5.17315 20.0394 5.44171C20.2335 5.62161 20.6069 5.84511 21.1804 6.12382C21.8299 6.43999 22.1035 6.63055 22.218 6.73395C22.3675 6.87026 22.4369 7.02076 22.4369 7.20672C22.4369 7.50924 22.3244 7.76213 22.0924 7.98053C21.8558 8.20302 21.5791 8.31144 21.2458 8.31144C20.96 8.31144 20.7158 8.22328 20.4985 8.04136C20.3019 7.87868 20.1707 7.68055 20.0967 7.43527L20.0121 7.15453L19.2075 7.52954L19.281 7.74541C19.4254 8.17109 19.6767 8.51771 20.0273 8.77566ZM15.7081 9.16633C14.8053 9.16633 14.022 8.84659 13.3796 8.21616C12.7356 7.58426 12.4093 6.81297 12.4093 5.92362C12.4093 5.03431 12.7336 4.26252 13.373 3.62958C14.0118 2.99768 14.7921 2.6769 15.6929 2.6769C16.2553 2.6769 16.7939 2.8198 17.2929 3.10207C17.7529 3.36457 18.1365 3.71676 18.4339 4.14901L18.5687 4.34512L17.8669 4.89801L17.7134 4.67451C17.1855 3.90577 16.5182 3.53179 15.6741 3.53179C15.0317 3.53179 14.4851 3.76641 14.0032 4.24985C13.5214 4.73331 13.2869 5.2806 13.2869 5.92362C13.2869 6.57482 13.5169 7.12311 13.9906 7.60148C14.4633 8.07885 15.0069 8.31093 15.6514 8.31093C16.2178 8.31093 16.7093 8.13461 17.1551 7.77178C17.5492 7.44947 17.7727 7.07497 17.833 6.63408H15.7633V5.77868H18.7277V6.35743C18.7277 7.16923 18.4004 7.85893 17.7555 8.40773C17.1622 8.91146 16.4737 9.16633 15.7081 9.16633ZM17.2645 11.9094C17.1232 11.9094 16.9965 11.8688 16.8871 11.7883C16.7787 11.7082 16.7006 11.6013 16.656 11.4695L16.6297 11.392L16.8997 11.2663L16.9301 11.3667C16.952 11.4381 16.9899 11.4964 17.0472 11.5435C17.1105 11.5962 17.1814 11.6221 17.2645 11.6221C17.3618 11.6221 17.4424 11.5906 17.5113 11.5258C17.5787 11.4624 17.6111 11.389 17.6111 11.3018C17.6111 11.2496 17.5913 11.2075 17.5493 11.169C17.5153 11.1386 17.4337 11.0813 17.2382 10.9866C17.0629 10.9015 16.9489 10.833 16.8891 10.7778C16.7989 10.6937 16.7538 10.5847 16.7538 10.454C16.7538 10.2974 16.806 10.1672 16.9089 10.0663C17.0112 9.96651 17.1434 9.9158 17.302 9.9158C17.5204 9.9158 17.6901 10.0142 17.8056 10.2087L17.8452 10.2751L17.6237 10.4611L17.5695 10.3668C17.5057 10.2553 17.4181 10.2032 17.2944 10.2032C17.225 10.2032 17.1678 10.2264 17.1196 10.2746C17.0715 10.3222 17.0482 10.379 17.0482 10.4474C17.0482 10.4966 17.0634 10.5346 17.0958 10.566C17.1252 10.5944 17.1976 10.6461 17.375 10.7287C17.5792 10.8234 17.7129 10.9055 17.7848 10.9795C17.8649 11.0621 17.9054 11.1726 17.9054 11.3074C17.9054 11.4756 17.8421 11.62 17.717 11.7371C17.5939 11.8511 17.4413 11.9094 17.2645 11.9094ZM19.019 11.8866H18.7252V10.2264H18.254V9.93913H19.4902V10.2264H19.019V11.8866ZM20.154 11.7239C20.2786 11.8471 20.4473 11.9094 20.655 11.9094C20.8617 11.9094 21.0299 11.8471 21.1546 11.7239C21.2792 11.6003 21.3425 11.4331 21.3425 11.2263V9.93964H21.0487V11.2014C21.0487 11.3403 21.0147 11.4472 20.9484 11.5182C20.883 11.5886 20.7883 11.6226 20.6596 11.6226C20.5278 11.6226 20.4306 11.5881 20.3622 11.5172C20.2928 11.4452 20.2593 11.3423 20.2593 11.2014V9.93964H19.965V11.2263C19.965 11.4331 20.0288 11.6003 20.154 11.7239ZM22.4019 11.8866H21.9931V9.93913H22.4374C22.7247 9.93913 22.9643 10.0314 23.1497 10.2128C23.3362 10.3947 23.4304 10.6303 23.4304 10.9131C23.4304 11.2025 23.3332 11.4401 23.1421 11.619C22.9527 11.7969 22.7034 11.8866 22.4019 11.8866ZM22.2874 11.5993H22.4146C22.6259 11.5993 22.7956 11.5354 22.9329 11.4037C23.0692 11.2734 23.1351 11.1128 23.1351 10.9126C23.1351 10.7099 23.0707 10.5488 22.9375 10.4195C22.8037 10.2898 22.636 10.2264 22.4237 10.2264H22.2874V11.5993ZM24.2411 11.8866H24.5364V11.0667L25.191 9.93913H24.8561L24.389 10.7444L23.9214 9.93913H23.5864L24.2411 11.0667V11.8866ZM27.3235 9.16633C26.3948 9.16633 25.5887 8.8476 24.9281 8.21923C24.2633 7.58729 23.9264 6.815 23.9264 5.92362C23.9264 5.04952 24.2557 4.28127 24.9058 3.64073C25.5548 3.00122 26.3325 2.6769 27.2176 2.6769C28.0373 2.6769 28.7482 2.95257 29.3303 3.49633L29.4109 3.57183V4.88634L28.964 4.36441C28.4847 3.80443 27.8996 3.53229 27.1761 3.53229C26.5412 3.53229 25.9991 3.76691 25.5188 4.24985C25.038 4.73331 24.8044 5.2806 24.8044 5.92362C24.8044 6.5586 25.0405 7.10386 25.5259 7.58931C26.0113 8.07531 26.5564 8.31144 27.1913 8.31144C27.8742 8.31144 28.4548 8.04999 28.965 7.51126L29.4033 7.04915V8.30689L29.3121 8.38288C28.6894 8.90282 28.0206 9.16633 27.3235 9.16633ZM13.3912 21.3279C13.3912 21.599 13.1714 21.8189 12.9003 21.8189C12.6291 21.8189 12.4093 21.599 12.4093 21.3279C12.4093 21.0567 12.6291 20.8368 12.9003 20.8368C13.1714 20.8368 13.3912 21.0567 13.3912 21.3279ZM28.9205 21.8189C29.1916 21.8189 29.4114 21.599 29.4114 21.3279C29.4114 21.0567 29.1916 20.8368 28.9205 20.8368C28.6493 20.8368 28.4295 21.0567 28.4295 21.3279C28.4295 21.599 28.6493 21.8189 28.9205 21.8189ZM25.606 24.9106C25.6521 24.9572 25.6926 25.0069 25.7296 25.058L27.4066 26.7121C27.5687 26.8743 27.5687 27.1373 27.4066 27.2994C27.2444 27.4616 26.9815 27.4616 26.8194 27.2994L25.8421 26.3351C25.7833 26.4552 25.7053 26.5682 25.606 26.6675C25.5036 26.7699 25.3876 26.8489 25.264 26.9082L25.6784 27.3222C25.8405 27.4844 25.8405 27.7474 25.6784 27.9095L24.506 29.0822C24.3439 29.2443 24.0809 29.2443 23.9188 29.0822C23.7567 28.92 23.7567 28.657 23.9188 28.4949L24.7974 27.6162L24.1428 26.9614L23.2643 27.8401C23.1021 28.0023 22.8392 28.0023 22.677 27.8401C22.5149 27.678 22.5149 27.4149 22.677 27.2528L23.5555 26.3741L22.901 25.7194L22.0225 26.5981C21.8603 26.7603 21.5974 26.7603 21.4352 26.5981C21.2731 26.4359 21.2731 26.1729 21.4352 26.0107L22.6076 24.8381C22.7697 24.676 23.0327 24.676 23.1948 24.8381L23.6087 25.2527C23.668 25.129 23.7471 25.013 23.8494 24.9106C23.9447 24.8153 24.0516 24.7398 24.1656 24.6821L21.8036 22.352C21.7833 22.4022 21.7534 22.4488 21.7129 22.4894C21.5508 22.6515 21.2878 22.6515 21.1257 22.4894L20.9179 22.2816L20.6727 22.5268C20.5106 22.689 20.2477 22.689 20.0855 22.5268C20.045 22.4863 20.0146 22.4392 19.9943 22.3895L17.6942 24.6577C17.8082 24.7155 17.9156 24.7915 18.0108 24.8868C18.1127 24.9886 18.1922 25.1047 18.251 25.2283L18.6654 24.8143C18.8275 24.6522 19.0905 24.6522 19.2526 24.8143L20.4245 25.9864C20.5866 26.1486 20.5866 26.4116 20.4245 26.5737C20.2624 26.7359 19.9994 26.7359 19.8373 26.5737L18.9588 25.695L18.3042 26.3498L19.1827 27.2285C19.3448 27.3906 19.3448 27.6536 19.1827 27.8158C19.0206 27.978 18.7576 27.978 18.5955 27.8158L17.717 26.9371L17.0624 27.5918L17.9409 28.4705C18.103 28.6327 18.103 28.8957 17.9409 29.0578C17.7788 29.22 17.5158 29.22 17.3537 29.0578L16.1818 27.8857C16.0197 27.7236 16.0197 27.4606 16.1818 27.2984L16.5958 26.8839C16.4721 26.8251 16.3561 26.7456 16.2543 26.6437C16.1545 26.5438 16.0769 26.4314 16.0182 26.3113L15.0404 27.2751C14.8782 27.4372 14.6153 27.4372 14.4531 27.2751C14.291 27.1129 14.291 26.8499 14.4531 26.6878L16.1297 25.0347C16.1671 24.9831 16.2077 24.9334 16.2543 24.8868C16.3049 24.8356 16.3602 24.7915 16.4169 24.751L19.4066 21.8027C19.3575 21.7824 19.3114 21.7525 19.2719 21.7125C19.1098 21.5503 19.1098 21.2873 19.2719 21.1252L19.5166 20.8799L19.3154 20.6787C19.1827 20.5459 19.1589 20.3453 19.244 20.1877C18.6705 20.0377 17.9186 19.7975 17.6324 19.5112C17.3375 19.2162 17.2098 18.8164 17.2488 18.4308C16.9053 18.6451 16.5309 18.8088 16.1387 18.9147C16.0972 18.9259 16.0552 18.9365 16.0131 18.9462C14.7252 19.2497 13.5468 18.071 13.8497 16.7833C13.8599 16.7407 13.87 16.6987 13.8817 16.6566C13.982 16.2837 14.1355 15.9274 14.3346 15.5975L14.3194 15.5899C14.2368 15.5433 14.1644 15.4967 14.1122 15.445C13.7342 15.072 13.7342 14.4609 14.1122 14.0829C14.4851 13.7048 15.1012 13.7048 15.474 14.0829C15.5207 14.1295 15.5673 14.1918 15.6088 14.2693C15.6098 14.2709 15.6103 14.2724 15.6113 14.2739C15.9751 14.0352 16.3754 13.8543 16.7969 13.7408C16.8389 13.7296 16.881 13.719 16.923 13.7094C18.2109 13.4058 19.3894 14.585 19.0859 15.8727C19.0758 15.9147 19.0651 15.9568 19.054 15.9989C18.9355 16.4398 18.743 16.8573 18.4881 17.2348C18.8589 17.2105 19.2379 17.3392 19.5207 17.622C19.8054 17.9068 20.0445 18.6517 20.195 19.2238C20.3561 19.1179 20.575 19.1357 20.7168 19.2776L20.9179 19.4787L21.0816 19.3151C21.2235 19.1732 21.4423 19.1554 21.6035 19.2613C21.7534 18.6892 21.9925 17.9443 22.2778 17.6595C22.5261 17.4112 22.8483 17.2815 23.1741 17.2703C22.9582 16.9237 22.7936 16.5467 22.6882 16.1529C22.6738 16.1152 22.6641 16.0771 22.6543 16.039L22.6517 16.0288C22.3518 14.7396 23.5267 13.5584 24.8161 13.8639C24.8576 13.8746 24.8987 13.8847 24.9453 13.8953C25.3233 13.9987 25.686 14.1543 26.0174 14.3615C26.064 14.2785 26.1106 14.206 26.1623 14.1543C26.5352 13.7762 27.1462 13.7762 27.5242 14.1543C27.9021 14.5267 27.9021 15.1435 27.5242 15.5159C27.477 15.5625 27.4152 15.6092 27.3377 15.6507C27.5708 16.008 27.7465 16.3967 27.8605 16.8107L27.8674 16.8386C27.8754 16.8711 27.8836 16.9042 27.8915 16.9404C28.1919 18.2245 27.0164 19.4052 25.7271 19.0997L25.7009 19.0932L25.6742 19.0865C25.6618 19.0834 25.6494 19.0802 25.6369 19.0772C25.6256 19.0743 25.6143 19.0715 25.6029 19.0688C25.2336 18.97 24.882 18.8205 24.5562 18.6259C24.5506 18.9608 24.4209 19.2937 24.166 19.5482C23.8798 19.835 23.1279 20.0752 22.5544 20.2252C22.6395 20.3828 22.6157 20.5835 22.483 20.7162L22.3189 20.8799L22.5266 21.0876C22.6887 21.2499 22.6887 21.5128 22.5266 21.675C22.4866 21.715 22.4405 21.7449 22.3918 21.7652L25.4438 24.7758C25.5006 24.8158 25.5548 24.8599 25.606 24.9106ZM24.388 16.7732C24.2461 16.9156 24.2461 17.1466 24.388 17.2891C24.5303 17.4315 24.7619 17.4315 24.9042 17.2891C24.9802 17.2125 25.1079 16.8675 25.2199 16.4575C24.8095 16.569 24.4645 16.6967 24.388 16.7732ZM27.0991 14.579C26.9598 14.4335 26.7267 14.4335 26.5818 14.579C26.561 14.5997 26.5352 14.6464 26.5037 14.7133C26.602 14.7913 26.6958 14.8739 26.7885 14.9671C26.8559 15.0346 26.9182 15.1019 26.9749 15.1693C27.0373 15.1379 27.0788 15.1121 27.0991 15.0913C27.2444 14.9514 27.2444 14.7188 27.0991 14.579ZM25.7377 15.0761C25.4372 14.8845 25.1059 14.7396 24.7644 14.6565C23.967 14.4649 23.2526 15.1795 23.4441 15.9771C23.5075 16.237 23.6042 16.4884 23.7324 16.7256C23.778 16.5877 23.8545 16.458 23.9639 16.349C24.2633 16.0496 25.265 15.82 25.5649 15.7566C25.6643 15.7359 25.7671 15.7668 25.839 15.8382C25.9104 15.9102 25.9408 16.0131 25.9201 16.1124C25.8568 16.4124 25.6277 17.4142 25.3283 17.7132C25.2098 17.8318 25.0679 17.9129 24.918 17.9564C25.1875 18.1161 25.4778 18.2341 25.7792 18.3071C26.5767 18.5043 27.2911 17.7842 27.0991 16.987C27.0064 16.609 26.8457 16.2512 26.6177 15.9305C26.5144 15.7749 26.3902 15.63 26.2555 15.4952C26.0949 15.335 25.9242 15.1952 25.7377 15.0761ZM23.5789 18.2468C23.3823 18.0502 23.0616 18.0502 22.865 18.2468C22.7591 18.3527 22.5823 18.8306 22.4278 19.3982C22.9952 19.2436 23.4735 19.0667 23.5789 18.9609C23.7759 18.7642 23.7759 18.4439 23.5789 18.2468ZM15.0495 14.5075C14.9096 14.3626 14.6766 14.3626 14.5367 14.5075C14.3919 14.6474 14.3919 14.8805 14.5367 15.0254C14.5575 15.0462 14.6041 15.072 14.6715 15.1029C14.6724 15.1034 14.6734 15.1039 14.6744 15.1043L14.6763 15.1052C14.6779 15.106 14.6796 15.1067 14.6811 15.1075C14.7658 15.0041 14.856 14.9053 14.9507 14.8105C15.0089 14.7518 15.0698 14.6955 15.1311 14.6408C15.13 14.6377 15.1285 14.6342 15.127 14.6317C15.0961 14.5698 15.0703 14.5283 15.0495 14.5075ZM16.7584 17.2115C16.9007 17.3539 17.1318 17.3539 17.2741 17.2115C17.4165 17.0696 17.4165 16.838 17.2741 16.6957C17.1976 16.6196 16.8526 16.492 16.4427 16.38C16.5542 16.7899 16.6819 17.1355 16.7584 17.2115ZM16.0978 15.6796C16.3976 15.7424 17.3993 15.972 17.6982 16.2715C17.8173 16.3906 17.8983 16.533 17.9419 16.684C18.1025 16.4139 18.2206 16.1235 18.2935 15.822C18.4866 15.0244 17.7712 14.3088 16.9742 14.5014C16.4195 14.6352 15.9042 14.921 15.4827 15.3426C15.0611 15.7638 14.7759 16.2796 14.6416 16.834C14.4491 17.6316 15.165 18.3472 15.962 18.1541C16.2213 18.0913 16.4721 17.995 16.7093 17.8673C16.5719 17.8217 16.4433 17.7451 16.3343 17.6362C16.0349 17.3367 15.8054 16.3348 15.7421 16.0349C15.7213 15.9355 15.7517 15.8326 15.8236 15.7607C15.895 15.6892 15.9984 15.6583 16.0978 15.6796ZM18.2196 18.2093C18.0225 18.4065 18.0225 18.7267 18.2196 18.9233C18.325 19.0293 18.8027 19.2061 19.3707 19.3607C19.2156 18.7931 19.0393 18.3152 18.9334 18.2093C18.7363 18.0127 18.4161 18.0127 18.2196 18.2093ZM16.8415 26.0564C17.0021 26.2165 17.263 26.2165 17.4236 26.0564C17.5837 25.8958 17.5837 25.6347 17.4236 25.4741C17.2934 25.3439 17.0968 25.319 16.9413 25.4006L16.7711 25.5683C16.6865 25.7244 16.7097 25.9241 16.8415 26.0564ZM21.6212 21.6836C21.72 21.5848 21.72 21.4247 21.6212 21.3258L21.2488 20.9534L21.6212 20.5804C21.72 20.4816 21.72 20.3215 21.6212 20.2226C21.5224 20.1238 21.3623 20.1238 21.2635 20.2226L20.8911 20.5956L20.5182 20.2226C20.4194 20.1238 20.2593 20.1238 20.1605 20.2226C20.0617 20.3215 20.0617 20.4816 20.1605 20.5804L20.5334 20.9534L20.1605 21.3258C20.0617 21.4247 20.0617 21.5848 20.1605 21.6836C20.2593 21.7824 20.4194 21.7824 20.5182 21.6836L20.8911 21.3111L21.2635 21.6836C21.3623 21.7824 21.5224 21.7824 21.6212 21.6836ZM24.4366 26.0802C24.5967 26.2408 24.8581 26.2408 25.0183 26.0802C25.1505 25.9484 25.1738 25.7482 25.0887 25.5922L24.9189 25.425C24.7634 25.3434 24.5668 25.3677 24.4366 25.4984C24.276 25.6586 24.276 25.9196 24.4366 26.0802Z" fill="#484848"/>
</g>
<path d="M42.6048 11.2112C42.6154 8.67833 44.5233 7.40662 46.4099 7.40662C47.9044 7.41722 49.4624 8.19084 49.8228 10.0348H47.9574C47.65 9.39897 47.1624 9.14463 46.4099 9.14463C45.2122 9.14463 44.5657 10.0772 44.5657 11.2112C44.5657 12.4405 45.2864 13.2459 46.4099 13.2459C47.173 13.2459 47.6606 13.0445 47.9997 12.3345H46.4205V10.6919H49.9288C49.9712 11.4337 49.9712 12.1438 49.7168 12.8644C49.1868 14.4116 47.7772 15.0051 46.4099 15.0051C44.5233 15.0051 42.6154 13.744 42.6048 11.2112Z" fill="#969696"/>
<path d="M52.7485 12.6524C52.7485 13.5956 55.0697 13.6062 55.0697 12.7372C55.0697 12.2179 54.455 12.1014 53.7131 12.059C52.102 11.9424 51.0421 11.3913 51.0209 9.78049C50.9573 6.58001 56.7232 6.58001 56.6808 9.78049C56.013 9.78049 55.5255 9.78049 54.8789 9.78049C54.8789 8.79491 52.8863 8.87969 52.8227 9.75929C52.7803 10.321 53.3315 10.4375 53.9992 10.5117C55.4725 10.6707 56.914 10.8932 56.914 12.7478C56.914 15.8635 50.8725 15.9165 50.9149 12.6524C51.5508 12.6524 52.102 12.6524 52.7485 12.6524Z" fill="#969696"/>
<path d="M57.8619 11.2112C57.8725 8.68893 59.7803 7.41722 61.667 7.41722C63.2038 7.41722 64.8679 8.25443 65.1541 10.2362C64.5075 10.2362 63.9352 10.2362 63.2886 10.2362C63.0237 9.48375 62.4619 9.14463 61.667 9.14463C60.5541 9.14463 59.8227 9.98184 59.8227 11.2112C59.8227 12.3027 60.5435 13.2565 61.667 13.2671C62.4725 13.2671 63.119 12.8644 63.3204 12.0696C63.9564 12.0696 64.5393 12.0696 65.1859 12.0696C64.9103 14.1679 63.2462 14.9945 61.667 14.9945C59.7803 15.0051 57.8725 13.7334 57.8619 11.2112Z" fill="#969696"/>
<path d="M44.3749 23.25C44.3749 24.1932 46.6961 24.2038 46.6961 23.3348C46.6961 22.8155 46.0813 22.699 45.3394 22.6566C43.7283 22.54 42.6684 21.9889 42.6472 20.3781C42.5836 17.1776 48.3495 17.1776 48.3071 20.3781C47.6394 20.3781 47.1518 20.3781 46.5053 20.3781C46.5053 19.3925 44.5127 19.4773 44.4491 20.3569C44.4067 20.9186 44.9578 21.0351 45.6256 21.1093C47.0988 21.2683 48.5403 21.4908 48.5403 23.3454C48.5403 26.4611 42.4988 26.5141 42.5412 23.25C43.1772 23.25 43.7283 23.25 44.3749 23.25Z" fill="#969696"/>
<path d="M51.0251 19.7952H49.2021C49.2021 19.223 49.2021 18.6613 49.2021 18.0996H54.7136C54.7136 18.6613 54.7136 19.223 54.7136 19.7952H52.9011V25.5179C52.2758 25.5179 51.6505 25.5179 51.0251 25.5179V19.7952Z" fill="#969696"/>
<path d="M58.7574 23.9177C59.3085 23.9177 59.8809 23.621 59.8809 23.0169V18.0996C60.485 18.0996 61.0998 18.0996 61.6933 18.0996V23.0487C61.6933 24.6807 60.2836 25.6239 58.7574 25.6239C57.2417 25.6239 55.8108 24.6807 55.8108 23.0487V18.0996C56.4044 18.0996 57.0297 18.0996 57.6233 18.0996V23.0169C57.6233 23.621 58.2062 23.9177 58.7574 23.9177Z" fill="#969696"/>
<path d="M66.3323 18.0996C71.1655 18.1208 71.1655 25.4967 66.3323 25.5179H63.5341V18.0996H66.3323ZM65.4314 19.827V23.7905H66.3323C68.6959 23.7905 68.6959 19.827 66.3323 19.827H65.4314Z" fill="#969696"/>
<path d="M74.6607 22.4022V25.5179H72.7847V22.4022L70.2939 18.3857V18.0996H72.3396L73.6856 20.5689H73.7598L75.1059 18.0996H77.1621V18.3857L74.6607 22.4022Z" fill="#969696"/>
</svg>
