<svg width="52" height="35" viewBox="0 0 52 35" fill="none" xmlns="http://www.w3.org/2000/svg">
<g clip-path="url(#clip0_1439_3263)">
<path d="M49.2001 20.4837C35.4496 15.6759 41.8624 -3.78639 56.1668 0.654556C57.0158 0.916951 60.4739 2.58724 60.1477 3.65939C60.1056 3.79482 58.1544 5.4764 58.0167 5.49897C57.7665 5.5413 55.7001 4.02054 55.0226 3.77507C48.7531 1.5292 43.2343 7.83231 46.161 13.7997C47.8591 17.2644 52.6244 18.3535 55.9222 16.6437C58.0111 15.5602 57.2857 14.1269 59.4702 16.528C59.7879 16.8779 60.1758 17.1064 60.1674 17.6622C59.83 17.6848 59.0541 18.7372 58.5762 19.0278C54.5587 21.4486 53.1951 20.32 49.2029 20.4837H49.2001Z" fill="#484848"/>
<path d="M24.4592 30.923C34.0123 30.9117 43.5823 30.9315 53.1355 30.923V32.0488C42.3622 32.0431 31.5748 32.0629 20.8044 32.0488C13.8743 32.0403 6.9301 32.0544 0 32.0488V30.923C8.14744 30.9117 16.3117 30.9315 24.4592 30.923Z" fill="#484848"/>
<path d="M3.65482 0.451416V8.6336H14.057V0.451416H17.7118V20.4837H14.057V11.7372H3.65482V20.4837H0V0.451416H3.65482Z" fill="#484848"/>
<path d="M30.6437 0.451387C31.3999 0.473958 31.9257 0.702495 32.3305 0.733531V20.4836H28.3945V0.451387C29.1424 0.465494 29.8958 0.428815 30.6437 0.451387Z" fill="#484848"/>
</g>
<defs>
<clipPath id="clip0_1439_3263">
<rect width="167" height="35" fill="white"/>
</clipPath>
</defs>
</svg>
