<svg width="103" height="102" viewBox="0 0 103 102" fill="none" xmlns="http://www.w3.org/2000/svg">
<path d="M76.4622 4.67578H26.538C14.74 4.67578 5.17578 14.24 5.17578 26.038V75.9622C5.17578 87.7602 14.74 97.3244 26.538 97.3244H76.4622C88.2602 97.3244 97.8244 87.7602 97.8244 75.9622V26.038C97.8244 14.24 88.2602 4.67578 76.4622 4.67578Z" fill="#1A1A1A"/>
<path d="M66.442 22.9541C69.9592 22.9683 73.3283 24.3718 75.8153 26.8588C78.3023 29.3458 79.7058 32.7149 79.72 36.2321V65.7682C79.7058 69.2854 78.3023 72.6545 75.8153 75.1415C73.3283 77.6285 69.9592 79.032 66.442 79.0462H36.5592C33.0421 79.032 29.673 77.6285 27.186 75.1415C24.6989 72.6545 23.2955 69.2854 23.2813 65.7682V36.2321C23.2955 32.7149 24.6989 29.3458 27.186 26.8588C29.673 24.3718 33.0421 22.9683 36.5592 22.9541H66.442ZM66.442 16.7784H36.5592C25.8592 16.7784 17.1035 25.544 17.1035 36.2341V65.7682C17.1035 76.4683 25.8691 85.2239 36.5592 85.2239H66.442C77.1421 85.2239 85.8977 76.4583 85.8977 65.7682V36.2321C85.8977 25.532 77.1421 16.7764 66.442 16.7764V16.7784Z" fill="#FEFEFE"/>
<path d="M51.4995 39.4712C53.7797 39.4712 56.0087 40.1473 57.9046 41.4141C59.8005 42.6809 61.2781 44.4815 62.1507 46.5881C63.0233 48.6947 63.2516 51.0128 62.8068 53.2491C62.3619 55.4855 61.2639 57.5397 59.6516 59.1521C58.0393 60.7644 55.985 61.8624 53.7487 62.3073C51.5123 62.7521 49.1942 62.5238 47.0876 61.6512C44.981 60.7786 43.1805 59.3009 41.9137 57.405C40.6469 55.5091 39.9707 53.2802 39.9707 51C39.9744 47.9435 41.1902 45.0132 43.3515 42.852C45.5128 40.6907 48.443 39.4749 51.4995 39.4712ZM51.4995 33.2954C47.9979 33.2954 44.5749 34.3338 41.6634 36.2792C38.7519 38.2246 36.4826 40.9896 35.1426 44.2247C33.8026 47.4598 33.452 51.0196 34.1351 54.454C34.8183 57.8883 36.5045 61.043 38.9805 63.519C41.4565 65.995 44.6112 67.6812 48.0455 68.3644C51.4799 69.0475 55.0397 68.6969 58.2747 67.3569C61.5098 66.0169 64.2749 63.7476 66.2203 60.8361C68.1657 57.9246 69.2041 54.5016 69.2041 51C69.2041 46.3044 67.3388 41.8012 64.0185 38.481C60.6983 35.1607 56.195 33.2954 51.4995 33.2954Z" fill="#FEFEFE"/>
<path d="M69.5901 36.7159C71.9084 36.7159 73.7877 34.8366 73.7877 32.5183C73.7877 30.2001 71.9084 28.3208 69.5901 28.3208C67.2719 28.3208 65.3926 30.2001 65.3926 32.5183C65.3926 34.8366 67.2719 36.7159 69.5901 36.7159Z" fill="#FEFEFE"/>
</svg>
