<svg width="244" height="35" viewBox="0 0 244 35" fill="none" xmlns="http://www.w3.org/2000/svg">
<g clip-path="url(#clip0_1439_3229)">
<path d="M0 7.4469H9.55971V19.0828H10.5558L17.5237 7.4469H28.616L20.0839 21.2234L29.043 34.9999H18.0927L10.3423 22.6511H9.46502V34.9999H0V7.68547" fill="#666666"/>
<path d="M38.9972 35H29.043L30.7492 31.4792H40.0397L38.9972 35Z" fill="#666666"/>
<path d="M49.0161 35H58.9703L57.2641 31.4792H47.9727L49.0161 35Z" fill="#666666"/>
<path d="M31.4766 29.7021L56.4768 29.6425L55.1243 25.4517H33.2144L31.4766 29.7021Z" fill="#484848"/>
<path d="M41.9999 24.2458H33.5625L38.9977 7.44702H49.1423L54.7038 24.2458H46.4873L44.8758 17.9013H43.4852L41.9999 24.2458Z" fill="#666666"/>
<path d="M49.0083 6.3128H39.1172L41.4082 0H46.8834L49.0083 6.3128Z" fill="#666666"/>
<path d="M84.4156 7.44702H61.0938V14.2677H84.4156V7.44702Z" fill="#666666"/>
<path d="M84.4175 14.6963L73.9889 26.308H61.9961L72.8034 14.6963H84.4175Z" fill="#666666"/>
<path d="M84.4156 28.1792H61.0938V34.9999H84.4156V28.1792Z" fill="#666666"/>
<path d="M87.9398 7.44702L96.4171 20.5022V21.478L87.3633 34.7074H97.4605L105.139 21.8582V20.1453L97.8392 7.44702H87.9398Z" fill="#484848"/>
<path d="M107.25 7.4469L103.221 14.1492V14.9106L106.136 20.2878V21.6679L103.221 26.7124V28.0926L107.487 34.7073H117.821L108.53 21.763V20.0501L117.063 7.4469H107.25Z" fill="#484848"/>
<path d="M120.895 7.44702V34.7074H129.333L136.775 24.0528V11.746H135.637L130.375 20.7874H129.475V7.44702H120.895Z" fill="#484848"/>
<path d="M147.156 7.44702H137.533V34.7065H147.156V7.44702Z" fill="#666666"/>
<path d="M186.879 7.44702V34.7074H195.317L202.759 24.0528V11.746H201.621L196.36 20.7874H195.459V7.44702H186.879Z" fill="#484848"/>
<path d="M213.14 7.44702H203.518V34.7065H213.14V7.44702Z" fill="#666666"/>
<path d="M151.451 34.7074V7.44702H161.935L164.242 13.6415V14.8157C164.242 14.8157 161.524 17.2899 161.935 21.478C162.347 25.666 165.095 26.3957 166.897 26.3957C168.699 26.3957 172.554 24.9997 172.554 21.3195C172.554 17.6394 170.184 14.6573 170.184 14.6573V13.1345L172.113 7.44795H182.928V34.7074H174.633V21.0772H173.78L170.319 34.7074H164.062L160.744 21.0772H159.844V34.7074H151.454H151.451Z" fill="#484848"/>
<path d="M164.63 16.3384C164.63 16.3384 160.554 22.4061 165.887 25.856C165.887 25.856 163.683 21.5972 164.63 16.3384Z" fill="#1A1A1A"/>
<path d="M244 7.4469H227.014C227.014 7.4469 218.197 7.90727 217.627 14.9022C217.058 21.8972 222.889 23.3967 222.889 23.3967V24.8961L216.703 34.7073H226.942L232.559 24.6109V19.0437L228.862 19.1863C228.862 19.1863 226.587 19.1863 226.587 16.4734C226.587 13.7606 228.648 13.6898 230.64 13.6898C232.631 13.6898 234.551 13.7616 234.551 13.7616V34.7083H244V7.4469Z" fill="#484848"/>
</g>
<defs>
<clipPath id="clip0_1439_3229">
<rect width="244" height="35" fill="white"/>
</clipPath>
</defs>
</svg>
