<svg width="96" height="35" viewBox="0 0 96 35" fill="none" xmlns="http://www.w3.org/2000/svg">
<g clip-path="url(#clip0_1439_3207)">
<path d="M24.2038 12.5811L26.4597 11.374C32.3812 9.33228 38.3937 7.52964 44.3067 5.4706C46.0535 4.86276 47.752 4.11088 49.513 3.54264C50.9029 3.09468 52.3334 2.79508 53.7354 2.41842C54.5793 2.19156 56.1683 1.40583 56.9567 1.83578C57.3157 2.03168 57.5262 2.46811 57.4601 2.87646C57.3264 3.70757 55.4424 4.33558 54.7392 4.58837C47.4932 7.19475 40.0979 9.4007 32.8419 12.0064C29.9376 13.0492 25.4252 13.9444 25.128 17.8759C24.9396 20.3707 27.1671 25.4841 28.4823 27.6555C29.2402 28.9064 30.9202 30.8027 30.8875 32.3475C30.8605 33.6432 29.0397 33.0548 28.4034 32.5607C27.5794 31.9212 26.0956 29.3335 25.539 28.3325C25.0107 27.3811 24.8607 26.3152 24.4064 25.3746C24.1782 24.9022 23.7303 24.424 23.549 23.9385C23.4196 23.5921 23.4168 23.2191 23.3144 22.8799C22.7513 21.0189 22.1186 19.2227 22.1406 17.2271C22.1477 16.5594 22.3582 15.8472 22.415 15.2004C22.4214 15.1313 22.4655 14.9844 22.3894 14.9592C21.1922 16.2217 20.0454 17.5367 18.9427 18.8857C18.588 19.3199 18.2936 19.8118 17.9424 20.249C16.2959 22.2972 14.3813 24.1589 12.5051 25.976C11.5389 26.9115 10.6047 28.2612 9.5212 29.075C9.27094 29.2629 8.93893 29.3508 8.68227 29.5215C6.95679 30.6702 5.4645 32.4837 3.83144 33.8261C2.97332 34.5319 1.732 35.1945 0.594472 34.9482C0.0114901 34.8221 -0.154873 34.565 0.143016 34.0501C1.11844 32.3663 2.80127 31.4768 4.0497 30.1581C4.48125 29.7023 4.79834 29.0966 5.25264 28.64C6.29703 27.5914 7.41109 26.5341 8.48818 25.5078C10.8343 23.2738 13.4066 21.2832 15.5643 18.8482C19.9338 13.9156 24.2393 8.33266 27.7436 2.73819C27.9271 2.44507 28.0216 2.09001 28.2235 1.78393C28.6451 1.14512 29.7691 0.133244 30.5277 0.00648976C30.7282 -0.0266392 31.1278 0.0720274 31.169 0.30249C31.2387 0.687073 31.1726 1.37486 31.0282 1.74504C29.6334 4.0511 28.3679 6.46375 26.8891 8.71508C26.0928 9.92789 25.1572 11.06 24.3581 12.2728C24.2927 12.3722 24.1839 12.4514 24.2017 12.5818L24.2038 12.5811Z" fill="#484848"/>
<path d="M74.1836 14.0928C76.9691 13.6974 79.7568 13.2415 82.5473 12.8793C84.8564 12.5797 87.2104 12.4421 89.4684 11.9682C91.3034 11.5829 92.0221 11.467 93.9133 11.6442C94.3469 11.6845 95.9509 11.6132 95.9992 12.198C96.0177 12.4256 95.1404 13.0132 94.888 13.0658C92.6862 13.4468 90.3756 14.5077 88.2043 14.8656C85.6484 15.2876 83.0215 15.5771 80.4542 15.9452C78.6676 16.2015 77.0686 16.3103 75.2941 16.4795C74.0471 16.5984 72.8541 17.0845 71.6249 17.2998C70.6118 18.836 69.3868 20.2678 68.1768 21.657C67.8021 22.087 67.3435 22.4514 66.966 22.8792C65.6024 24.4254 64.3476 26.1114 63.0942 27.7434C62.1521 28.9699 61.3957 30.079 60.5625 31.3724C60.239 31.8737 59.3588 32.7358 58.8924 33.1376C58.4843 33.4898 57.5189 33.7426 57.5537 32.9381C57.6006 31.8442 58.3493 30.8028 58.7687 29.8427C59.083 29.124 59.2294 28.5651 59.6503 27.855C61.3068 25.0571 64.017 22.6833 66.0048 20.1043C66.1939 19.8587 67.4715 18.1446 67.3585 17.9833C66.757 17.8191 66.0951 17.9768 65.4865 18.0661C63.3501 18.3809 61.1646 18.9088 59.0261 19.2998C57.6006 19.5598 55.2282 20.4694 53.9968 19.3826C53.7657 19.1788 53.4359 18.7453 53.6321 18.4457C53.6996 18.3427 54.5606 17.7183 54.7042 17.6592C56.097 17.0838 58.3336 16.7655 59.8401 16.4522C63.2328 15.7478 66.6219 15.14 70.0565 14.7021C71.0028 13.6974 72.0458 12.7734 72.9771 11.7551C74.0059 10.6301 74.704 9.92145 75.8202 8.87357C76.3485 8.37736 76.7544 7.56858 77.582 7.4836C78.1372 7.4267 78.5545 7.85522 78.6463 8.38528C78.7785 9.15301 78.5361 9.03273 78.1294 9.48358C76.7779 10.983 75.5756 12.6279 74.1843 14.0928H74.1836Z" fill="#484848"/>
<path d="M70.2228 26.3577C70.1623 26.434 69.6704 27.8304 69.6498 27.9752C69.5147 28.9143 70.3259 29.4444 71.1228 29.618C72.9614 30.0177 75.685 29.1138 77.1219 27.9097C77.6224 27.4898 78.1087 26.3123 77.7312 25.7332C77.5285 25.4221 75.9516 25.0239 75.4689 24.712C73.8145 23.6418 74.5198 22.4146 76.3434 22.6018C78.167 22.7891 80.8658 24.4182 80.7229 26.5888C80.6034 28.403 79.7076 29.1945 78.3305 30.215C76.0206 31.9248 72.2213 32.9662 69.4528 31.9586C68.4397 31.5899 67.0725 30.2388 67 29.1138C66.9147 27.7944 67.5361 26.6169 68.3537 25.654C69.2772 24.5665 71.9867 23.819 73.3488 24.0509C73.5877 24.0912 74.1643 24.3678 73.8536 24.5997C73.3325 24.9886 72.453 24.9036 71.8352 25.2197C71.3795 25.4531 70.5377 25.9594 70.2235 26.3591L70.2228 26.3577Z" fill="#484848"/>
<path d="M37.1186 22.9778C38.1879 24.0797 36.7923 24.8648 36.1503 25.6548C35.7728 26.1201 35.4173 26.6033 35.0504 27.0613C34.54 27.698 34.3608 28.3498 34.9509 29.0268C35.541 29.7037 36.3828 29.1996 37.0034 28.9677C38.9877 28.2259 38.7957 27.8658 40.1636 26.5515C40.5873 26.1445 41.1412 25.7924 41.5535 25.3667C42.3626 24.5342 43.0764 23.4654 43.9032 22.6336C43.9836 22.5817 44.0731 22.5616 44.1641 22.5378C44.3191 22.4975 45.3088 22.3592 45.4218 22.3736C45.6856 22.4082 45.7616 22.6847 45.7489 22.913C45.7183 23.4654 44.5879 25.353 44.2736 25.9609C43.6067 27.2515 43.4439 27.8341 42.3 28.859C41.7263 29.3725 39.4278 31.1096 38.8071 31.3703C38.3628 31.5568 36.8051 32.107 36.3998 32.0991C34.0124 32.0516 31.3108 29.9342 32.4377 27.2947C33.1081 25.7239 34.1006 24.1388 35.4038 23.0254C36.0863 22.4427 36.3941 22.231 37.1186 22.9771V22.9778Z" fill="#484848"/>
<path d="M52.9992 25.258C52.9324 25.3451 53.1826 25.5569 53.2495 25.6152C53.644 25.9595 54.2306 26.1993 54.6088 26.5788C54.7794 26.7502 55.5729 27.7095 55.6326 27.8824C56.463 30.2821 52.5961 32.0523 50.7618 32.174C48.6098 32.3173 44.6775 31.3206 45.7333 28.3044C45.8797 27.8853 46.8324 26.6552 47.3116 26.9483C47.7261 27.2018 47.1602 27.7434 47.0628 27.9947C46.7357 28.8395 47.3187 29.4229 48.1292 29.5057C48.9397 29.5885 51.2872 29.2616 51.9555 28.8467C52.6153 28.4369 52.6708 28.1316 51.925 27.7492C51.3548 27.4568 50.7341 27.6166 50.3083 26.9382C49.9201 26.3203 49.9329 24.9296 50.3367 24.3261C50.6865 23.8039 51.0761 23.3841 51.6484 23.1342C53.2985 22.4147 56.5945 22.3895 58.2738 23.0463C59.1731 23.3985 58.6563 23.5547 58.3271 23.922C58.2091 24.0531 58.1536 24.2461 58.0797 24.3196C57.7704 24.6278 56.4744 24.4953 56.0208 24.5385C55.0098 24.6358 53.9306 24.8489 52.9985 25.2587L52.9992 25.258Z" fill="#484848"/>
</g>
<defs>
<clipPath id="clip0_1439_3207">
<rect width="96" height="35" fill="white"/>
</clipPath>
</defs>
</svg>
