<svg width="63" height="35" viewBox="0 0 63 35" fill="none" xmlns="http://www.w3.org/2000/svg">
<g clip-path="url(#clip0_1439_3179)">
<path d="M18.4068 0C18.5279 0.134314 18.6756 0.137255 18.8006 0H19.8834C19.8263 0.312745 20.0399 0.163726 20.221 0.198039C21.3403 0.410784 22.68 0.956863 23.5719 1.66863C25.392 3.12059 25.6371 5.56275 28.225 6.15196C29.4624 6.43431 30.496 6.15588 31.6959 5.97941C31.819 7.59902 29.234 8.55588 27.911 8.53235C27.2042 8.51961 26.6333 8.07157 25.9865 7.94118C25.3585 11.5745 21.8817 13.9735 18.3025 12.3088C15.6811 11.0892 14.746 6.20882 17.6184 4.95098C20.3835 3.7402 22.3709 7.07549 20.1295 8.62843C19.6688 8.94706 19.1254 8.84314 18.8567 9.02745C18.3084 9.40294 19.3587 10.1373 19.7623 10.2667C23.3287 11.4127 24.4637 5.95 22.1475 3.77353C19.3528 1.14804 14.8867 2.70686 13.926 6.27353C12.8126 10.4098 16.0621 13.6216 18.0525 16.7726C21.5687 22.3392 22.7145 27.652 18.206 33.0853C18.0712 33.2471 16.4588 35.0578 16.3397 34.902C17.4648 29.0627 17.6164 22.8304 15.3021 17.2578C12.8569 11.3706 8.03055 7.82941 1.91069 6.28137C1.38306 6.14804 0.752078 6.12647 0.253 5.97157C0.14275 5.93726 0.0157656 5.93726 -0.00195312 5.78529C2.6657 4.10882 6.00864 4.55882 8.66252 6.02745L11.2189 7.9402C11.3302 6.52843 11.5339 5.30588 12.1669 4.03137C13.2369 1.87843 15.061 0.713726 17.3772 0.196078C17.5534 0.156863 17.7749 0.319608 17.7168 0H18.4059L18.4068 0Z" fill="#484848"/>
<path d="M37.8984 35L27.3154 21.9618C27.0929 21.9206 27.1796 22.0588 27.1687 22.2049C26.9876 24.6814 27.0545 28.1324 27.1648 30.6422C27.1914 31.2422 27.2376 32.4363 27.3922 32.9647C27.5044 33.35 27.7918 33.701 28.1639 33.8628C28.8412 34.1579 29.9555 33.8314 29.7291 34.8039H23.8721C23.7313 34.8039 23.6457 34.4314 23.8209 34.2618C24.0256 34.0628 24.9815 34.0539 25.3939 33.7706C25.6971 33.5618 25.8753 33.1147 25.9619 32.7677C26.1342 32.0745 26.1627 30.8088 26.1903 30.0539C26.2828 27.5363 26.3517 24.2981 26.1903 21.8098C26.1302 20.8775 25.9048 19.9314 24.9942 19.4716C24.6802 19.3128 24.0197 19.2471 23.8642 19.1275C23.6289 18.9471 23.7864 18.4324 23.8228 18.4324H27.1205L37.357 30.6883C37.4476 30.8383 37.8984 31.203 37.8994 30.8363C37.8571 28.8098 37.9535 26.7775 37.9033 24.752C37.8748 23.5883 37.9073 21.6304 37.6789 20.5637C37.3915 19.2236 36.4691 19.1334 35.2406 19.1196V18.4334H41.1469C41.2532 19.3451 40.9086 19.0108 40.3544 19.1637C39.8002 19.3167 39.376 19.4755 39.1397 20.0128C38.9783 20.3785 38.9035 21.2775 38.8789 21.7137C38.6662 25.4971 39.0275 29.4814 38.8867 33.2902C38.867 33.8324 38.6977 34.4245 38.7844 35.002H37.8984V35Z" fill="#B8B8B8"/>
<path d="M55.1254 34.9999C55.1805 34.6999 54.9738 34.8146 54.7848 34.8039C54.1784 34.7705 51.6112 34.3529 51.2804 33.9764C51.0963 33.7666 50.5461 31.2303 50.5097 30.8205C50.4949 30.6558 50.4417 30.3421 50.5904 30.2392C50.6829 30.1744 51.2824 30.1588 51.368 30.2127C51.4261 30.249 51.8376 31.2382 51.9577 31.4391C53.0976 33.3441 55.0142 34.2205 57.2398 34.0186C60.1802 33.7519 61.6331 30.7999 59.054 28.8813C56.475 26.9627 49.9594 26.2068 51.1544 21.7813C52.1605 18.0558 58.4683 17.9029 61.4274 18.9686L62.0072 22.247C60.9214 22.6097 61.1567 22.197 60.822 21.5323C60.4873 20.8676 59.9528 20.1205 59.2903 19.7244C57.2703 18.5176 53.0838 19.2156 53.4598 22.199C53.8506 25.2941 60.5877 25.7186 62.2099 28.1901L62.9994 29.5117V31.1784L62.1115 32.598C60.8722 33.9833 59.054 34.5901 57.2408 34.8097C57.0557 34.8323 56.8412 34.6872 56.8963 35.0019H55.1244L55.1254 34.9999Z" fill="#B8B8B8"/>
<path d="M50.0072 18.4314C50.2247 19.3863 49.2325 19.0716 48.5109 19.2451C47.4074 19.5098 47.3139 19.9657 47.246 21.0245C47.0038 24.8049 47.4163 28.8628 47.2765 32.6706C47.4045 33.6059 47.8898 33.9745 48.8043 34.0902C49.5563 34.1853 50.0554 33.8049 50.0072 34.8039H42.083C41.9205 34.8039 41.8585 34.3745 42.0741 34.2069C42.2473 34.0716 43.2632 34.0912 43.6304 33.9932C44.2988 33.8147 44.4966 33.5275 44.6679 32.8696C44.4494 28.9304 45.04 24.5196 44.6955 20.6343C44.5646 19.1549 43.2317 19.1765 42.0328 19.1196V18.4334H50.0062L50.0072 18.4314Z" fill="#B8B8B8"/>
</g>
<defs>
<clipPath id="clip0_1439_3179">
<rect width="63" height="35" fill="white"/>
</clipPath>
</defs>
</svg>
