<svg width="102" height="102" viewBox="0 0 102 102" fill="none" xmlns="http://www.w3.org/2000/svg">
<path d="M75.9622 4.67578H26.038C14.24 4.67578 4.67578 14.24 4.67578 26.038V75.9622C4.67578 87.7602 14.24 97.3244 26.038 97.3244H75.9622C87.7602 97.3244 97.3244 87.7602 97.3244 75.9622V26.038C97.3244 14.24 87.7602 4.67578 75.9622 4.67578Z" fill="#1A1A1A"/>
<g clip-path="url(#clip0_1314_32745)">
<path d="M74.6394 62.695L67.6617 55.7173C65.1697 53.2253 60.9333 54.2222 59.9365 57.4617C59.1889 59.7046 56.6968 60.9506 54.454 60.4521C49.47 59.2061 42.7415 52.7269 41.4955 47.4937C40.7479 45.2507 42.2431 42.7587 44.486 42.0112C47.7256 41.0144 48.7224 36.778 46.2304 34.286L39.2527 27.3083C37.2591 25.5639 34.2687 25.5639 32.5243 27.3083L27.7894 32.0431C23.0546 37.0272 28.2878 50.2349 40.0003 61.9474C51.7128 73.6598 64.9205 79.1424 69.9045 74.1582L74.6394 69.4234C76.3839 67.4298 76.3839 64.4394 74.6394 62.695Z" fill="#FEFEFE"/>
</g>
<defs>
<clipPath id="clip0_1314_32745">
<rect width="50" height="50" fill="white" transform="translate(26 26)"/>
</clipPath>
</defs>
</svg>
