<svg width="137" height="25" viewBox="0 0 137 25" fill="none" xmlns="http://www.w3.org/2000/svg">
<g clip-path="url(#clip0_1439_3157)">
<mask id="mask0_1439_3157" style="mask-type:luminance" maskUnits="userSpaceOnUse" x="0" y="0" width="137" height="25">
<path d="M137 0.187134H0V24.8129H137V0.187134Z" fill="white"/>
</mask>
<g mask="url(#mask0_1439_3157)">
<path fill-rule="evenodd" clip-rule="evenodd" d="M8.75568 7.40827L7.54258 8.59473C6.53437 7.66931 5.55128 7.2066 4.58493 7.2066C4.00176 7.19744 3.43769 7.40313 3.012 7.78001C2.80725 7.94508 2.64257 8.14987 2.52922 8.38056C2.41587 8.61126 2.35652 8.86237 2.35522 9.11674C2.36676 9.59306 2.55988 10.0495 2.89905 10.402C3.25881 10.8212 4.01182 11.3076 5.16642 11.8692C6.56783 12.5533 7.52166 13.2177 8.02784 13.8465C8.51608 14.4772 8.7758 15.2401 8.76829 16.0216C8.78061 16.5597 8.67552 17.0945 8.4596 17.5925C8.24368 18.0906 7.92151 18.5412 7.51328 18.9164C7.09881 19.3088 6.60449 19.6176 6.06018 19.8242C5.51588 20.0309 4.93289 20.1311 4.34649 20.1186C3.50774 20.1199 2.67959 19.9415 1.92433 19.5966C1.16915 19.2638 0.509291 18.7647 0 18.1413L1.18388 16.8679C2.14605 17.8961 3.17097 18.4102 4.25026 18.4102C4.96327 18.4265 5.65495 18.1797 6.17878 17.7221C6.42882 17.524 6.62993 17.2765 6.76797 16.9971C6.90601 16.7176 6.97763 16.413 6.9778 16.1046C6.97812 15.6031 6.78643 15.1186 6.43815 14.7403C6.08675 14.3448 5.2961 13.8583 4.06201 13.2651C2.74008 12.6192 1.84067 11.9825 1.36377 11.3551C0.887388 10.729 0.636595 9.9748 0.648417 9.20369C0.63362 8.71515 0.727224 8.2291 0.923205 7.77688C1.11918 7.32459 1.41318 6.91615 1.78628 6.57781C2.16878 6.23087 2.62084 5.95976 3.11584 5.78046C3.61085 5.60116 4.13879 5.51729 4.6686 5.53379C6.01563 5.53379 7.37381 6.15862 8.74315 7.40827H8.75568ZM8.73477 5.88179L15.0098 19.7231H15.3612L20.0298 9.83647L24.7193 19.7469H25.0666L31.4336 5.88179H29.4716L24.895 15.9504L20.1846 5.88179H19.8458L15.1687 15.9504L10.6759 5.88179H8.73477ZM31.9816 5.88179H33.8683V19.7231H31.9816V5.88179ZM32.9186 0.187065C33.123 0.188101 33.3252 0.227179 33.5135 0.30207C33.7019 0.37696 33.8729 0.486195 34.0166 0.623538C34.1604 0.760882 34.274 0.923639 34.3512 1.10253C34.4284 1.28141 34.4676 1.47292 34.4665 1.66611C34.4599 2.05079 34.2942 2.41774 34.0049 2.68829C33.7156 2.95885 33.3256 3.11151 32.9186 3.11352C32.7155 3.11519 32.5142 3.07745 32.3271 3.00262C32.1401 2.9278 31.9711 2.81749 31.831 2.67851C31.6847 2.54565 31.5688 2.38587 31.4904 2.20903C31.412 2.03219 31.3727 1.84203 31.375 1.65029C31.3737 1.45869 31.4134 1.26881 31.4918 1.0921C31.5701 0.915396 31.6855 0.755507 31.831 0.622079C31.9711 0.483102 32.1401 0.372791 32.3271 0.297967C32.5142 0.223143 32.7155 0.185397 32.9186 0.187065ZM43.7953 7.40827L42.5821 8.59473C41.574 7.66931 40.5909 7.2066 39.6246 7.2066C39.0414 7.19744 38.4773 7.40313 38.0516 7.78001C37.848 7.94515 37.6841 8.14945 37.5708 8.37931C37.4576 8.60911 37.3975 8.85917 37.3948 9.11279C37.4052 9.58862 37.5968 10.0449 37.9345 10.3981C38.2942 10.8172 39.0473 11.3036 40.2018 11.8652C41.6033 12.5494 42.5612 13.2138 43.0633 13.8426C43.5515 14.4732 43.8112 15.2361 43.8037 16.0176C43.816 16.5558 43.7109 17.0905 43.495 17.5886C43.2791 18.0866 42.9569 18.5372 42.5487 18.9124C42.1323 19.3024 41.6367 19.6086 41.0917 19.8126C40.5467 20.0165 39.9636 20.1138 39.3777 20.0988C38.539 20.1002 37.7108 19.9217 36.9555 19.5768C36.1988 19.2501 35.5349 18.7581 35.0187 18.1413L36.2068 16.8679C37.1689 17.8961 38.1896 18.4102 39.2689 18.4102C39.983 18.4254 40.6756 18.1788 41.2017 17.7221C41.4496 17.5226 41.649 17.2747 41.7862 16.9956C41.9234 16.7164 41.9952 16.4124 41.9965 16.1046C42.0003 15.6047 41.8131 15.1202 41.4694 14.7403C41.118 14.3448 40.3273 13.8583 39.0932 13.2651C37.7713 12.6192 36.8719 11.9825 36.395 11.3551C35.9186 10.729 35.6678 9.9748 35.6797 9.20369C35.6659 8.71529 35.76 8.22952 35.9559 7.77744C36.1518 7.32529 36.4453 6.91674 36.8175 6.57781C37.2003 6.23123 37.6524 5.96036 38.1474 5.78109C38.6422 5.60181 39.17 5.51774 39.6998 5.53379C41.0469 5.53379 42.4051 6.15862 43.7744 7.40827H43.7953ZM53.1242 7.40827L51.911 8.59473C50.9028 7.66931 49.9197 7.2066 48.9534 7.2066C48.3703 7.19785 47.8064 7.40348 47.3804 7.78001C47.177 7.94591 47.0137 8.15105 46.9011 8.38161C46.7885 8.61216 46.7295 8.86279 46.7279 9.11674C46.7382 9.59258 46.9299 10.0489 47.2675 10.402C47.6273 10.8212 48.3845 11.3076 49.5348 11.8692C50.9362 12.5533 51.8901 13.2177 52.3962 13.8465C52.8845 14.4772 53.1443 15.2401 53.1367 16.0216C53.15 16.5598 53.0454 17.0949 52.8294 17.5931C52.6135 18.0913 52.2908 18.5418 51.8817 18.9164C51.4645 19.3119 50.966 19.6226 50.4172 19.8293C49.8683 20.0361 49.2804 20.1345 48.6898 20.1186C47.8524 20.1205 47.0255 19.942 46.2718 19.5966C45.5176 19.2623 44.8581 18.7635 44.3475 18.1413L45.5314 16.8679C46.4991 17.8961 47.5213 18.4102 48.5978 18.4102C49.3118 18.4254 50.0044 18.1788 50.5305 17.7221C50.7793 17.5233 50.9793 17.2756 51.1166 16.9963C51.2539 16.7169 51.3251 16.4126 51.3253 16.1046C51.3245 15.6026 51.1312 15.1179 50.7815 14.7403C50.4301 14.3448 49.6394 13.8583 48.4054 13.2651C47.0834 12.6192 46.184 11.9825 45.7071 11.3551C45.2307 10.729 44.9799 9.9748 44.9917 9.20369C44.978 8.71529 45.0721 8.22952 45.268 7.77744C45.4639 7.32529 45.7573 6.91674 46.1296 6.57781C46.5124 6.23123 46.9645 5.96036 47.4594 5.78109C47.9544 5.60181 48.4822 5.51774 49.0119 5.53379C50.3729 5.53379 51.7367 6.15862 53.1032 7.40827H53.1242Z" fill="#484848"/>
<path fill-rule="evenodd" clip-rule="evenodd" d="M69.1885 8.69244L66.1262 10.2743C65.651 9.77244 65.0714 9.36855 64.4236 9.08793C63.7936 8.85494 63.1212 8.74203 62.4449 8.75578C61.833 8.72987 61.2218 8.81973 60.6471 9.02008C60.0724 9.22036 59.5458 9.52716 59.0983 9.92237C58.677 10.3067 58.3457 10.7704 58.1259 11.2833C57.9061 11.7963 57.8027 12.3471 57.8223 12.9002C57.8025 13.4356 57.9013 13.969 58.1124 14.4661C58.3236 14.9633 58.6422 15.4133 59.0481 15.7872C59.4801 16.1668 59.9879 16.4613 60.5416 16.6534C61.0954 16.8456 61.6841 16.9315 62.2734 16.9063C62.9996 16.9433 63.7249 16.8196 64.3916 16.545C65.0582 16.2704 65.648 15.8524 66.1137 15.3245L69.0169 17.2029C67.4384 19.146 65.2171 20.1175 62.3529 20.1175C59.7759 20.1175 57.7581 19.3965 56.2996 17.9543C55.4617 17.1559 54.8333 16.1831 54.4647 15.1139C54.0962 14.0447 53.9976 12.9086 54.1769 11.7969C54.3562 10.6852 54.8085 9.62855 55.4974 8.71175C56.1864 7.79494 57.093 7.04342 58.1444 6.5174C59.4572 5.86227 60.9229 5.52912 62.4072 5.54851C63.7641 5.52696 65.1072 5.80881 66.3271 6.37108C67.4752 6.90074 68.4604 7.70001 69.1885 8.69244Z" fill="#B8B8B8"/>
<path fill-rule="evenodd" clip-rule="evenodd" d="M81.9163 5.88238H85.5934V19.7238H81.9163V18.2605C81.2925 18.8448 80.5608 19.3166 79.7578 19.6526C79.0167 19.9547 78.2187 20.1134 77.4113 20.1192C76.4829 20.1222 75.5654 19.9383 74.7179 19.5797C73.8712 19.2209 73.1155 18.6958 72.4998 18.039C71.115 16.6333 70.375 14.7665 70.4416 12.8465C70.4416 10.7084 71.1096 8.95515 72.4455 7.58682C73.0521 6.93275 73.8019 6.41062 74.6422 6.05632C75.4831 5.70202 76.3947 5.52396 77.3151 5.53437C78.1663 5.52924 79.0094 5.69083 79.7913 6.00893C80.5951 6.3425 81.3216 6.82221 81.9294 7.42078V5.88238H81.9163ZM78.0511 8.73369C77.5206 8.72119 76.993 8.8164 76.5048 9.01286C76.0158 9.20932 75.5778 9.50251 75.2193 9.87265C74.4512 10.669 74.0461 11.7186 74.0898 12.7952C74.0417 13.8913 74.4549 14.9608 75.2397 15.769C75.5961 16.1413 76.0326 16.4374 76.5193 16.6372C77.0061 16.8371 77.533 16.9361 78.0635 16.9278C78.602 16.9386 79.1369 16.8408 79.6324 16.6411C80.128 16.4413 80.5732 16.144 80.9376 15.769C81.7202 14.9554 82.1312 13.8821 82.0795 12.7833C82.1043 12.2477 82.0154 11.7129 81.8193 11.2098C81.6233 10.7067 81.3238 10.2456 80.9376 9.85286C80.5652 9.48772 80.1156 9.2005 79.6186 9.00973C79.1216 8.81904 78.5875 8.72904 78.0511 8.74557V8.73369Z" fill="#B8B8B8"/>
<path fill-rule="evenodd" clip-rule="evenodd" d="M91.586 5.88065V7.40718C92.201 6.80994 92.9326 6.33058 93.7401 5.99534C94.5234 5.67692 95.368 5.51534 96.2206 5.52078C97.1417 5.51084 98.0541 5.6891 98.8951 6.04335C99.736 6.3976 100.487 6.91947 101.094 7.57322C102.433 8.93891 103.103 10.6922 103.103 12.8329C103.155 14.7518 102.403 16.6127 101.011 18.0096C100.399 18.6691 99.6456 19.1981 98.801 19.5614C97.9565 19.9248 97.0397 20.1144 96.1121 20.1175C95.3032 20.1242 94.5016 19.979 93.7524 19.6904C92.9458 19.3566 92.2112 18.8846 91.586 18.2984V24.8156H87.9336V5.88065H91.586ZM95.4511 8.73197C94.9148 8.71724 94.3806 8.80933 93.8843 9.00211C93.3874 9.19488 92.9392 9.48419 92.569 9.85113C92.1813 10.243 91.8804 10.704 91.6836 11.2072C91.4861 11.7104 91.3979 12.2456 91.4227 12.7816C91.3965 13.326 91.4847 13.87 91.6814 14.3822C91.8782 14.8945 92.1799 15.3652 92.569 15.7673C92.9363 16.1393 93.3837 16.4332 93.8807 16.6295C94.377 16.8259 94.9126 16.9202 95.4511 16.9063C95.9823 16.9163 96.5092 16.82 96.9982 16.6237C97.4872 16.4274 97.9266 16.1356 98.2873 15.7673C99.067 14.964 99.4802 13.9026 99.438 12.8132C99.4817 11.7359 99.0743 10.6857 98.3041 9.89072C97.9419 9.51905 97.5003 9.22454 97.0084 9.02676C96.5165 8.82905 95.9853 8.73259 95.4511 8.74384V8.73197Z" fill="#B8B8B8"/>
<path fill-rule="evenodd" clip-rule="evenodd" d="M106.202 0.187349C106.515 0.18148 106.825 0.237568 107.113 0.351998C107.402 0.466428 107.661 0.636662 107.875 0.851736C108.101 1.05969 108.279 1.3091 108.399 1.58457C108.517 1.86004 108.576 2.15572 108.57 2.45337C108.574 2.74715 108.516 3.03873 108.398 3.31058C108.28 3.58242 108.105 3.82892 107.884 4.03524C107.671 4.24819 107.415 4.41692 107.129 4.53064C106.844 4.64435 106.537 4.70057 106.227 4.69567C105.914 4.69982 105.605 4.64256 105.317 4.52751C105.028 4.41247 104.769 4.24215 104.554 4.02733C104.329 3.81405 104.152 3.56024 104.034 3.28099C103.916 3.00176 103.857 2.70281 103.864 2.40197C103.857 2.10794 103.915 1.81581 104.033 1.5437C104.151 1.2716 104.327 1.02531 104.55 0.820097C104.766 0.608472 105.027 0.441568 105.315 0.329933C105.603 0.218299 105.912 0.164361 106.223 0.17153L106.202 0.187349ZM104.362 5.88208H108.039V19.7234H104.362V5.88208Z" fill="#B8B8B8"/>
<path fill-rule="evenodd" clip-rule="evenodd" d="M110.443 0.783936H114.124V5.88941H116.304V8.88309H114.124V19.7466H110.443V8.88309H108.561V5.88941H110.443V0.783936Z" fill="#B8B8B8"/>
<path fill-rule="evenodd" clip-rule="evenodd" d="M127.708 5.88264H131.385V19.724H127.708V18.2608C127.083 18.8452 126.35 19.3169 125.545 19.6528C124.804 19.9557 124.006 20.1144 123.199 20.1194C122.271 20.1219 121.354 19.9378 120.508 19.5791C119.662 19.2204 118.906 18.6955 118.291 18.0393C116.899 16.6423 116.147 14.7815 116.2 12.8626C116.2 10.7245 116.867 8.97124 118.203 7.60291C118.812 6.94916 119.562 6.42727 120.403 6.07302C121.244 5.71877 122.156 5.54051 123.077 5.55044C123.929 5.54532 124.772 5.7069 125.554 6.025C126.357 6.35965 127.083 6.83922 127.691 7.4368V5.88264H127.708ZM123.843 8.73395C123.312 8.72117 122.785 8.81624 122.296 9.01277C121.807 9.20923 121.369 9.50256 121.01 9.87291C120.243 10.6692 119.837 11.7189 119.881 12.7954C119.833 13.8916 120.247 14.961 121.031 15.7693C121.388 16.1416 121.823 16.4376 122.311 16.6375C122.798 16.8374 123.325 16.9364 123.855 16.928C124.394 16.9388 124.929 16.8411 125.424 16.6413C125.92 16.4415 126.365 16.1442 126.729 15.7693C127.511 14.9553 127.92 13.8819 127.867 12.7835C127.892 12.2482 127.804 11.7135 127.609 11.2104C127.414 10.7074 127.115 10.246 126.729 9.85312C126.357 9.48798 125.907 9.20075 125.41 9.01006C124.913 8.8193 124.379 8.7293 123.843 8.74582V8.73395Z" fill="#B8B8B8"/>
<path d="M136.999 0.54248H133.322V19.7464H136.999V0.54248Z" fill="#B8B8B8"/>
</g>
</g>
<defs>
<clipPath id="clip0_1439_3157">
<rect width="137" height="25" fill="white"/>
</clipPath>
</defs>
</svg>
