<svg width="24" height="24" viewBox="0 0 24 24" fill="none" xmlns="http://www.w3.org/2000/svg">
<path d="M13.0418 1.5835C15.5282 1.5835 17.9128 2.57122 19.671 4.32937C21.4291 6.08752 22.4168 8.47209 22.4168 10.9585M13.0418 5.75016C14.4232 5.75016 15.7479 6.2989 16.7247 7.27565C17.7014 8.2524 18.2502 9.57716 18.2502 10.9585M13.9085 16.7585C14.1236 16.8573 14.366 16.8799 14.5957 16.8225C14.8254 16.7651 15.0286 16.6312 15.172 16.4429L15.5418 15.9585C15.7359 15.6998 15.9875 15.4897 16.2768 15.3451C16.5661 15.2005 16.8851 15.1252 17.2085 15.1252H20.3335C20.886 15.1252 21.4159 15.3447 21.8066 15.7354C22.1973 16.1261 22.4168 16.656 22.4168 17.2085V20.3335C22.4168 20.886 22.1973 21.4159 21.8066 21.8066C21.4159 22.1973 20.886 22.4168 20.3335 22.4168C15.3607 22.4168 10.5916 20.4414 7.07524 16.9251C3.55894 13.4088 1.5835 8.63964 1.5835 3.66683C1.5835 3.11429 1.80299 2.58439 2.19369 2.19369C2.58439 1.80299 3.11429 1.5835 3.66683 1.5835H6.79183C7.34436 1.5835 7.87427 1.80299 8.26497 2.19369C8.65567 2.58439 8.87516 3.11429 8.87516 3.66683V6.79183C8.87516 7.11526 8.79986 7.43424 8.65522 7.72352C8.51058 8.01281 8.30057 8.26444 8.04183 8.4585L7.55433 8.82412C7.3631 8.97014 7.22831 9.17786 7.17286 9.41199C7.11741 9.64612 7.14473 9.89222 7.25016 10.1085C8.67379 13 11.0152 15.3385 13.9085 16.7585Z" stroke="#1A1A1A" stroke-width="2" stroke-linecap="round" stroke-linejoin="round"/>
</svg>
