<svg width="24" height="22" viewBox="0 0 24 22" fill="none" xmlns="http://www.w3.org/2000/svg">
<path d="M12.0002 5.79167V20.375M12.0002 5.79167C12.0002 4.6866 11.5612 3.62679 10.7798 2.84539C9.99837 2.06399 8.93856 1.625 7.8335 1.625H2.62516C2.3489 1.625 2.08394 1.73475 1.88859 1.9301C1.69324 2.12545 1.5835 2.3904 1.5835 2.66667V16.2083C1.5835 16.4846 1.69324 16.7496 1.88859 16.9449C2.08394 17.1403 2.3489 17.25 2.62516 17.25H8.87516C9.70396 17.25 10.4988 17.5792 11.0849 18.1653C11.6709 18.7513 12.0002 19.5462 12.0002 20.375M12.0002 5.79167C12.0002 4.6866 12.4391 3.62679 13.2206 2.84539C14.002 2.06399 15.0618 1.625 16.1668 1.625H21.3752C21.6514 1.625 21.9164 1.73475 22.1117 1.9301C22.3071 2.12545 22.4168 2.3904 22.4168 2.66667V16.2083C22.4168 16.4846 22.3071 16.7496 22.1117 16.9449C21.9164 17.1403 21.6514 17.25 21.3752 17.25H15.1252C14.2964 17.25 13.5015 17.5792 12.9155 18.1653C12.3294 18.7513 12.0002 19.5462 12.0002 20.375M16.1668 11H18.2502M16.1668 6.83333H18.2502M5.75016 11H7.8335M5.75016 6.83333H7.8335" stroke="#1A1A1A" stroke-width="2" stroke-linecap="round" stroke-linejoin="round"/>
</svg>
