<svg width="831" height="694" viewBox="0 0 831 694" fill="none" xmlns="http://www.w3.org/2000/svg">
<g clip-path="url(#clip0_1314_32698)">
<path d="M500.502 296.754C445.801 281.73 383.556 279.697 349.127 295.844C343.988 298.261 338.634 293.046 340.752 287.783L408.088 120.807C431.358 63.0586 389.1 0 327.142 0C291.832 0 260.02 21.3624 246.481 54.1596L6.92706 634.486C-17.5328 693.765 25.7954 759.024 89.6337 759.024H89.8479C124.515 759.024 163.917 741.513 170.865 707.352C233.633 398.614 384.151 423.756 414.988 426.722C528.127 437.655 487.654 537.577 548.423 538.247C636.84 539.228 644.501 336.321 500.526 296.777L500.502 296.754Z" fill="#E7CF3A"/>
<path d="M948.249 430.08C971.519 372.356 929.262 309.297 867.303 309.297C831.993 309.297 800.181 330.659 786.643 363.456L670.339 634.494C645.88 693.773 689.208 759.032 753.046 759.032H753.26C787.928 759.032 821.453 739.751 834.277 707.36C949.415 416.205 948.249 430.103 948.249 430.103V430.08Z" fill="#E7CF3A"/>
<path d="M544.604 698.877C580.65 698.877 609.87 669.499 609.87 633.259C609.87 597.019 580.65 567.641 544.604 567.641C508.559 567.641 479.338 597.019 479.338 633.259C479.338 669.499 508.559 698.877 544.604 698.877Z" fill="#E7CF3A"/>
</g>
<defs>
<clipPath id="clip0_1314_32698">
<rect width="998" height="759" fill="white"/>
</clipPath>
</defs>
</svg>
