<svg width="22" height="24" viewBox="0 0 22 24" fill="none" xmlns="http://www.w3.org/2000/svg">
<path d="M2.6668 14.0833C2.46968 14.084 2.27642 14.0287 2.10946 13.9239C1.9425 13.8191 1.80871 13.6691 1.72362 13.4913C1.63854 13.3134 1.60565 13.1151 1.62878 12.9194C1.65191 12.7236 1.73011 12.5384 1.8543 12.3854L12.1668 1.76036C12.2442 1.67107 12.3496 1.61073 12.4657 1.58925C12.5819 1.56777 12.7019 1.58642 12.8061 1.64214C12.9103 1.69786 12.9924 1.78734 13.039 1.89589C13.0856 2.00445 13.094 2.12562 13.0626 2.23953L11.0626 8.51036C11.0037 8.6682 10.9839 8.83799 11.0049 9.00516C11.026 9.17234 11.0873 9.33191 11.1836 9.47018C11.2798 9.60846 11.4082 9.72132 11.5577 9.79907C11.7072 9.87683 11.8733 9.91716 12.0418 9.91661H19.3335C19.5306 9.91594 19.7239 9.97121 19.8908 10.076C20.0578 10.1808 20.1916 10.3308 20.2766 10.5086C20.3617 10.6864 20.3946 10.8848 20.3715 11.0805C20.3484 11.2763 20.2702 11.4614 20.146 11.6145L9.83347 22.2395C9.75611 22.3288 9.6507 22.3892 9.53453 22.4106C9.41836 22.4321 9.29834 22.4135 9.19417 22.3578C9.08999 22.302 9.00786 22.2126 8.96124 22.104C8.91463 21.9954 8.9063 21.8743 8.93763 21.7604L10.9376 15.4895C10.9966 15.3317 11.0164 15.1619 10.9954 14.9947C10.9743 14.8276 10.913 14.668 10.8167 14.5297C10.7204 14.3914 10.592 14.2786 10.4426 14.2008C10.2931 14.1231 10.127 14.0827 9.95847 14.0833H2.6668Z" stroke="#1A1A1A" stroke-width="2" stroke-linecap="round" stroke-linejoin="round"/>
</svg>
