<svg width="24" height="18" viewBox="0 0 24 18" fill="none" xmlns="http://www.w3.org/2000/svg">
<path d="M8.87541 8.95234L10.9269 11.0671L15.1563 6.96416M1.63204 5.71697C2.46074 5.72955 3.25051 6.07083 3.82759 6.66571C4.40468 7.26059 4.72181 8.06036 4.70922 8.88906C4.69664 9.71777 4.35536 10.5075 3.76048 11.0846C3.1656 11.6617 2.36583 11.9788 1.53713 11.9662L1.50549 14.0493C1.4971 14.6018 1.70852 15.135 2.09324 15.5316C2.47796 15.9282 3.00447 16.1557 3.55695 16.1641L20.2217 16.4172C20.7742 16.4256 21.3073 16.2141 21.7039 15.8294C22.1005 15.4447 22.328 14.9182 22.3364 14.3657L22.3681 12.2826C21.5394 12.27 20.7496 11.9288 20.1725 11.3339C19.5954 10.739 19.2783 9.93923 19.2909 9.11052C19.3035 8.28182 19.6447 7.49205 20.2396 6.91497C20.8345 6.33788 21.6343 6.02075 22.463 6.03334L22.4946 3.95025C22.503 3.39778 22.2916 2.8646 21.9069 2.46801C21.5221 2.07142 20.9956 1.84391 20.4432 1.83552L3.77841 1.58242C3.22593 1.57403 2.69276 1.78545 2.29617 2.17017C1.89958 2.55489 1.67207 3.0814 1.66368 3.63387L1.63204 5.71697Z" stroke="#1A1A1A" stroke-width="2" stroke-linecap="round" stroke-linejoin="round"/>
</svg>
