<svg width="128" height="35" viewBox="0 0 128 35" fill="none" xmlns="http://www.w3.org/2000/svg">
<g clip-path="url(#clip0_1439_3213)">
<path d="M53.1133 22.4503V14.0837H57.2449C58.2113 14.0837 59.0592 14.2557 59.7921 14.5961C60.525 14.9401 61.0963 15.4215 61.5094 16.0439C61.9226 16.6664 62.1274 17.4056 62.1274 18.2653C62.1274 19.125 61.9226 19.8574 61.5094 20.4833C61.0963 21.1091 60.525 21.594 59.7921 21.9343C59.0592 22.2783 58.2113 22.4469 57.2449 22.4469H53.1133V22.4503ZM55.5851 20.5624H57.1443C57.6437 20.5624 58.0784 20.473 58.4484 20.2942C58.8185 20.1154 59.1095 19.8506 59.3179 19.5066C59.5263 19.1594 59.6304 18.7467 59.6304 18.2687C59.6304 17.7907 59.5263 17.3678 59.3179 17.0274C59.1095 16.6835 58.8185 16.4221 58.4484 16.2432C58.0784 16.0644 57.6437 15.975 57.1443 15.975H55.5851V20.5658V20.5624Z" fill="#666666"/>
<path d="M65.9315 19.0905H69.7694V17.323H65.9315V15.9097H70.2879V14.0837H63.5137V22.4503H70.4476V20.6209H65.9315V19.0905Z" fill="#666666"/>
<path d="M71.002 14.0837V15.9579H73.7117V22.4503H76.2075V15.9579H78.9066V14.0837H71.002Z" fill="#666666"/>
<path d="M82.1955 14.0837L78.3535 22.4503H80.8648L81.5444 20.8236H85.2361L85.9157 22.4503H88.477L84.6244 14.0837H82.199H82.1955ZM82.2705 19.0802L83.3866 16.405L84.5027 19.0802H82.2705Z" fill="#666666"/>
<path d="M91.6661 14.0837H89.1699V22.4503H91.6661V14.0837Z" fill="#666666"/>
<path d="M95.9456 14.0837H93.4688V22.4503H100.125V20.5727H95.9456V14.0837Z" fill="#666666"/>
<path d="M103.592 14.0837H101.096V22.4503H103.592V14.0837Z" fill="#666666"/>
<path d="M111.293 18.5404L107.432 14.0837H105.395V22.4503H107.817V17.9902L111.677 22.4503H113.715V14.0837H111.293V18.5404Z" fill="#666666"/>
<path d="M121.306 20.377C121.219 20.4146 121.129 20.4488 121.042 20.4795C120.692 20.5958 120.33 20.6506 119.962 20.6506C119.593 20.6506 119.257 20.5924 118.95 20.4795C118.643 20.3632 118.383 20.2026 118.166 19.994C117.949 19.7854 117.779 19.5322 117.656 19.2381C117.534 18.9441 117.476 18.6226 117.476 18.2737C117.476 17.9249 117.537 17.5829 117.656 17.2922C117.779 17.0015 117.945 16.7519 118.166 16.5433C118.386 16.3347 118.646 16.1738 118.957 16.0611C119.268 15.9516 119.611 15.8935 119.987 15.8935C120.413 15.8935 120.8 15.9722 121.147 16.1261C121.494 16.2799 121.819 16.5125 122.119 16.8202L123.701 15.466C123.275 14.9735 122.733 14.5974 122.083 14.3375C121.429 14.0775 120.688 13.9442 119.86 13.9442C119.149 13.9442 118.495 14.0501 117.895 14.2587C117.295 14.4674 116.778 14.7683 116.345 15.1547C115.911 15.5412 115.572 15.9996 115.33 16.5261C115.087 17.0528 114.965 17.6343 114.965 18.2669C114.965 18.8996 115.087 19.481 115.33 20.0076C115.572 20.5343 115.908 20.9925 116.341 21.3789C116.771 21.7688 117.284 22.0663 117.88 22.2749C118.477 22.4835 119.12 22.5896 119.813 22.5896C120.449 22.5896 121.1 22.4973 121.761 22.3161C122.422 22.1348 123.004 21.8715 123.506 21.5328V18.0857H121.309V20.3666L121.306 20.377Z" fill="#666666"/>
<path d="M45.5621 21.5735V11.9473C45.0041 12.109 43.774 12.3463 43.5303 11.391C43.5303 11.391 44.8446 10.6362 44.8446 9.46745C44.8446 8.29868 44.0087 3.8457 39.7036 3.8457C35.3985 3.8457 35.4395 7.77036 35.4395 7.77036C35.4395 7.77036 35.7584 10.8648 38.8266 10.8648C38.8266 10.8648 41.0589 10.9769 41.3982 8.41296C41.478 6.62099 38.7082 7.1105 38.7082 7.94072C38.7082 8.77093 39.863 8.73211 39.863 8.73211C39.863 8.73211 39.5054 9.39198 38.5487 9.39198C37.592 9.39198 37.0931 8.50569 37.0931 7.71213C37.0931 6.91858 37.6103 5.57946 39.6238 5.57946C41.6374 5.57946 42.9518 7.06953 42.9518 8.99304C42.9518 10.9166 41.2389 11.4643 41.2389 11.4643C41.2389 11.4643 44.4277 11.9538 44.4277 14.6148C44.4277 16.3507 42.8925 16.7583 42.8925 16.7583C42.8925 16.7583 44.4277 17.168 44.4277 18.9017C44.4277 21.5627 41.2389 22.0522 41.2389 22.0522C41.2389 22.0522 42.9518 22.6 42.9518 24.5234C42.9518 26.447 41.6374 27.937 39.6238 27.937C37.6103 27.937 37.0931 26.5979 37.0931 25.8043C37.0931 25.0108 37.592 24.1245 38.5487 24.1245C39.5054 24.1245 39.863 24.7844 39.863 24.7844C39.863 24.7844 38.7082 24.7477 38.7082 25.5757C38.7082 26.4038 41.478 26.8955 41.3982 25.1035C41.0589 22.5375 38.8266 22.6517 38.8266 22.6517C35.7584 22.6517 35.4395 25.7461 35.4395 25.7461C35.4395 25.7461 35.4007 29.6707 39.7036 29.6707C44.0063 29.6707 44.8446 25.2178 44.8446 24.049C44.8446 22.8803 43.5303 22.1256 43.5303 22.1256C43.774 21.1703 45.0041 21.4074 45.5621 21.5692V21.5735Z" fill="#666666"/>
<path d="M35.1953 15.2073V18.3126C36.0062 17.4995 36.5574 16.7599 36.5574 16.7599C36.5574 16.7599 36.0062 16.0203 35.1953 15.2073Z" fill="#666666"/>
<path d="M39.5459 2.06799C41.9149 2.06799 44.1676 3.10306 45.5639 5.60018V0H35.1953V4.12088C36.2112 2.98877 37.7374 2.06799 39.5459 2.06799Z" fill="#666666"/>
<path d="M38.9287 20.8873C41.4798 20.6803 43.0926 20.1131 43.0926 19.0198C43.0926 17.9265 42.4547 17.9265 42.0971 17.9265C41.7395 17.9265 41.0015 17.9459 41.0015 18.5303C41.0015 19.1147 41.719 19.4166 41.719 19.4166C41.3796 19.7745 39.9446 19.9061 39.9446 18.3988C39.9446 16.8915 41.3386 16.7642 41.3386 16.7642C41.3386 16.7642 39.9446 16.6391 39.9446 15.1297C39.9446 13.6202 41.3796 13.7518 41.719 14.1119C41.719 14.1119 41.0015 14.4137 41.0015 14.9981C41.0015 15.5825 41.7395 15.6019 42.0971 15.6019C42.4547 15.6019 43.0926 15.6019 43.0926 14.5086C43.0926 13.4153 41.4776 12.8482 38.9287 12.6412C37.1725 12.4989 35.9378 11.8239 35.1953 11.0583V13.0897C36.1247 13.81 37.2818 14.9938 39.0677 16.7685C37.2818 18.5433 36.1247 19.7271 35.1953 20.4473V22.4786C35.9378 21.711 37.1725 21.0382 38.9287 20.8959V20.8873Z" fill="#666666"/>
<path d="M39.5459 31.4497C37.7374 31.4497 36.2112 30.5289 35.1953 29.3968V34.9997H45.5639V27.9175C44.1676 30.4146 41.9172 31.4497 39.5459 31.4497Z" fill="#666666"/>
<path d="M12.1909 35.0224V8.10395H0.931641V0H33.7664V8.10395H22.5596V35.0245H12.1909V35.0224Z" fill="#666666"/>
</g>
<defs>
<clipPath id="clip0_1439_3213">
<rect width="128" height="35" fill="white"/>
</clipPath>
</defs>
</svg>
