<svg width="34" height="35" viewBox="0 0 34 35" fill="none" xmlns="http://www.w3.org/2000/svg">
<path d="M5.74496 5.82711L1.2904 10.3286C1.2904 10.3286 1.1155 17.0931 1.77244 18.6794C2.42937 20.2656 4.15169 22.9459 8.07196 22.9363C11.9922 22.9266 14.9527 19.3604 14.9474 17.1424C14.942 14.9244 14.9314 10.2138 14.9314 10.2138L19.3422 10.2031C19.3422 10.2031 23.753 9.94674 23.7626 14.2187C23.7722 18.4906 19.1705 18.3372 18.3813 18.3394L16.1759 18.3447C16.1759 18.3447 15.5008 20.9478 13.0555 22.9255L19.3177 22.9105C19.3177 22.9105 27.5677 22.6992 28.0945 15.1679C28.6214 7.63648 22.5458 5.81531 20.2305 5.79386C17.9164 5.77241 10.4288 5.81638 10.4288 5.81638L10.4523 15.7846C10.4523 15.7846 10.6752 18.0026 8.68836 18.2804C6.70157 18.5592 5.82708 17.1639 5.77056 16.5622C5.71404 15.9605 5.74603 5.82818 5.74603 5.82818L5.74496 5.82711Z" fill="#484848"/>
<path d="M28.4125 22.6434L28.373 5.76268L32.7028 5.75195L32.7316 18.306L28.4125 22.6434Z" fill="#484848"/>
<path d="M28.3691 4.40492L32.6989 4.39527L32.6883 0L28.3691 4.40492Z" fill="#484848"/>
<path d="M6.06092 25.7717C5.7205 25.7717 5.40329 25.8341 5.10929 25.9588C4.81528 26.0836 4.55997 26.2552 4.34333 26.4735C4.13444 26.6841 3.96809 26.9375 3.8443 27.2338C3.72825 27.5302 3.67022 27.846 3.67022 28.1813C3.67022 28.5166 3.72825 28.8324 3.8443 29.1288C3.96809 29.4173 4.13444 29.6707 4.34333 29.8891C4.55997 30.0996 4.81528 30.2673 5.10929 30.3921C5.40329 30.5168 5.7205 30.5792 6.06092 30.5792C6.39361 30.5792 6.70695 30.5207 7.00095 30.4038C7.29496 30.279 7.54641 30.1113 7.7553 29.9008C7.97193 29.6902 8.14215 29.4407 8.26594 29.1522C8.38973 28.8558 8.45162 28.5322 8.45162 28.1813C8.45162 27.8304 8.38973 27.5068 8.26594 27.2104C8.14215 26.9141 7.97193 26.6607 7.7553 26.4501C7.54641 26.2396 7.29496 26.0758 7.00095 25.9588C6.70695 25.8341 6.39361 25.7717 6.06092 25.7717ZM6.11895 33.3397C5.46131 33.3397 4.91586 33.2072 4.4826 32.942C4.05707 32.6769 3.70891 32.3221 3.43812 31.8776L3.87912 31.5735C4.10349 31.9478 4.38975 32.2402 4.73791 32.4507C5.08607 32.6691 5.54642 32.7783 6.11895 32.7783C6.83074 32.7783 7.39167 32.6028 7.80172 32.2519C8.21178 31.9088 8.41681 31.3941 8.41681 30.7079V29.8891C8.31623 30.045 8.18857 30.1971 8.03383 30.3453C7.88683 30.4934 7.71275 30.626 7.51159 30.743C7.31817 30.8599 7.09767 30.9535 6.85009 31.0237C6.6025 31.0939 6.32785 31.129 6.02611 31.129C5.61605 31.129 5.23308 31.0549 4.87718 30.9067C4.52128 30.7508 4.21181 30.5402 3.94875 30.2751C3.6857 30.0099 3.4768 29.698 3.32206 29.3393C3.17506 28.9806 3.10156 28.5907 3.10156 28.1696C3.10156 27.7563 3.17506 27.3703 3.32206 27.0116C3.4768 26.6529 3.6857 26.3409 3.94875 26.0758C4.21181 25.8107 4.52128 25.604 4.87718 25.4559C5.23308 25.2999 5.61605 25.2219 6.02611 25.2219C6.59864 25.2219 7.08219 25.3389 7.47677 25.5728C7.87909 25.8068 8.19244 26.0992 8.41681 26.4501V25.3155H8.98547V30.7079C8.98547 31.0744 8.9197 31.4175 8.78818 31.7372C8.66439 32.0569 8.4787 32.3338 8.23112 32.5677C7.99128 32.8095 7.69341 32.9966 7.33751 33.1292C6.98161 33.2695 6.57543 33.3397 6.11895 33.3397Z" fill="#484848"/>
<path d="M12.4237 25.8536C12.1452 25.8536 11.886 25.9043 11.6462 26.0056C11.4141 26.107 11.209 26.2513 11.0311 26.4384C10.8609 26.6256 10.7255 26.8517 10.6249 27.1169C10.5321 27.3742 10.4856 27.6627 10.4856 27.9824V31.1641H9.91698V25.3155H10.4856V26.4033C10.5398 26.2942 10.621 26.1733 10.7293 26.0407C10.8377 25.9004 10.9692 25.7717 11.1239 25.6547C11.2864 25.5299 11.476 25.4286 11.6926 25.3506C11.9092 25.2648 12.1529 25.2219 12.4237 25.2219V25.8536Z" fill="#484848"/>
<path d="M15.5364 25.2219C15.9542 25.2219 16.3449 25.2999 16.7085 25.4559C17.0722 25.6118 17.3855 25.8263 17.6486 26.0992C17.9194 26.3643 18.1321 26.6802 18.2869 27.0467C18.4416 27.4132 18.519 27.807 18.519 28.2281C18.519 28.657 18.4416 29.0547 18.2869 29.4212C18.1321 29.7877 17.9194 30.1074 17.6486 30.3804C17.3855 30.6455 17.0722 30.856 16.7085 31.012C16.3449 31.168 15.9542 31.2459 15.5364 31.2459C15.1109 31.2459 14.7163 31.168 14.3527 31.012C13.989 30.856 13.6718 30.6455 13.401 30.3804C13.138 30.1074 12.9291 29.7877 12.7743 29.4212C12.6196 29.0547 12.5422 28.657 12.5422 28.2281C12.5422 27.807 12.6196 27.4132 12.7743 27.0467C12.9291 26.6802 13.138 26.3643 13.401 26.0992C13.6718 25.8263 13.989 25.6118 14.3527 25.4559C14.7163 25.2999 15.1109 25.2219 15.5364 25.2219ZM15.5364 25.7717C15.1882 25.7717 14.8633 25.8341 14.5616 25.9588C14.2676 26.0836 14.0122 26.2591 13.7956 26.4852C13.5867 26.7036 13.4204 26.9648 13.2966 27.2689C13.1728 27.5652 13.1109 27.8889 13.1109 28.2398C13.1109 28.5829 13.1728 28.9065 13.2966 29.2106C13.4204 29.507 13.5867 29.7682 13.7956 29.9944C14.0122 30.2127 14.2676 30.3843 14.5616 30.509C14.8633 30.6338 15.1882 30.6962 15.5364 30.6962C15.8846 30.6962 16.2056 30.6338 16.4996 30.509C16.7937 30.3843 17.0451 30.2127 17.254 29.9944C17.4706 29.7682 17.6408 29.507 17.7646 29.2106C17.8884 28.9065 17.9503 28.5829 17.9503 28.2398C17.9503 27.8889 17.8884 27.5652 17.7646 27.2689C17.6408 26.9648 17.4706 26.7036 17.254 26.4852C17.0451 26.2591 16.7937 26.0836 16.4996 25.9588C16.2056 25.8341 15.8846 25.7717 15.5364 25.7717Z" fill="#484848"/>
<path d="M23.4678 31.1641V30.2751C23.3982 30.3921 23.3092 30.509 23.2009 30.626C23.0926 30.743 22.9572 30.8482 22.7947 30.9418C22.6323 31.0354 22.4466 31.1095 22.2377 31.1641C22.0288 31.2264 21.7928 31.2576 21.5297 31.2576C21.1893 31.2576 20.8798 31.2031 20.6013 31.0939C20.3305 30.9769 20.0946 30.817 19.8934 30.6143C19.7 30.4115 19.5491 30.1659 19.4408 29.8774C19.3325 29.5811 19.2783 29.2535 19.2783 28.8948V25.3155H19.847V28.8246C19.847 29.4173 19.9978 29.8813 20.2996 30.2166C20.6091 30.5441 21.0385 30.7079 21.5878 30.7079C22.1603 30.7079 22.6168 30.5285 22.9572 30.1698C23.2976 29.8033 23.4678 29.3003 23.4678 28.6609V25.3155H24.0365V31.1641H23.4678Z" fill="#484848"/>
<path d="M27.927 25.7717C27.5866 25.7717 27.2655 25.8341 26.9638 25.9588C26.6698 26.0836 26.4144 26.2591 26.1978 26.4852C25.9812 26.7036 25.811 26.9648 25.6872 27.2689C25.5634 27.5652 25.5015 27.8889 25.5015 28.2398C25.5015 28.5907 25.5634 28.9143 25.6872 29.2106C25.811 29.507 25.9812 29.7682 26.1978 29.9944C26.4144 30.2127 26.6698 30.3843 26.9638 30.509C27.2655 30.6338 27.5866 30.6962 27.927 30.6962C28.2752 30.6962 28.5962 30.6338 28.8902 30.509C29.192 30.3843 29.4473 30.2127 29.6562 29.9944C29.8728 29.7682 30.043 29.507 30.1668 29.2106C30.2906 28.9065 30.3525 28.5829 30.3525 28.2398C30.3525 27.8889 30.2906 27.5652 30.1668 27.2689C30.043 26.9648 29.8728 26.7036 29.6562 26.4852C29.4473 26.2591 29.192 26.0836 28.8902 25.9588C28.5962 25.8341 28.2752 25.7717 27.927 25.7717ZM27.9618 31.2459C27.4048 31.2459 26.9212 31.1329 26.5112 30.9067C26.1011 30.6728 25.7761 30.3726 25.5363 30.006V33.1994H24.9676V25.3155H25.5363V26.4618C25.7761 26.0953 26.1011 25.799 26.5112 25.5728C26.9212 25.3389 27.4048 25.2219 27.9618 25.2219C28.3796 25.2219 28.7665 25.2999 29.1224 25.4559C29.486 25.6118 29.7993 25.8263 30.0624 26.0992C30.3332 26.3643 30.5421 26.6802 30.6891 27.0467C30.8438 27.4132 30.9212 27.807 30.9212 28.2281C30.9212 28.657 30.8438 29.0547 30.6891 29.4212C30.5421 29.7877 30.3332 30.1074 30.0624 30.3804C29.7993 30.6455 29.486 30.856 29.1224 31.012C28.7665 31.168 28.3796 31.2459 27.9618 31.2459Z" fill="#484848"/>
</svg>
