<svg width="102" height="102" viewBox="0 0 102 102" fill="none" xmlns="http://www.w3.org/2000/svg">
<path d="M73.429 4.67578H28.5729C15.3512 4.67578 4.63281 15.3941 4.63281 28.6159V73.472C4.63281 86.6937 15.3512 97.4121 28.5729 97.4121H73.429C86.6508 97.4121 97.3691 86.6937 97.3691 73.472V28.6159C97.3691 15.3941 86.6508 4.67578 73.429 4.67578Z" fill="#1A1A1A"/>
<path d="M51.0009 17.3579C45.2089 17.3589 39.5193 18.8853 34.5045 21.7835C29.4898 24.6817 25.3268 28.8495 22.4343 33.8676C19.5419 38.8857 18.0221 44.577 18.0278 50.369C18.0335 56.161 19.5645 61.8494 22.4668 66.8618L17.9844 84.0205L35.426 79.4006C39.8453 81.7676 44.7461 83.0957 49.7558 83.284C54.7656 83.4723 59.7523 82.5159 64.3368 80.4874C68.9214 78.459 72.9831 75.4119 76.213 71.5778C79.443 67.7437 81.7563 63.2237 82.9769 58.3613C84.1975 53.4989 84.2934 48.4222 83.2572 43.5172C82.2211 38.6122 80.0801 34.008 76.9972 30.0547C73.9143 26.1015 69.9706 22.9032 65.4659 20.703C60.9612 18.5029 56.0142 17.3589 51.0009 17.3579ZM70.3929 69.7265C65.9652 74.1517 60.1577 76.9302 53.9338 77.6009C47.71 78.2716 41.4438 76.7943 36.175 73.4141L26.0428 76.1015L28.6326 66.2044C25.6071 61.9406 23.8633 56.901 23.6066 51.6792C23.3499 46.4574 24.591 41.271 27.1838 36.7311C29.7766 32.1912 33.6129 28.4869 38.2408 26.0547C42.8687 23.6226 48.0954 22.5638 53.305 23.0032C58.5146 23.4426 63.4901 25.3618 67.6453 28.5348C71.8004 31.7078 74.9621 36.0023 76.7578 40.9123C78.5535 45.8224 78.9085 51.1434 77.7808 56.2484C76.6531 61.3534 74.0898 66.0298 70.3929 69.7265Z" fill="#FEFEFE"/>
<path d="M67.5225 58.9686C67.5242 59.5108 67.4782 60.0521 67.385 60.5863C67.2975 61.1278 67.1642 61.661 66.9866 62.18C66.5782 63.3335 64.347 64.746 64.347 64.746C62.7613 65.8014 60.8667 66.2926 58.968 66.1405C58.5228 66.095 58.0805 66.0245 57.6432 65.9293C56.9021 65.764 56.5416 65.6584 56.5416 65.6584C56.183 65.5528 55.2526 65.2599 55.2526 65.2599C54.3223 64.9691 54.1131 64.9133 54.1131 64.9133C52.6999 64.4885 51.3304 63.9302 50.0231 63.2458C47.0089 61.6083 43.7258 58.6738 43.7258 58.6738C41.782 56.9457 40.0246 55.0187 38.4824 52.9243C37.6621 51.6983 36.9552 50.4 36.3707 49.0455C36.291 48.8463 35.8985 47.9518 35.8985 47.9518C35.5001 47.0593 35.3606 46.7147 35.3606 46.7147C35.2172 46.368 34.9622 45.6508 34.9622 45.6508C34.8167 45.2277 34.6976 44.7959 34.6056 44.3579C34.5323 43.9628 34.483 43.5637 34.4582 43.1626C34.3426 41.0668 35.3845 38.8615 35.3845 38.8615C36.53 36.4908 37.6417 35.9489 37.6417 35.9489C38.1389 35.7245 38.6515 35.5361 39.1757 35.3851C39.6945 35.2242 40.2286 35.1174 40.7694 35.0664C40.9313 35.0505 41.0948 35.0647 41.2515 35.1082C41.6699 35.2217 42.5564 36.7717 42.5564 36.7717C42.8313 37.19 43.3075 37.967 43.3075 37.967C43.7856 38.7399 44.186 39.3615 44.186 39.3615C44.5845 39.989 44.959 40.5389 44.959 40.5389C45.0327 40.6265 45.3893 41.0867 45.3893 41.0867C45.5852 41.3343 45.7636 41.5953 45.9232 41.8677C46.0327 42.065 46.1005 42.2826 46.1224 42.5072C46.1463 42.9634 45.5367 43.6826 45.5367 43.6826C45.1226 44.1587 44.6738 44.6035 44.194 45.0133C43.7204 45.415 43.2713 45.8447 42.8493 46.3003C42.2357 46.9737 42.2516 47.384 42.2516 47.384C42.2756 47.5584 42.3232 47.7286 42.393 47.8901C42.5245 48.1909 42.6142 48.3463 42.6142 48.3463C42.7018 48.4997 42.9628 48.8742 42.9628 48.8742C43.2238 49.2487 43.2477 49.2926 43.2477 49.2926C44.4504 51.1723 45.8818 52.8954 47.509 54.4224C49.8657 56.5302 53.0871 58.0861 53.0871 58.0861C53.1349 58.106 53.5354 58.3232 53.5354 58.3232C53.9338 58.5423 54.0991 58.612 54.0991 58.612C54.2625 58.6837 54.5773 58.7794 54.5773 58.7794C54.7441 58.8361 54.919 58.8651 55.0952 58.865C55.5056 58.8431 56.1073 58.1578 56.1073 58.1578C56.5119 57.687 56.8884 57.1927 57.2348 56.6776C57.5894 56.1563 57.9816 55.6616 58.4082 55.1974C59.0557 54.5101 59.5119 54.4842 59.5119 54.4842C59.737 54.4823 59.9603 54.5242 60.1693 54.6077C60.4561 54.7391 60.7349 54.8875 61.0041 55.052C61.5021 55.3548 61.6017 55.4185 61.6017 55.4185C62.1994 55.7293 62.8608 56.056 62.8608 56.056C63.5302 56.3848 64.3509 56.7732 64.3509 56.7732C65.1717 57.1617 65.618 57.3868 65.618 57.3868C67.2575 58.096 67.4109 58.4985 67.4109 58.4985C67.4709 58.6489 67.5085 58.8073 67.5225 58.9686Z" fill="#FEFEFE"/>
</svg>
