<svg width="39" height="33" viewBox="0 0 39 33" fill="none" xmlns="http://www.w3.org/2000/svg">
<path d="M19.5 6.00023C19.5001 5.3081 19.7055 4.63156 20.0901 4.05613C20.4747 3.48069 21.0213 3.0322 21.6607 2.76736C22.3002 2.50251 23.0038 2.4332 23.6826 2.56819C24.3614 2.70318 24.985 3.0364 25.4745 3.52573L35.9745 14.0257C36.6306 14.6821 36.9993 15.5722 36.9993 16.5002C36.9993 17.4283 36.6306 18.3184 35.9745 18.9747L25.4745 29.4747C24.985 29.9641 24.3614 30.2973 23.6826 30.4323C23.0038 30.5673 22.3002 30.498 21.6607 30.2331C21.0213 29.9683 20.4747 29.5198 20.0901 28.9443C19.7055 28.3689 19.5001 27.6924 19.5 27.0002V6.00023Z" stroke="#FEFEFE" stroke-width="4" stroke-linecap="round" stroke-linejoin="round"/>
<path d="M2 6.00023C2.00015 5.3081 2.2055 4.63156 2.59009 4.05613C2.97469 3.48069 3.52126 3.0322 4.16071 2.76736C4.80016 2.50251 5.50378 2.4332 6.18261 2.56819C6.86145 2.70318 7.48502 3.0364 7.9745 3.52573L18.4745 14.0257C19.1306 14.6821 19.4993 15.5722 19.4993 16.5002C19.4993 17.4283 19.1306 18.3184 18.4745 18.9747L7.9745 29.4747C7.48502 29.9641 6.86145 30.2973 6.18261 30.4323C5.50378 30.5673 4.80016 30.498 4.16071 30.2331C3.52126 29.9683 2.97469 29.5198 2.59009 28.9443C2.2055 28.3689 2.00015 27.6924 2 27.0002V6.00023Z" stroke="#FEFEFE" stroke-width="4" stroke-linecap="round" stroke-linejoin="round"/>
</svg>
