<svg width="39" height="39" viewBox="0 0 39 39" fill="none" xmlns="http://www.w3.org/2000/svg">
<path d="M19.5 33.5C23.213 33.5 26.774 32.025 29.3995 29.3995C32.025 26.774 33.5 23.213 33.5 19.5C33.5 15.787 32.025 12.226 29.3995 9.60051C26.774 6.975 23.213 5.5 19.5 5.5M19.5 33.5C15.787 33.5 12.226 32.025 9.60051 29.3995C6.975 26.774 5.5 23.213 5.5 19.5M19.5 33.5V37M19.5 5.5C15.787 5.5 12.226 6.975 9.60051 9.60051C6.975 12.226 5.5 15.787 5.5 19.5M19.5 5.5V2M5.5 19.5H2M23 19.5C23 20.4283 22.6313 21.3185 21.9749 21.9749C21.3185 22.6313 20.4283 23 19.5 23C18.5717 23 17.6815 22.6313 17.0251 21.9749C16.3687 21.3185 16 20.4283 16 19.5C16 18.5717 16.3687 17.6815 17.0251 17.0251C17.6815 16.3687 18.5717 16 19.5 16C20.4283 16 21.3185 16.3687 21.9749 17.0251C22.6313 17.6815 23 18.5717 23 19.5ZM23 19.5H37M28.25 34.6549L26.5 31.6274M17.75 16.4727L10.75 4.34515M34.6549 28.25L31.6274 26.5M4.34515 10.75L7.37265 12.5M34.6549 10.75L31.6274 12.5M4.34515 28.25L7.37265 26.5M28.25 4.34515L26.5 7.37265M17.75 22.5275L10.75 34.655" stroke="#FEFEFE" stroke-width="4" stroke-linecap="round" stroke-linejoin="round"/>
</svg>
