<svg width="43" height="43" viewBox="0 0 43 43" fill="none" xmlns="http://www.w3.org/2000/svg">
<path d="M21.5 35.5C25.213 35.5 28.774 34.025 31.3995 31.3995C34.025 28.774 35.5 25.213 35.5 21.5C35.5 17.787 34.025 14.226 31.3995 11.6005C28.774 8.975 25.213 7.5 21.5 7.5M21.5 35.5C17.787 35.5 14.226 34.025 11.6005 31.3995C8.975 28.774 7.5 25.213 7.5 21.5M21.5 35.5V39M21.5 7.5C17.787 7.5 14.226 8.975 11.6005 11.6005C8.975 14.226 7.5 17.787 7.5 21.5M21.5 7.5V4M7.5 21.5H4M25 21.5C25 22.4283 24.6313 23.3185 23.9749 23.9749C23.3185 24.6313 22.4283 25 21.5 25C20.5717 25 19.6815 24.6313 19.0251 23.9749C18.3687 23.3185 18 22.4283 18 21.5C18 20.5717 18.3687 19.6815 19.0251 19.0251C19.6815 18.3687 20.5717 18 21.5 18C22.4283 18 23.3185 18.3687 23.9749 19.0251C24.6313 19.6815 25 20.5717 25 21.5ZM25 21.5H39M30.25 36.6549L28.5 33.6274M19.75 18.4727L12.75 6.34515M36.6549 30.25L33.6274 28.5M6.34515 12.75L9.37265 14.5M36.6549 12.75L33.6274 14.5M6.34515 30.25L9.37265 28.5M30.25 6.34515L28.5 9.37265M19.75 24.5275L12.75 36.655" stroke="#1A1A1A" stroke-width="4" stroke-linecap="round" stroke-linejoin="round"/>
</svg>
