<svg width="39" height="37" viewBox="0 0 39 37" fill="none" xmlns="http://www.w3.org/2000/svg">
<path d="M19.5 34.25V9.75M19.5 34.25C19.5 32.8576 18.9469 31.5223 17.9623 30.5377C16.9777 29.5531 15.6424 29 14.25 29H3.75C3.28587 29 2.84075 28.8156 2.51256 28.4874C2.18437 28.1592 2 27.7141 2 27.25V4.5C2 4.03587 2.18437 3.59075 2.51256 3.26256C2.84075 2.93437 3.28587 2.75 3.75 2.75H12.5C14.3565 2.75 16.137 3.4875 17.4497 4.80025C18.7625 6.11301 19.5 7.89348 19.5 9.75M19.5 34.25C19.5 32.8576 20.0531 31.5223 21.0377 30.5377C22.0223 29.5531 23.3576 29 24.75 29H35.25C35.7141 29 36.1592 28.8156 36.4874 28.4874C36.8156 28.1592 37 27.7141 37 27.25V24.975M19.5 9.75C19.5 7.89348 20.2375 6.11301 21.5503 4.80025C22.863 3.4875 24.6435 2.75 26.5 2.75H35.25C35.7141 2.75 36.1592 2.93437 36.4874 3.26256C36.8156 3.59075 37 4.03587 37 4.5V8M26.5 18.5L30 22L37 15" stroke="#1A1A1A" stroke-width="4" stroke-linecap="round" stroke-linejoin="round"/>
</svg>
