<svg width="20" height="22" viewBox="0 0 20 22" fill="none" xmlns="http://www.w3.org/2000/svg">
<path d="M8.26721 20C8.44276 20.304 8.69523 20.5565 8.99926 20.732C9.30328 20.9075 9.64816 20.9999 9.99921 20.9999C10.3503 20.9999 10.6951 20.9075 10.9992 20.732C11.3032 20.5565 11.5557 20.304 11.7312 20M1.26127 14.326C1.13063 14.4692 1.04442 14.6472 1.01312 14.8385C0.981826 15.0298 1.00679 15.226 1.08498 15.4034C1.16316 15.5807 1.2912 15.7316 1.45352 15.8375C1.61585 15.9434 1.80545 15.9999 1.99927 16H17.9993C18.1931 16.0001 18.3827 15.9438 18.5451 15.8381C18.7076 15.7324 18.8358 15.5817 18.9142 15.4045C18.9926 15.2273 19.0178 15.0311 18.9867 14.8398C18.9557 14.6485 18.8697 14.4703 18.7393 14.327C17.4093 12.956 15.9993 11.499 15.9993 7C15.9993 5.4087 15.3671 3.88258 14.2419 2.75736C13.1167 1.63214 11.5906 1 9.99927 1C8.40797 1 6.88185 1.63214 5.75663 2.75736C4.63141 3.88258 3.99927 5.4087 3.99927 7C3.99927 11.499 2.58827 12.956 1.26127 14.326Z" stroke="#FEFEFE" stroke-width="2" stroke-linecap="round" stroke-linejoin="round"/>
</svg>
