<svg width="22" height="22" viewBox="0 0 22 22" fill="none" xmlns="http://www.w3.org/2000/svg">
<path d="M10.9998 5V11L14.9998 13M18.9998 11V16M18.9998 20H19.0098M20.2497 7.20002C19.4954 5.3614 18.2104 3.78922 16.5586 2.68415C14.9068 1.57908 12.9632 0.991228 10.9759 0.99563C8.98856 1.00003 7.0476 1.59648 5.40074 2.70886C3.75388 3.82124 2.47581 5.39909 1.72965 7.24104C0.983488 9.083 0.803078 11.1055 1.21144 13.0504C1.61981 14.9954 2.59843 16.7745 4.02241 18.1608C5.44638 19.5471 7.25113 20.4777 9.20632 20.8338C11.1615 21.1899 13.1784 20.9553 14.9997 20.16" stroke="#1A1A1A" stroke-width="2" stroke-linecap="round" stroke-linejoin="round"/>
</svg>
