<svg width="22" height="20" viewBox="0 0 22 20" fill="none" xmlns="http://www.w3.org/2000/svg">
<path d="M17 19C17 16.8783 16.1571 14.8434 14.6569 13.3431C13.1566 11.8429 11.1217 11 9 11M9 11C6.87827 11 4.84344 11.8429 3.34315 13.3431C1.84285 14.8434 1 16.8783 1 19M9 11C11.7614 11 14 8.76142 14 6C14 3.23858 11.7614 1 9 1C6.23858 1 4 3.23858 4 6C4 8.76142 6.23858 11 9 11ZM21 18.0002C21 14.6302 19 11.5002 17 10.0002C17.6575 9.50696 18.1832 8.85928 18.5306 8.11446C18.8781 7.36965 19.0366 6.55066 18.9921 5.73C18.9476 4.90933 18.7015 4.11228 18.2755 3.40939C17.8496 2.70651 17.2569 2.11946 16.55 1.7002" stroke="#FEFEFE" stroke-width="2" stroke-linecap="round" stroke-linejoin="round"/>
</svg>
