<svg width="22" height="22" viewBox="0 0 22 22" fill="none" xmlns="http://www.w3.org/2000/svg">
<path d="M10.9998 5.00049V11.0005L14.9998 13.0005M18.9998 11.0005V16.0005M18.9998 20.0005H19.0098M20.2497 7.20051C19.4954 5.36188 18.2104 3.78971 16.5586 2.68464C14.9068 1.57956 12.9632 0.991716 10.9759 0.996118C8.98856 1.00052 7.0476 1.59697 5.40074 2.70935C3.75388 3.82173 2.47581 5.39958 1.72965 7.24153C0.983488 9.08348 0.803078 11.106 1.21144 13.0509C1.61981 14.9959 2.59843 16.775 4.02241 18.1613C5.44638 19.5476 7.25113 20.4782 9.20632 20.8343C11.1615 21.1903 13.1784 20.9558 14.9997 20.1605" stroke="#FEFEFE" stroke-width="2" stroke-linecap="round" stroke-linejoin="round"/>
</svg>
