<svg width="115" height="100" viewBox="0 0 115 100" fill="none" xmlns="http://www.w3.org/2000/svg">
<g filter="url(#filter0_d_1350_10200)">
<g clip-path="url(#clip0_1350_10200)">
<rect x="-20" y="-10.2168" width="100.256" height="100.256" rx="16" transform="rotate(-16.6844 -20 -10.2168)" fill="url(#paint0_radial_1350_10200)"/>
<g clip-path="url(#clip1_1350_10200)">
<mask id="path-2-outside-1_1350_10200" maskUnits="userSpaceOnUse" x="8.58385" y="-12.5358" width="66.4644" height="70.707" fill="black">
<rect fill="white" x="8.58385" y="-12.5358" width="66.4644" height="70.707"/>
<path d="M29.4999 2.82678C29.2256 1.19997 29.5677 -0.470666 30.4593 -1.85874C31.351 -3.24681 32.7281 -4.25258 34.3216 -4.67958C35.9152 -5.10657 37.6107 -4.9241 39.0769 -4.16781C40.5431 -3.41153 41.6747 -2.13576 42.2506 -0.589757C42.6158 0.410761 43.2167 1.30856 44.0024 2.02765C44.7881 2.74674 45.7355 3.26594 46.7644 3.54133C47.7933 3.81671 48.8734 3.84016 49.9132 3.60969C50.9531 3.37922 51.9221 2.90161 52.7383 2.2173C54.0102 1.17186 55.6256 0.637058 57.2701 0.716983C58.9145 0.796908 60.4705 1.48584 61.635 2.6497C62.7995 3.81356 63.4893 5.36908 63.5702 7.01351C63.6511 8.65794 63.1172 10.2736 62.0725 11.5461C61.3889 12.3625 60.9119 13.3314 60.682 14.371C60.4521 15.4106 60.4759 16.4904 60.7515 17.5188C61.027 18.5473 61.5463 19.4942 62.2652 20.2796C62.9842 21.065 63.8817 21.6656 64.8819 22.0308C66.4229 22.6105 67.693 23.7427 68.4452 25.2073C69.1974 26.6719 69.3778 28.3639 68.9512 29.9541C68.5246 31.5443 67.5216 32.9189 66.1374 33.8103C64.7532 34.7018 63.0868 35.0463 61.4626 34.7769C60.4136 34.5924 59.3356 34.6633 58.3198 34.9836C57.3041 35.3039 56.3804 35.8643 55.6271 36.6172C54.8737 37.3701 54.3128 38.2935 53.9919 39.3091C53.671 40.3247 53.5996 41.4027 53.7835 42.4517C54.0578 44.0786 53.7157 45.7492 52.8241 47.1373C51.9324 48.5253 50.5553 49.5311 48.9618 49.9581C47.3682 50.3851 45.6727 50.2026 44.2065 49.4463C42.7403 48.69 41.6087 47.4143 41.0328 45.8683C40.6677 44.8674 40.0666 43.9692 39.2807 43.2498C38.4947 42.5305 37.547 42.0111 36.5177 41.7358C35.4885 41.4604 34.408 41.4372 33.3678 41.6681C32.3277 41.8989 31.3585 42.377 30.5424 43.062C29.2705 44.1074 27.6551 44.6422 26.0106 44.5623C24.3661 44.4824 22.8102 43.7934 21.6457 42.6296C20.4811 41.4657 19.7913 39.9102 19.7104 38.2657C19.6296 36.6213 20.1634 35.0056 21.2082 33.7331C21.8918 32.9168 22.3687 31.9479 22.5987 30.9082C22.8286 29.8686 22.8048 28.7889 22.5292 27.7604C22.2536 26.732 21.7344 25.785 21.0155 24.9996C20.2965 24.2143 19.399 23.6136 18.3988 23.2485C16.8595 22.6679 15.591 21.5357 14.84 20.0719C14.0889 18.6082 13.9088 16.9175 14.3348 15.3285C14.7607 13.7394 15.7623 12.3655 17.1448 11.4737C18.5273 10.5819 20.192 10.2359 21.8153 10.5031C22.8643 10.6876 23.9423 10.6167 24.9581 10.2964C25.9739 9.97606 26.8975 9.41571 27.6509 8.66278C28.4042 7.90986 28.9651 6.98651 29.286 5.97091C29.6069 4.95531 29.6784 3.87734 29.4944 2.82825"/>
</mask>
<g filter="url(#filter1_i_1350_10200)">
<path d="M29.4999 2.82678C29.2256 1.19997 29.5677 -0.470666 30.4593 -1.85874C31.351 -3.24681 32.7281 -4.25258 34.3216 -4.67958C35.9152 -5.10657 37.6107 -4.9241 39.0769 -4.16781C40.5431 -3.41153 41.6747 -2.13576 42.2506 -0.589757C42.6158 0.410761 43.2167 1.30856 44.0024 2.02765C44.7881 2.74674 45.7355 3.26594 46.7644 3.54133C47.7933 3.81671 48.8734 3.84016 49.9132 3.60969C50.9531 3.37922 51.9221 2.90161 52.7383 2.2173C54.0102 1.17186 55.6256 0.637058 57.2701 0.716983C58.9145 0.796908 60.4705 1.48584 61.635 2.6497C62.7995 3.81356 63.4893 5.36908 63.5702 7.01351C63.6511 8.65794 63.1172 10.2736 62.0725 11.5461C61.3889 12.3625 60.9119 13.3314 60.682 14.371C60.4521 15.4106 60.4759 16.4904 60.7515 17.5188C61.027 18.5473 61.5463 19.4942 62.2652 20.2796C62.9842 21.065 63.8817 21.6656 64.8819 22.0308C66.4229 22.6105 67.693 23.7427 68.4452 25.2073C69.1974 26.6719 69.3778 28.3639 68.9512 29.9541C68.5246 31.5443 67.5216 32.9189 66.1374 33.8103C64.7532 34.7018 63.0868 35.0463 61.4626 34.7769C60.4136 34.5924 59.3356 34.6633 58.3198 34.9836C57.3041 35.3039 56.3804 35.8643 55.6271 36.6172C54.8737 37.3701 54.3128 38.2935 53.9919 39.3091C53.671 40.3247 53.5996 41.4027 53.7835 42.4517C54.0578 44.0786 53.7157 45.7492 52.8241 47.1373C51.9324 48.5253 50.5553 49.5311 48.9618 49.9581C47.3682 50.3851 45.6727 50.2026 44.2065 49.4463C42.7403 48.69 41.6087 47.4143 41.0328 45.8683C40.6677 44.8674 40.0666 43.9692 39.2807 43.2498C38.4947 42.5305 37.547 42.0111 36.5177 41.7358C35.4885 41.4604 34.408 41.4372 33.3678 41.6681C32.3277 41.8989 31.3585 42.377 30.5424 43.062C29.2705 44.1074 27.6551 44.6422 26.0106 44.5623C24.3661 44.4824 22.8102 43.7934 21.6457 42.6296C20.4811 41.4657 19.7913 39.9102 19.7104 38.2657C19.6296 36.6213 20.1634 35.0056 21.2082 33.7331C21.8918 32.9168 22.3687 31.9479 22.5987 30.9082C22.8286 29.8686 22.8048 28.7889 22.5292 27.7604C22.2536 26.732 21.7344 25.785 21.0155 24.9996C20.2965 24.2143 19.399 23.6136 18.3988 23.2485C16.8595 22.6679 15.591 21.5357 14.84 20.0719C14.0889 18.6082 13.9088 16.9175 14.3348 15.3285C14.7607 13.7394 15.7623 12.3655 17.1448 11.4737C18.5273 10.5819 20.192 10.2359 21.8153 10.5031C22.8643 10.6876 23.9423 10.6167 24.9581 10.2964C25.9739 9.97606 26.8975 9.41571 27.6509 8.66278C28.4042 7.90986 28.9651 6.98651 29.286 5.97091C29.6069 4.95531 29.6784 3.87734 29.4944 2.82825" fill="url(#paint1_linear_1350_10200)"/>
</g>
<path d="M28.5138 2.99304C28.6056 3.53764 29.1215 3.90469 29.6661 3.81287C30.2107 3.72105 30.5778 3.20513 30.486 2.66053L29.4999 2.82678L28.5138 2.99304ZM34.3216 -4.67958L34.5805 -3.71365L34.3216 -4.67958ZM42.2506 -0.589757L43.19 -0.932672L43.1877 -0.938817L42.2506 -0.589757ZM52.7383 2.2173L52.1033 1.44474L52.0958 1.45101L52.7383 2.2173ZM62.0725 11.5461L62.8392 12.1882L62.8454 12.1807L62.0725 11.5461ZM64.8819 22.0308L65.2339 21.0948L65.2248 21.0914L64.8819 22.0308ZM61.4626 34.7769L61.2893 35.7618L61.299 35.7634L61.4626 34.7769ZM53.7835 42.4517L54.7696 42.2855L54.7685 42.279L53.7835 42.4517ZM41.0328 45.8683L40.0934 46.211L40.0957 46.2173L41.0328 45.8683ZM30.5424 43.062L31.1774 43.8345L31.1852 43.828L30.5424 43.062ZM21.2082 33.7331L20.4414 33.0911L20.4353 33.0986L21.2082 33.7331ZM22.5292 27.7604L21.5633 28.0193L22.5292 27.7604ZM18.3988 23.2485L18.0459 24.1842L18.0559 24.1878L18.3988 23.2485ZM21.8153 10.5031L21.9886 9.51816L21.9777 9.51637L21.8153 10.5031ZM30.4794 2.65553C30.384 2.11155 29.8657 1.74789 29.3217 1.84328C28.7777 1.93867 28.414 2.45698 28.5094 3.00097L29.4944 2.82825L30.4794 2.65553ZM29.4999 2.82678L30.486 2.66053C30.253 1.27909 30.5435 -0.139568 31.3007 -1.31828L30.4593 -1.85874L29.618 -2.3992C28.5918 -0.801764 28.1981 1.12085 28.5138 2.99304L29.4999 2.82678ZM30.4593 -1.85874L31.3007 -1.31828C32.0578 -2.49699 33.2273 -3.35106 34.5805 -3.71365L34.3216 -4.67958L34.0628 -5.6455C32.2289 -5.15411 30.6441 -3.99663 29.618 -2.3992L30.4593 -1.85874ZM34.3216 -4.67958L34.5805 -3.71365C35.9337 -4.07624 37.3734 -3.92129 38.6185 -3.27908L39.0769 -4.16781L39.5353 -5.05655C37.848 -5.92691 35.8967 -6.1369 34.0628 -5.6455L34.3216 -4.67958ZM39.0769 -4.16781L38.6185 -3.27908C39.8636 -2.63686 40.8245 -1.55352 41.3135 -0.240697L42.2506 -0.589757L43.1877 -0.938817C42.525 -2.718 41.2227 -4.18619 39.5353 -5.05655L39.0769 -4.16781ZM42.2506 -0.589757L41.3112 -0.24685C41.7315 0.904577 42.4231 1.93779 43.3273 2.76534L44.0024 2.02765L44.6776 1.28996C44.0104 0.679329 43.5001 -0.0830557 43.1899 -0.932665L42.2506 -0.589757ZM44.0024 2.02765L43.3273 2.76534C44.2315 3.59289 45.3218 4.19041 46.5059 4.50732L46.7644 3.54133L47.023 2.57533C46.1493 2.34148 45.3448 1.90059 44.6776 1.28996L44.0024 2.02765ZM46.7644 3.54133L46.5059 4.50732C47.6899 4.82424 48.9329 4.85123 50.1296 4.586L49.9132 3.60969L49.6968 2.63338C48.8138 2.82909 47.8966 2.80918 47.023 2.57533L46.7644 3.54133ZM49.9132 3.60969L50.1296 4.586C51.3263 4.32076 52.4415 3.77112 53.3808 2.9836L52.7383 2.2173L52.0958 1.45101C51.4027 2.0321 50.5799 2.43767 49.6968 2.63338L49.9132 3.60969ZM52.7383 2.2173L53.3733 2.98983C54.4533 2.10207 55.8251 1.64793 57.2215 1.7158L57.2701 0.716983L57.3186 -0.281838C55.4261 -0.373818 53.5671 0.241648 52.1033 1.44478L52.7383 2.2173ZM57.2701 0.716983L57.2215 1.7158C58.618 1.78367 59.9392 2.3687 60.9281 3.35701L61.635 2.6497L62.3419 1.94239C61.0017 0.602987 59.2111 -0.189858 57.3186 -0.281838L57.2701 0.716983ZM61.635 2.6497L60.9281 3.35701C61.917 4.34533 62.5027 5.66622 62.5714 7.06263L63.5702 7.01351L64.569 6.96439C64.4759 5.07193 63.6821 3.28179 62.3419 1.94239L61.635 2.6497ZM63.5702 7.01351L62.5714 7.06263C62.6401 8.45903 62.1867 9.83103 61.2996 10.9116L62.0725 11.5461L62.8454 12.1807C64.0477 10.7162 64.6621 8.85685 64.569 6.96439L63.5702 7.01351ZM62.0725 11.5461L61.3058 10.9041C60.5191 11.8435 59.9702 12.9586 59.7056 14.1551L60.682 14.371L61.6584 14.587C61.8537 13.7042 62.2587 12.8814 62.8392 12.1882L62.0725 11.5461ZM60.682 14.371L59.7056 14.1551C59.441 15.3515 59.4684 16.594 59.7855 17.7776L60.7515 17.5188L61.7174 17.26C61.4834 16.3867 61.4631 15.4698 61.6584 14.587L60.682 14.371ZM60.7515 17.5188L59.7855 17.7776C60.1027 18.9612 60.7002 20.051 61.5276 20.9548L62.2652 20.2796L63.0028 19.6044C62.3923 18.9375 61.9514 18.1333 61.7174 17.26L60.7515 17.5188ZM62.2652 20.2796L61.5276 20.9548C62.355 21.8587 63.3879 22.5499 64.5389 22.9701L64.8819 22.0308L65.2248 21.0914C64.3755 20.7814 63.6133 20.2713 63.0028 19.6044L62.2652 20.2796ZM64.8819 22.0308L64.5298 22.9668C65.8383 23.459 66.917 24.4205 67.5557 25.6642L68.4452 25.2073L69.3348 24.7504C68.4691 23.065 67.0074 21.7619 65.2339 21.0948L64.8819 22.0308ZM68.4452 25.2073L67.5557 25.6642C68.1944 26.9078 68.3476 28.3446 67.9853 29.695L68.9512 29.9541L69.917 30.2132C70.408 28.3831 70.2004 26.4359 69.3348 24.7504L68.4452 25.2073ZM68.9512 29.9541L67.9853 29.695C67.6231 31.0453 66.7714 32.2126 65.5959 32.9696L66.1374 33.8103L66.6789 34.6511C68.2718 33.6251 69.4261 32.0432 69.917 30.2132L68.9512 29.9541ZM66.1374 33.8103L65.5959 32.9696C64.4205 33.7266 63.0055 34.0192 61.6263 33.7904L61.4626 34.7769L61.299 35.7634C63.1682 36.0735 65.0859 35.677 66.6789 34.6511L66.1374 33.8103ZM61.4626 34.7769L61.6359 33.792C60.4287 33.5796 59.1881 33.6612 58.0191 34.0299L58.3198 34.9836L58.6206 35.9373C59.4832 35.6653 60.3986 35.6051 61.2893 35.7618L61.4626 34.7769ZM58.3198 34.9836L58.0191 34.0299C56.8501 34.3985 55.7871 35.0434 54.9201 35.9099L55.6271 36.6172L56.334 37.3245C56.9737 36.6851 57.758 36.2093 58.6206 35.9373L58.3198 34.9836ZM55.6271 36.6172L54.9201 35.9099C54.0532 36.7764 53.4077 37.839 53.0384 39.0078L53.9919 39.3091L54.9455 39.6104C55.218 38.7479 55.6942 37.9639 56.334 37.3245L55.6271 36.6172ZM53.9919 39.3091L53.0384 39.0078C52.6691 40.1766 52.5868 41.4171 52.7985 42.6245L53.7835 42.4517L54.7685 42.279C54.6123 41.3882 54.673 40.4728 54.9455 39.6104L53.9919 39.3091ZM53.7835 42.4517L52.7974 42.618C53.0303 43.9994 52.7399 45.4181 51.9827 46.5968L52.8241 47.1373L53.6654 47.6777C54.6916 46.0803 55.0853 44.1577 54.7696 42.2855L53.7835 42.4517ZM52.8241 47.1373L51.9827 46.5968C51.2255 47.7755 50.0561 48.6296 48.7029 48.9922L48.9618 49.9581L49.2206 50.924C51.0545 50.4326 52.6393 49.2751 53.6654 47.6777L52.8241 47.1373ZM48.9618 49.9581L48.7029 48.9922C47.3497 49.3548 45.91 49.1998 44.6649 48.5576L44.2065 49.4463L43.7481 50.3351C45.4354 51.2054 47.3867 51.4154 49.2206 50.924L48.9618 49.9581ZM44.2065 49.4463L44.6649 48.5576C43.4198 47.9154 42.4589 46.832 41.9699 45.5192L41.0328 45.8683L40.0957 46.2173C40.7584 47.9965 42.0607 49.4647 43.7481 50.3351L44.2065 49.4463ZM41.0328 45.8683L41.9722 45.5256C41.552 44.3737 40.8604 43.34 39.9559 42.5121L39.2807 43.2498L38.6055 43.9875C39.2729 44.5983 39.7833 45.3611 40.0934 46.211L41.0328 45.8683ZM39.2807 43.2498L39.9559 42.5121C39.0513 41.6843 37.9607 41.0866 36.7761 40.7697L36.5177 41.7358L36.2593 42.7018C37.1333 42.9356 37.9381 43.3766 38.6055 43.9875L39.2807 43.2498ZM36.5177 41.7358L36.7761 40.7697C35.5916 40.4529 34.3482 40.4261 33.1512 40.6918L33.3678 41.6681L33.5845 42.6443C34.4678 42.4483 35.3853 42.468 36.2593 42.7018L36.5177 41.7358ZM33.3678 41.6681L33.1512 40.6918C31.9541 40.9575 30.8388 41.5077 29.8995 42.2959L30.5424 43.062L31.1852 43.828C31.8782 43.2463 32.7012 42.8403 33.5845 42.6443L33.3678 41.6681ZM30.5424 43.062L29.9074 42.2894C28.8273 43.1772 27.4556 43.6313 26.0591 43.5635L26.0106 44.5623L25.962 45.5611C27.8546 45.6531 29.7136 45.0376 31.1773 43.8345L30.5424 43.062ZM26.0106 44.5623L26.0591 43.5635C24.6627 43.4956 23.3415 42.9106 22.3526 41.9222L21.6457 42.6296L20.9388 43.3369C22.2789 44.6763 24.0695 45.4691 25.962 45.5611L26.0106 44.5623ZM21.6457 42.6296L22.3526 41.9222C21.3637 40.9339 20.7779 39.613 20.7092 38.2166L19.7104 38.2657L18.7117 38.3149C18.8047 40.2073 19.5986 41.9975 20.9388 43.3369L21.6457 42.6296ZM19.7104 38.2657L20.7092 38.2166C20.6406 36.8202 21.0939 35.4482 21.9811 34.3677L21.2082 33.7331L20.4353 33.0986C19.233 34.563 18.6186 36.4224 18.7117 38.3149L19.7104 38.2657ZM21.2082 33.7331L21.9748 34.3752C22.7615 33.4357 23.3104 32.3206 23.5751 31.1242L22.5987 30.9082L21.6223 30.6923C21.427 31.5751 21.022 32.3979 20.4415 33.0911L21.2082 33.7331ZM22.5987 30.9082L23.5751 31.1242C23.8397 29.9278 23.8123 28.6852 23.4951 27.5016L22.5292 27.7604L21.5633 28.0193C21.7973 28.8926 21.8175 29.8095 21.6223 30.6923L22.5987 30.9082ZM22.5292 27.7604L23.4951 27.5016C23.178 26.318 22.5804 25.2282 21.7531 24.3244L21.0155 24.9996L20.2778 25.6749C20.8884 26.3418 21.3293 27.1459 21.5633 28.0193L22.5292 27.7604ZM21.0155 24.9996L21.7531 24.3244C20.9257 23.4206 19.8928 22.7293 18.7417 22.3091L18.3988 23.2485L18.0559 24.1878C18.9052 24.4979 19.6673 25.008 20.2778 25.6749L21.0155 24.9996ZM18.3988 23.2485L18.7517 22.3128C17.4446 21.8198 16.3675 20.8584 15.7297 19.6154L14.84 20.0719L13.9502 20.5285C14.8146 22.213 16.2744 23.5159 18.0459 24.1841L18.3988 23.2485ZM14.84 20.0719L15.7297 19.6154C15.0919 18.3725 14.939 16.9368 15.3007 15.5874L14.3348 15.3285L13.3689 15.0696C12.8787 16.8983 13.0859 18.844 13.9502 20.5285L14.84 20.0719ZM14.3348 15.3285L15.3007 15.5874C15.6624 14.238 16.5129 13.0713 17.6869 12.314L17.1448 11.4737L16.6027 10.6333C15.0117 11.6596 13.8591 13.2408 13.3689 15.0696L14.3348 15.3285ZM17.1448 11.4737L17.6869 12.314C18.8608 11.5567 20.2744 11.263 21.6529 11.4898L21.8153 10.5031L21.9777 9.51637C20.1095 9.20892 18.1937 9.60703 16.6027 10.6333L17.1448 11.4737ZM21.8153 10.5031L21.642 11.488C22.8492 11.7003 24.0899 11.6188 25.2588 11.2501L24.9581 10.2964L24.6573 9.3427C23.7948 9.61472 22.8793 9.67493 21.9886 9.51822L21.8153 10.5031ZM24.9581 10.2964L25.2588 11.2501C26.4278 10.8814 27.4908 10.2366 28.3578 9.37009L27.6509 8.66278L26.944 7.95548C26.3042 8.59485 25.5199 9.07068 24.6573 9.3427L24.9581 10.2964ZM27.6509 8.66278L28.3578 9.37009C29.2247 8.5036 29.8702 7.44098 30.2395 6.2722L29.286 5.97091L28.3324 5.66962C28.0599 6.53204 27.5837 7.31612 26.944 7.95548L27.6509 8.66278ZM29.286 5.97091L30.2395 6.2722C30.6088 5.10341 30.6911 3.86285 30.4794 2.65553L29.4944 2.82825L28.5094 3.00097C28.6656 3.89182 28.6049 4.8072 28.3324 5.66962L29.286 5.97091Z" fill="url(#paint2_linear_1350_10200)" mask="url(#path-2-outside-1_1350_10200)"/>
<path d="M43.8427 30.8516C48.3772 29.6366 51.0681 24.9758 49.8531 20.4413C48.6381 15.9068 43.9773 13.2159 39.4428 14.4309C34.9083 15.6459 32.2174 20.3068 33.4324 24.8412C34.6474 29.3757 39.3083 32.0666 43.8427 30.8516Z" fill="#1A1A1A"/>
</g>
</g>
</g>
<defs>
<filter id="filter0_d_1350_10200" x="-34" y="-49" width="152.818" height="152.818" filterUnits="userSpaceOnUse" color-interpolation-filters="sRGB">
<feFlood flood-opacity="0" result="BackgroundImageFix"/>
<feColorMatrix in="SourceAlpha" type="matrix" values="0 0 0 0 0 0 0 0 0 0 0 0 0 0 0 0 0 0 127 0" result="hardAlpha"/>
<feOffset dy="4"/>
<feGaussianBlur stdDeviation="7"/>
<feComposite in2="hardAlpha" operator="out"/>
<feColorMatrix type="matrix" values="0 0 0 0 1 0 0 0 0 1 0 0 0 0 1 0 0 0 0.1 0"/>
<feBlend mode="normal" in2="BackgroundImageFix" result="effect1_dropShadow_1350_10200"/>
<feBlend mode="normal" in="SourceGraphic" in2="effect1_dropShadow_1350_10200" result="shape"/>
</filter>
<filter id="filter1_i_1350_10200" x="13.1084" y="-5.90527" width="57.0693" height="58.0894" filterUnits="userSpaceOnUse" color-interpolation-filters="sRGB">
<feFlood flood-opacity="0" result="BackgroundImageFix"/>
<feBlend mode="normal" in="SourceGraphic" in2="BackgroundImageFix" result="shape"/>
<feColorMatrix in="SourceAlpha" type="matrix" values="0 0 0 0 0 0 0 0 0 0 0 0 0 0 0 0 0 0 127 0" result="hardAlpha"/>
<feOffset dy="1"/>
<feGaussianBlur stdDeviation="0.55"/>
<feComposite in2="hardAlpha" operator="arithmetic" k2="-1" k3="1"/>
<feColorMatrix type="matrix" values="0 0 0 0 1 0 0 0 0 1 0 0 0 0 1 0 0 0 0.6 0"/>
<feBlend mode="normal" in2="shape" result="effect1_innerShadow_1350_10200"/>
</filter>
<radialGradient id="paint0_radial_1350_10200" cx="0" cy="0" r="1" gradientUnits="userSpaceOnUse" gradientTransform="translate(30.1278 39.911) rotate(45) scale(70.8915 77.1306)">
<stop stop-color="#050505"/>
<stop offset="1" stop-color="#2D2D2D"/>
</radialGradient>
<linearGradient id="paint1_linear_1350_10200" x1="34.3203" y1="-4.67921" x2="48.9604" y2="49.9585" gradientUnits="userSpaceOnUse">
<stop stop-color="#FFF4AE"/>
<stop offset="1" stop-color="#FEE440"/>
</linearGradient>
<linearGradient id="paint2_linear_1350_10200" x1="34.3203" y1="-4.67921" x2="48.9604" y2="49.9585" gradientUnits="userSpaceOnUse">
<stop stop-color="#FEE440"/>
<stop offset="1" stop-color="white"/>
</linearGradient>
<clipPath id="clip0_1350_10200">
<rect x="-20" y="-10.2168" width="100.256" height="100.256" rx="16" transform="rotate(-16.6844 -20 -10.2168)" fill="white"/>
</clipPath>
<clipPath id="clip1_1350_10200">
<rect width="68" height="68" fill="white" transform="translate(0 -1.40039) rotate(-15)"/>
</clipPath>
</defs>
</svg>
