<svg width="78" height="78" viewBox="0 0 78 78" fill="none" xmlns="http://www.w3.org/2000/svg">
<g opacity="0.05">
<path d="M38.9997 16.2504C39.0035 14.9505 38.7474 13.663 38.2463 12.4635C37.7453 11.264 37.0094 10.1769 36.0821 9.26598C35.1547 8.35507 34.0546 7.63879 32.8463 7.15928C31.6381 6.67977 30.3462 6.44671 29.0466 6.4738C27.7469 6.50089 26.4658 6.78758 25.2786 7.31702C24.0914 7.84646 23.0221 8.60796 22.1335 9.55672C21.2449 10.5055 20.555 11.6224 20.1044 12.8417C19.6537 14.0609 19.4514 15.358 19.5094 16.6567C17.5991 17.1479 15.8256 18.0673 14.3232 19.3454C12.8208 20.6235 11.629 22.2267 10.8379 24.0337C10.0469 25.8406 9.67741 27.8038 9.75746 29.7747C9.8375 31.7455 10.365 33.6723 11.2999 35.4092C9.65603 36.7447 8.36333 38.4616 7.53429 40.4107C6.70526 42.3597 6.365 44.4818 6.54312 46.5924C6.72125 48.7029 7.41235 50.7379 8.55631 52.5205C9.70027 54.303 11.2625 55.779 13.1069 56.8202C12.8792 58.5824 13.0151 60.3727 13.5063 62.0804C13.9976 63.788 14.8337 65.3769 15.963 66.7488C17.0923 68.1206 18.4909 69.2464 20.0724 70.0566C21.6539 70.8668 23.3847 71.3442 25.1579 71.4592C26.9311 71.5743 28.709 71.3246 30.382 70.7256C32.0549 70.1266 33.5872 69.191 34.8844 67.9766C36.1816 66.7622 37.216 65.2947 37.9238 63.6649C38.6316 62.035 38.9978 60.2773 38.9997 58.5004V16.2504Z" fill="#666666"/>
<path d="M29.2498 42.2502C31.9784 41.2904 34.3611 39.543 36.0965 37.229C37.832 34.915 38.8424 32.1384 38.9998 29.2502" fill="#666666"/>
<path d="M19.5094 16.6567C19.5737 18.2288 20.0178 19.7619 20.8033 21.1252L19.5094 16.6567Z" fill="#666666"/>
<path d="M11.2999 35.4092C11.8945 34.9249 12.531 34.4973 13.2015 34.1252L11.2999 35.4092Z" fill="#666666"/>
<path d="M19.4997 58.4999C17.2599 58.5009 15.0578 57.9205 13.1069 56.8202L19.4997 58.4999Z" fill="#666666"/>
</g>
<path opacity="0.05" d="M42.25 42.25H50.375M50.375 42.25C50.375 43.1475 51.1025 43.875 52 43.875C52.8975 43.875 53.625 43.1475 53.625 42.25C53.625 41.3525 52.8975 40.625 52 40.625C51.1025 40.625 50.375 41.3525 50.375 42.25ZM65 66.625V65C65 63.2761 64.3152 61.6228 63.0962 60.4038C61.8772 59.1848 60.2239 58.5 58.5 58.5H42.25M65 66.625C64.1025 66.625 63.375 67.3525 63.375 68.25C63.375 69.1475 64.1025 69.875 65 69.875C65.8975 69.875 66.625 69.1475 66.625 68.25C66.625 67.3525 65.8975 66.625 65 66.625ZM42.25 26H63.375M63.375 26C63.375 26.8975 64.1025 27.625 65 27.625C65.8975 27.625 66.625 26.8975 66.625 26C66.625 25.1025 65.8975 24.375 65 24.375C64.1025 24.375 63.375 25.1025 63.375 26ZM52 26V16.25C52 13.9224 54.0755 9.75 56.875 9.75M56.875 9.75C56.875 10.6475 57.6025 11.375 58.5 11.375C59.3975 11.375 60.125 10.6475 60.125 9.75C60.125 8.85254 59.3975 8.125 58.5 8.125C57.6025 8.125 56.875 8.85254 56.875 9.75Z" stroke="#1A1A1A" stroke-width="2" stroke-linecap="round" stroke-linejoin="round"/>
</svg>
