<svg width="80" height="22" viewBox="0 0 80 22" fill="none" xmlns="http://www.w3.org/2000/svg">
<path fill-rule="evenodd" clip-rule="evenodd" d="M14.146 5.32447H11.8623C7.28383 5.32447 3.37361 16.6867 8.77665 16.6759H12.2521C14.2575 16.6759 15.7389 17.3912 15.0815 19.327L14.1797 21.989H10.4921L7.49545 21.9557C3.66309 21.923 1.19004 20.0641 0.299149 17.2483C-0.670109 14.2014 0.699922 7.85387 4.64358 3.78414C6.9382 1.41934 10.1132 0 14.1797 0H21.6989L20.518 3.33346C19.8086 5.3521 18.3962 5.33605 17.4969 5.32583C17.4358 5.32514 17.377 5.32447 17.321 5.32447H14.146ZM55.6871 8.34939H43.5778C41.573 8.34939 40.6703 8.89888 40.3027 10.0319L39.1665 13.6618H51.276C53.2809 13.6618 54.1833 13.112 54.5511 11.9788L55.6871 8.34939ZM40.6259 16.6867H52.7351L51.5987 20.3174C51.2311 21.4501 50.3287 21.9999 48.3236 21.9999H36.2141L37.3508 18.37C37.7184 17.2372 38.6205 16.6867 40.6259 16.6867ZM46.3855 0.021924H58.4945L57.3583 3.65256C56.9905 4.78481 56.0881 5.3353 54.0832 5.3353H41.9737L43.1099 1.70542C43.4775 0.572418 44.3802 0.021924 46.3855 0.021924ZM28.0486 5.31352H31.0677C33.6411 5.31352 33.0506 8.48139 31.7472 11.5724C30.5995 14.2893 28.5722 16.6977 26.1548 16.6977H21.1308C19.1254 16.6977 18.2008 17.2482 17.8108 18.3815L16.5745 22H20.2619L23.8602 21.9667C27.0572 21.9448 29.664 21.7137 32.7275 18.9967C35.9584 16.126 39.7234 8.67925 39.0773 4.37839C38.5762 1.00107 36.738 0.0109825 32.2818 0.0109825H24.1721L19.4486 13.6508H22.4452H22.491C24.2433 13.651 25.138 13.6511 26.0769 11.1542L28.0486 5.31352ZM59.3746 21.9999H53.6596L61.3463 1.06986e-05H67.0613L63.7859 9.47133H63.8525C64.5351 8.62169 65.2263 7.90197 65.9107 7.18942C65.9972 7.09933 66.0836 7.00936 66.1699 6.91925L72.7538 1.06986e-05H79.7607L68.9214 9.71306L73.4331 21.9999H69.0552C67.6517 21.9999 67.0166 21.1532 66.3925 19.2174L64.3761 12.9578L61.8252 15.0811L59.3746 21.9999Z" fill="#1A1A1A"/>
</svg>
