<svg width="97" height="45" viewBox="0 0 97 45" fill="none" xmlns="http://www.w3.org/2000/svg">
<g clip-path="url(#clip0_1350_10308)">
<path d="M16.1876 34.3978C15.1105 31.819 12.2436 29.8761 8.63177 29.7976C5.01995 29.7177 0 29.7976 0 29.7976C0 29.7976 0.812432 30.0682 0.828006 31.7703C0.844878 33.4738 0.878621 43.2966 0.878621 43.2966C0.878621 43.2966 0.844878 44.49 0 44.8092L8.13471 44.7456C8.13471 44.7456 12.4928 44.8092 14.6796 42.294C16.8664 39.7787 17.2635 36.9767 16.1876 34.3978ZM11.692 43.0634C10.3215 43.955 8.4332 44.6122 3.45738 44.4638V30.0619C3.45738 30.0619 8.83553 29.9534 10.084 30.4335C11.7141 31.0595 13.9892 32.6832 14.1657 36.186C14.3422 39.6877 13.0612 42.1717 11.692 43.0634Z" fill="#1A1A1A"/>
<path d="M28.7014 39.901C28.6793 39.1153 28.8558 37.4805 27.3984 36.0801C25.9396 34.6784 22.9144 34.5724 21.4116 35.1199C19.91 35.6661 18.8497 35.1199 18.8497 35.1199V37.9481C19.313 36.8233 20.882 35.2733 23.5101 35.2097C26.1395 35.1461 26.3822 39.1365 26.3822 39.1365C24.2836 36.0165 18.6277 38.0753 18.1203 40.0493C17.6116 42.0234 18.4071 44.5698 21.566 44.9526C24.7249 45.3342 26.3601 43.2966 26.3601 43.2966C26.6469 45.3342 29.519 44.7182 29.519 44.7182C28.2381 44.1246 28.7234 40.6853 28.7014 39.901ZM26.316 42.5322C26.316 42.5322 25.2777 44.4638 23.344 44.4538C21.4116 44.4426 20.3629 43.2006 20.2409 41.2802C20.1189 39.3597 21.6218 38.0641 23.5218 37.9905C25.4205 37.9157 26.316 39.8049 26.316 39.8049V42.5322Z" fill="#1A1A1A"/>
<path d="M54.5471 39.901C54.525 39.1153 54.7015 37.4805 53.2441 36.0801C51.7853 34.6784 48.7601 34.5724 47.2573 35.1199C45.7557 35.6661 44.6954 35.1199 44.6954 35.1199V37.9481C45.1587 36.8233 46.7277 35.2733 49.3558 35.2097C51.9852 35.1461 52.2279 39.1365 52.2279 39.1365C50.1293 36.0165 44.4734 38.0753 43.966 40.0493C43.4573 42.0234 44.2528 44.5698 47.4117 44.9526C50.5706 45.3342 52.2058 43.2966 52.2058 43.2966C52.4926 45.3342 55.3647 44.7182 55.3647 44.7182C54.0838 44.1246 54.5691 40.6853 54.5471 39.901ZM52.1617 42.5322C52.1617 42.5322 51.1234 44.4638 49.1897 44.4538C47.2573 44.4426 46.2086 43.2006 46.0866 41.2802C45.9646 39.3597 47.4675 38.0641 49.3675 37.9905C51.2662 37.9157 52.1617 39.8049 52.1617 39.8049V42.5322Z" fill="#1A1A1A"/>
<path d="M96.1828 39.901C96.1608 39.1153 96.3373 37.4805 94.8798 36.0801C93.4211 34.6784 90.3959 34.5724 88.893 35.1199C87.3914 35.6661 86.3311 35.1199 86.3311 35.1199V37.9481C86.7944 36.8233 88.3635 35.2733 90.9916 35.2097C93.6209 35.1461 93.8636 39.1365 93.8636 39.1365C91.7651 36.0165 86.1092 38.0753 85.6017 40.0493C85.093 42.0234 85.8886 44.5698 89.0474 44.9526C92.2063 45.3342 93.8416 43.2966 93.8416 43.2966C94.1284 45.3342 97.0004 44.7182 97.0004 44.7182C95.7195 44.1246 96.2049 40.6853 96.1828 39.901ZM93.7974 42.5322C93.7974 42.5322 92.7592 44.4638 90.8254 44.4538C88.893 44.4426 87.8444 43.2006 87.7224 41.2802C87.6004 39.3597 89.1032 38.0641 91.0032 37.9905C92.9019 37.9157 93.7974 39.8049 93.7974 39.8049V42.5322Z" fill="#1A1A1A"/>
<path d="M30.7334 44.7506C30.7334 44.7506 31.7158 44.2842 31.6938 42.9673C31.6717 41.6505 31.8378 37.4805 31.6938 37.0876C31.5497 36.6948 31.1085 36.1748 30.7983 36.0264L34.013 35.1772V36.4404C34.013 36.4404 35.7806 34.8904 37.9999 34.9116C40.2191 34.9328 41.2249 35.6436 41.3573 37.862C41.4897 40.0805 41.3573 43.2429 41.3573 43.2429C41.3573 43.2429 41.3911 44.5373 42.2191 44.7506H38.0998C38.0998 44.7506 38.9615 44.4002 38.9615 43.5198V37.3645C38.9615 37.3645 38.9732 35.6236 37.7909 35.4964C36.6086 35.3692 35.1512 35.8681 34.0026 36.8233V42.9786C34.0026 42.9786 33.9364 44.1146 34.9305 44.7506H30.7334Z" fill="#1A1A1A"/>
<path d="M71.7161 29.7676C72.2352 30.2876 71.7822 31.1468 71.7822 31.1468C71.7822 31.1468 65.1543 44.233 65.0388 44.233C64.9233 44.233 64.5249 43.2778 64.1277 42.6094C63.7306 41.941 64.1277 42.355 64.2939 41.5744C64.4587 40.795 63.8292 40.6828 63.3659 40.4284C62.9013 40.174 62.7521 39.6802 62.6859 39.139C62.6197 38.5977 62.5535 36.0501 62.4211 35.1198C62.2887 34.1883 60.6976 33.4401 60.1019 32.0235C59.5049 30.6056 58.0643 29.0518 57.6335 28.447C57.2026 27.8409 56.738 27.311 56.9482 26.9817C57.1585 26.6525 57.5335 25.7397 57.3012 24.9117C57.0702 24.0849 56.3071 23.3941 55.2688 22.8741C54.2306 22.354 53.9438 21.7181 53.8893 21.3041C53.8335 20.89 54.8717 19.4036 55.2247 19.022C55.579 18.6404 55.3792 17.876 55.5128 17.4944C55.6452 17.1116 56.407 17.144 57.4557 16.9956C58.5056 16.846 58.638 17.1228 59.3998 17.2076C60.1629 17.2924 64.2043 16.9158 64.9337 16.9158C65.663 16.9158 65.6072 17.3086 66.0381 17.9658C66.469 18.6242 66.3029 19.017 66.6014 19.123C66.8999 19.229 66.7896 18.4858 66.6131 18.2002C66.4366 17.9134 66.4145 17.8498 66.7779 17.7962C67.1426 17.7438 67.894 19.441 67.9939 19.7602C68.0926 20.0782 68.2911 20.0246 68.3132 19.2614C68.3353 18.497 67.3191 17.3298 66.7896 16.7986C66.2587 16.2686 65.5086 16.2262 64.338 15.8646C63.1661 15.5042 60.1188 15.791 58.9248 15.8222C57.7321 15.8546 57.9865 15.7274 57.2467 15.4406C56.507 15.1537 55.435 15.0054 55.1482 14.9729C54.86 14.9418 55.1923 14.1985 55.3247 13.7745C55.457 13.3493 56.2188 13.3605 57.2688 13.2433C58.3174 13.1261 58.9144 12.4901 59.0027 11.9377C59.0909 11.3865 58.5393 11.0785 58.6821 10.4949C58.8262 9.91127 59.8423 9.99607 60.0072 9.15683C60.1733 8.31883 59.3998 7.5332 58.8482 7.37483C58.2954 7.21521 57.8982 5.9632 57.5011 5.01796C57.1027 4.07397 55.6997 3.58513 53.6232 3.09755C51.5467 2.60872 51.3378 1.66472 50.454 0.921497C49.5701 0.178272 47.957 0.688304 47.957 0.688304C48.5864 0.763125 50.0672 2.36555 50.6188 2.86436C51.1716 3.36316 53.182 3.87195 53.182 3.87195C52.5525 4.02034 52.1762 3.73478 51.5805 3.47914C50.9835 3.22475 50.685 3.41554 49.2937 3.58513C47.9025 3.75598 47.482 2.97035 47.1406 2.08871C46.798 1.20831 45.373 1.76074 43.9701 1.78194C42.5671 1.80314 42.8215 1.21829 42.2024 0.518709C41.5847 -0.182117 40.0156 0.0298767 40.0156 0.0298767C41.2966 0.316692 41.2641 1.89791 41.9598 3.38436C42.6554 4.86957 45.1303 4.38198 45.8039 4.41316C46.4774 4.44558 46.6656 5.09278 47.1848 6.28119C47.7039 7.4696 49.9063 7.1778 50.6577 7.2838C51.4091 7.3898 51.5636 8.10184 51.5415 8.61063C51.5195 9.12066 52.1385 9.51347 52.1385 9.51347C50.9445 9.58705 50.2165 8.55825 49.0121 8.20784C47.8077 7.85743 47.5988 8.20784 46.1738 8.32381C44.7488 8.44103 44.0973 7.84621 44.0973 7.84621C44.3958 9.36383 47.3106 8.49466 48.371 8.54703C49.4313 8.60065 50.415 9.56585 51.1548 9.85266C51.8945 10.1395 53.5739 9.73544 53.5739 9.73544C53.5739 9.73544 53.8166 9.90504 52.4695 10.1919C51.1223 10.4787 50.8783 10.3091 49.7739 9.47107C48.6695 8.63183 46.9252 9.17304 46.9252 9.17304C48.6033 8.99346 49.5091 9.41745 50.0841 10.0859C50.6577 10.7543 51.766 10.6383 52.1813 10.5547C52.5954 10.4712 52.5824 10.3677 52.7861 10.5547C52.9886 10.7418 52.5785 11.2107 52.4124 11.2668C52.2475 11.3229 52.1061 11.49 52.206 11.6683C52.3046 11.8479 52.1969 12.0387 52.1191 12.106C52.0399 12.1746 52.0606 12.3068 52.0944 12.4664C52.1268 12.6248 51.9374 12.6385 51.9218 12.9677C51.9049 13.2969 53.2248 13.0475 53.3624 13.1373C53.5012 13.2271 53.2793 14.7235 52.7057 15.5416C52.1307 16.3584 49.7947 17.9558 49.8505 18.1778C49.905 18.401 50.0322 18.1703 50.049 18.7227C50.0659 19.2739 50.7784 19.7627 50.8667 19.9635C50.9549 20.1655 50.6395 20.5558 51.1042 22.0049C51.5675 23.4527 52.6447 24.3131 52.8601 24.7745C53.0755 25.2359 52.1476 25.2521 51.2534 25.7459C50.3579 26.2385 47.3703 28.553 46.9239 29.7938C46.4762 31.0358 47.238 31.2752 47.8505 31.2191C48.4644 31.163 48.8953 31.37 50.3034 31.466C51.7115 31.5608 52.6888 31.471 53.4506 31.2902C54.2137 31.1106 54.3902 31.3226 54.9418 31.365C55.4947 31.4074 55.7594 31.8426 56.3123 31.8314C56.8639 31.8214 56.9197 32.0023 57.4388 32.7442C57.9579 33.4875 58.6587 34.0711 59.2713 34.4377C59.8852 34.8031 59.7022 34.9789 59.8021 35.6311C59.9021 36.2845 60.3161 37.2709 60.8793 37.8919C61.4426 38.513 61.6243 40.4546 61.7735 41.3462C61.9227 42.2378 63.3867 43.6519 64.0654 44.2966C64.7442 44.9413 65.1089 44.8466 65.1089 44.8466C65.1089 44.8466 71.9367 31.7952 72.3896 30.9672C72.8426 30.1392 73.7588 29.7676 73.7588 29.7676H71.7161ZM52.7238 29.2052C53.618 29.0306 54.1073 28.2574 54.1073 28.2574L55.5063 30.2564L52.7238 29.2052Z" fill="#1A1A1A"/>
<path d="M73.9642 36.0514C73.9642 36.0514 74.9246 36.7996 74.8753 37.5154C74.8259 38.2312 74.8765 43.3103 74.8765 43.3103C74.8765 43.3103 74.8584 44.2493 73.9629 44.7431H78.138C78.138 44.7431 77.2438 44.2019 77.21 43.5335C77.1763 42.8651 77.21 35.1199 77.21 35.1199L73.9629 36.0514H73.9642Z" fill="#1A1A1A"/>
<path d="M76.0571 33.6546C76.9079 33.6546 77.5976 32.9919 77.5976 32.1744C77.5976 31.3569 76.9079 30.6942 76.0571 30.6942C75.2063 30.6942 74.5166 31.3569 74.5166 32.1744C74.5166 32.9919 75.2063 33.6546 76.0571 33.6546Z" fill="#1A1A1A"/>
<path d="M79.9142 32.6844C79.9142 32.6844 80.7267 33.2817 80.6267 33.9339C80.5268 34.5861 80.0635 34.929 79.4756 35.0886V35.3667H80.4451V43.1195C80.4451 43.1195 80.4373 45.3317 83.783 44.7431C83.783 44.7431 82.8058 44.4089 82.7396 42.7853C82.6734 41.1616 82.7396 35.3829 82.7396 35.3829H83.966V35.1198H80.8175C80.8175 35.1198 82.9382 34.0935 82.7565 32.1033L79.9155 32.6844H79.9142Z" fill="#1A1A1A"/>
</g>
<defs>
<clipPath id="clip0_1350_10308">
<rect width="97" height="45" fill="white"/>
</clipPath>
</defs>
</svg>
