<svg width="78" height="78" viewBox="0 0 78 78" fill="none" xmlns="http://www.w3.org/2000/svg">
<path opacity="0.05" d="M27.625 47.125C29.7799 47.125 31.8465 46.269 33.3702 44.7452C34.894 43.2215 35.75 41.1549 35.75 39C35.75 34.515 34.125 32.5 32.5 29.25C29.016 22.2853 31.772 16.0745 39 9.75C40.625 17.875 45.5 25.675 52 30.875C58.5 36.075 61.75 42.25 61.75 48.75C61.75 51.7376 61.1616 54.6959 60.0183 57.456C58.875 60.2162 57.1992 62.7241 55.0867 64.8367C52.9741 66.9492 50.4662 68.625 47.706 69.7683C44.9459 70.9116 41.9876 71.5 39 71.5C36.0124 71.5 33.0541 70.9116 30.294 69.7683C27.5338 68.625 25.0259 66.9492 22.9133 64.8367C20.8008 62.7241 19.125 60.2162 17.9817 57.456C16.8384 54.6959 16.25 51.7376 16.25 48.75C16.25 45.0028 17.6573 41.2945 19.5 39C19.5 41.1549 20.356 43.2215 21.8798 44.7452C23.4035 46.269 25.4701 47.125 27.625 47.125Z" fill="#FEFEFE"/>
</svg>
