<svg width="121" height="19" viewBox="0 0 121 19" fill="none" xmlns="http://www.w3.org/2000/svg">
<g clip-path="url(#clip0_1350_10378)">
<path d="M16.2275 15.3908V19H0V0H3.69262V15.3908H16.2275Z" fill="#1A1A1A"/>
<path d="M35.1717 0V10.8882C35.1717 15.3675 31.4585 19 26.8761 19H25.2538C20.897 19 17.3633 15.5462 17.3633 11.2844V0H21.1767V11.4833C21.1767 13.9257 23.2025 15.9066 25.7003 15.9066H26.4105C29.0545 15.9066 31.1979 13.8107 31.1979 11.2254V0H35.1733H35.1717Z" fill="#1A1A1A"/>
<path d="M40.3378 9.40134V9.50699C40.3378 12.793 43.0627 15.4576 46.4233 15.4576H51.2107V19H46.0499C40.7445 19 36.4434 14.7942 36.4434 9.60643C36.4434 4.3006 40.8415 0 46.2676 0H51.2107V3.50356H46.3693C43.0389 3.50356 40.3378 6.14482 40.3378 9.40134Z" fill="#1A1A1A"/>
<path d="M70.533 0H53.4951V3.39791H70.533V0Z" fill="#1A1A1A"/>
<path d="M86.3154 10.4268V19H82.313V10.8494C82.313 6.73367 79.6992 3.39791 75.4918 3.39791H72.4824V0H75.924C81.8125 0 86.3154 4.66727 86.3154 10.4268Z" fill="#1A1A1A"/>
<path d="M70.533 7.45764H53.4951V10.8555H70.533V7.45764Z" fill="#1A1A1A"/>
<path d="M70.533 15.6021H53.4951V19H70.533V15.6021Z" fill="#1A1A1A"/>
<path d="M121 0H103.962V3.39791H121V0Z" fill="#1A1A1A"/>
<path d="M102.502 0V3.39791H95.7209V19H92.2459V3.39791H85.4629V0H102.502Z" fill="#1A1A1A"/>
<path d="M121 7.45764H103.962V10.8555H121V7.45764Z" fill="#1A1A1A"/>
<path d="M121 15.6021H103.962V19H121V15.6021Z" fill="#1A1A1A"/>
</g>
<defs>
<clipPath id="clip0_1350_10378">
<rect width="121" height="19" fill="white"/>
</clipPath>
</defs>
</svg>
