<svg width="147" height="27" viewBox="0 0 147 27" fill="none" xmlns="http://www.w3.org/2000/svg">
<g clip-path="url(#clip0_1350_10323)">
<path d="M147 4.03381V4.33825L144.381 9.00608C144.334 9.10426 144.045 9.36151 143.973 9.36151H141.52C141.417 9.36151 141.363 9.07457 141.44 8.97944L144.023 4.04675L147 4.03457V4.03381Z" fill="#1A1A1A"/>
<path d="M32.1131 -0.000196453H4.21533C2.89095 6.4349 1.45467 12.851 0 19.2556V19.5601H14.562C28.0641 19.5601 41.5677 19.557 55.0714 19.5639L55.3005 19.4878L59.7036 -0.000196453C50.5081 -0.00171865 41.3087 0.000564647 32.1131 -0.000196453ZM20.4635 15.2979L19.6197 7.00192L15.0985 15.2979H10.6533C10.6571 14.4987 10.6495 13.6981 10.6495 12.8982C10.6495 12.5503 10.8165 12.3753 10.5782 11.9856C10.0723 11.1575 8.31646 11.6096 7.48106 11.4878L6.59124 15.2979H3.75547L6.12602 4.06712C8.03058 4.10898 10.1068 3.89663 11.993 4.03515C14.3881 4.21097 15.7684 5.56725 14.9284 8.01266C14.5682 9.05917 13.7213 9.74796 12.7226 10.1628C12.6284 10.2016 12.4283 10.1894 12.4153 10.1993C12.2628 10.3195 12.4751 10.331 12.5257 10.3576C13.4017 10.8188 13.6209 11.2275 13.5665 12.2535L18.2393 4.07092L22.0285 4.02906L23.5292 15.2979H20.4635ZM24.232 14.4097C22.7582 12.4658 24.4274 9.03557 24.6566 6.86644C24.9402 6.07262 24.9586 4.91498 25.2314 4.16454C25.2514 4.10898 25.2789 4.0656 25.3303 4.03363H28.1277C27.838 6.34813 27.0387 8.64741 26.6907 10.9414C26.4255 12.6927 27.0455 13.3487 28.8551 13.1661C30.2584 13.0245 30.7052 11.9194 31.0026 10.7328C31.5176 8.67634 31.8035 6.54374 32.2664 4.49029C32.2733 4.45985 32.4419 4.03591 32.4657 4.02906C33.3279 4.1204 34.3825 3.92327 35.2187 4.03363C35.3298 4.04809 35.3474 3.99025 35.3291 4.14399C34.742 6.39228 34.4208 8.71211 33.8384 10.9612C33.3739 12.7551 32.4657 14.5779 30.5803 15.2218C28.9961 15.7637 25.3456 15.8786 24.232 14.4097ZM53.501 15.2644L50.2383 15.2233L47.3266 7.99058L45.7478 15.2911L40.7009 15.2941L39.7391 7.00116L35.2172 15.2979H32.1898L38.3365 4.05037L42.2729 4.10517L43.5321 12.9385L45.3753 4.03744L48.6556 4.04657L51.5044 11.3402C51.6209 11.3288 51.6224 11.2275 51.6523 11.1461C51.7642 10.847 51.8501 10.3751 51.926 10.0478C52.3873 8.05376 52.7138 6.0239 53.1898 4.03363H55.9489L53.501 15.2644Z" fill="#1A1A1A"/>
<path d="M134.661 9.28537H131.94C131.702 9.28537 131.897 8.60876 131.901 8.48546C131.951 6.84072 131.384 6.07201 129.637 6.16182C128.437 6.22347 127.743 6.77451 127.249 7.8233C127.055 8.23201 126.96 8.92233 126.801 9.2047C126.641 9.48707 126.513 9.28537 126.422 9.28537H123.931C124.322 7.15353 125.498 5.05442 127.611 4.22559C128.914 3.71413 130.842 3.64563 132.19 4.014C134.747 4.71269 135.156 6.96402 134.661 9.28537Z" fill="#1A1A1A"/>
<path d="M66.2187 4.03381L65.3756 8.44819H66.8318L69.7442 4.03381H73.0399L71.2625 6.49673C70.818 6.74257 69.3388 9.2854 69.0928 9.2854H62.3866C62.2747 8.76557 62.5038 8.38197 62.5943 7.9314C62.8533 6.63145 63.1308 5.33453 63.3829 4.03381H66.2187Z" fill="#1A1A1A"/>
<path d="M93.5035 7.61094H90.821C91.1015 6.01492 89.5319 5.69526 88.2887 6.04764C87.5798 6.24857 86.8463 7.20908 87.4441 7.80578C87.9392 8.3005 89.8285 8.52655 90.588 8.79369C90.8264 8.87741 91.2425 8.99158 91.2809 9.28536H84.9579C84.8076 9.28536 84.416 8.44282 84.3899 8.25103C84.0382 5.68232 86.1581 3.97821 88.557 3.8024C90.0998 3.689 92.3316 3.79403 93.1831 5.30329C93.2314 5.38929 93.5035 6.01035 93.5035 6.05069V7.61094Z" fill="#1A1A1A"/>
<path d="M112.051 4.03381C111.843 4.578 111.819 5.72574 111.576 6.18849C111.549 6.24176 111.537 6.29504 111.466 6.30722L106.08 6.32472C105.939 7.05309 105.698 7.77918 105.689 8.5243H110.517C110.498 8.61487 110.403 9.2854 110.364 9.2854H102.623L103.696 4.03381H112.05H112.051Z" fill="#1A1A1A"/>
<path d="M102.088 7.61101H99.4053C99.6882 5.98073 98.0626 5.68086 96.8133 6.06446C96.1235 6.27604 95.6844 6.91232 95.8959 7.63308C96.0768 8.24881 98.9256 8.59968 99.6146 8.95968C99.6736 8.99088 99.9089 9.17887 99.8652 9.28467H93.5422C93.4633 9.28467 92.9735 8.54716 93.044 8.37135H94.1937C94.2228 7.25253 94.3784 6.23418 93.9737 5.15114C95.3671 3.80018 97.8051 3.54141 99.6383 3.91663C100.671 4.12822 102.088 5.02936 102.088 6.20298V7.61101Z" fill="#1A1A1A"/>
<path d="M79.0184 9.28538C78.7793 8.32107 78.8146 7.30272 78.6735 6.3171C78.2512 6.75549 78.1202 7.34458 77.8573 7.86593C77.7247 8.12927 77.2633 9.16132 77.1223 9.28767C77.0311 9.36987 76.8847 9.42466 76.7605 9.43989C76.4739 9.47566 74.3402 9.46044 74.2666 9.35997L77.2901 4.02771L81.0541 4.10458C81.1974 5.56665 81.4909 7.02492 81.6227 8.48699C81.6358 8.63312 81.7193 9.28538 81.5852 9.28538H79.0177H79.0184Z" fill="#1A1A1A"/>
<path d="M112.128 9.36157L113.205 4.03768C113.619 4.07954 116.404 3.95016 116.505 4.08107L118.453 8.90263L118.482 9.27938C118.37 9.41181 116.048 9.40572 115.785 9.26948C115.42 9.08073 115.339 8.26331 115.156 7.91472C115.067 7.91472 115 9.36157 114.543 9.36157H112.129H112.128Z" fill="#1A1A1A"/>
<path d="M61.2373 26.8668L62.6935 19.8267L62.7656 19.6699C63.9129 19.7407 66.7287 19.2376 67.4791 20.2498C67.9466 20.8808 67.64 22.132 67.0575 22.6382C66.8368 22.83 66.3248 22.9556 66.2957 22.986C66.147 23.1367 66.5486 23.1732 66.6322 23.2212C68.0301 24.0279 67.1449 26.1933 65.8343 26.675C65.6948 26.726 65.2189 26.8668 65.1077 26.8668H61.2373ZM63.0767 22.7569H65.3377C65.8121 22.7569 66.4781 22.2972 66.6398 21.8428C67.3273 19.9089 64.654 20.6015 63.5833 20.469L63.0767 22.7569ZM62.4636 26.0296H64.8778C64.9713 26.0296 65.5239 25.8523 65.6327 25.7899C66.1462 25.4969 66.4873 24.5569 66.2091 24.0226C65.8129 23.263 63.6561 23.5576 62.9181 23.5507C62.8522 23.8407 62.3547 25.9216 62.4636 26.0296Z" fill="#1A1A1A"/>
<path d="M90.5921 25.2686C90.7216 25.3934 90.7224 25.2465 90.7431 25.1552C91.1623 23.3209 91.4076 21.4402 91.9449 19.6334L92.814 19.6364L91.3501 26.8593L90.2204 26.8539L87.5264 21.2347L86.3722 26.8631L85.3789 26.8669L86.9072 19.6707C87.1432 19.6379 87.8813 19.5641 88.0254 19.711L90.5921 25.2693V25.2686Z" fill="#1A1A1A"/>
<path d="M72.0437 13.3192C72.2369 12.9759 73.2738 10.8076 73.5383 10.8076H76.0675C76.2706 10.8076 76.0537 11.1775 76.1449 11.265C77.9099 10.4704 79.9203 10.9149 81.8049 10.8175C81.9942 10.8806 81.9743 11.6805 82.0134 11.9043C82.0961 12.3785 82.1713 12.8313 82.2372 13.3192H79.3248C79.2757 12.8055 79.2427 12.2674 79.1707 11.7574C79.1561 11.6524 79.2152 11.6265 79.0557 11.6433C78.0149 12.1989 76.9657 12.7628 76.0284 13.4714C76.0713 13.2408 75.9111 13.3253 75.764 13.3192C74.5277 13.2705 73.28 13.355 72.043 13.3192H72.0437Z" fill="#1A1A1A"/>
<path d="M99.8654 23.1374C99.7627 24.8628 98.6453 26.7854 96.7645 26.946C93.5363 27.2215 93.0389 25.3834 93.8168 22.6488C94.1686 21.412 94.7802 20.345 96.0065 19.8C97.3784 19.1896 99.8256 19.4621 100.138 21.2309C100.312 22.2104 100.135 22.25 99.1718 22.1122C99.1373 21.8359 99.1718 21.5749 99.0783 21.2933C98.8085 20.4797 97.767 20.3077 97.0113 20.4173C96.5798 20.4804 95.7612 20.8473 95.4968 21.1966C94.7388 22.202 93.8421 25.2426 95.3251 25.9329C96.8082 26.6233 98.584 25.627 98.715 24.0507H96.6074C96.5951 24.0507 96.5146 23.9716 96.5093 23.9396C96.6166 23.6809 96.5645 23.3429 96.7607 23.1374H99.8647H99.8654Z" fill="#1A1A1A"/>
<path d="M137.099 19.5025C140.264 19.4469 140.265 22.0811 139.414 24.3956C138.937 25.691 138.027 26.8197 136.541 26.9468C133.003 27.2489 132.563 24.9656 133.587 22.11C134.155 20.5238 135.361 19.5337 137.1 19.5032L137.099 19.5025ZM136.558 20.4173C135.031 20.6373 134.43 22.1709 134.223 23.502C133.977 25.0866 134.293 26.2329 136.158 26.108C137.982 25.9863 138.76 24.0721 138.875 22.489C138.99 20.9059 138.138 20.189 136.559 20.4173H136.558Z" fill="#1A1A1A"/>
<path d="M72.4911 19.5032C76.3163 19.4278 75.7522 23.7364 74.076 25.8028C72.708 27.4901 68.8483 27.5427 68.5961 25.0021C68.3463 22.4874 69.6208 19.5603 72.4911 19.5032ZM72.0258 20.4173C70.1267 20.676 69.4116 23.1565 69.5909 24.7745C69.7741 26.4254 72.0021 26.4132 73.0414 25.5356C73.9342 24.7822 74.6202 22.4174 74.1933 21.3458C73.8415 20.4622 72.8904 20.2993 72.0251 20.4173H72.0258Z" fill="#1A1A1A"/>
<path d="M129.512 19.5025C132.669 19.4469 132.698 22.0833 131.826 24.3956C131.33 25.7115 130.473 26.8159 128.954 26.9468C126.38 27.1682 125.217 26.0852 125.64 23.5036C125.992 21.3489 127.097 19.5458 129.512 19.5032L129.512 19.5025ZM128.971 20.4173C127.445 20.6373 126.842 22.1754 126.635 23.502C126.361 25.2655 126.859 26.3554 128.854 26.086C129.834 25.9535 130.551 25.0927 130.887 24.2228C131.602 22.3688 131.661 20.0291 128.971 20.4173Z" fill="#1A1A1A"/>
<path d="M119.486 22.7569H123.241L123.889 19.7095C123.999 19.555 124.638 19.6714 124.851 19.6364C124.487 22.0453 123.874 24.4275 123.404 26.8235L122.399 26.8668L123.089 23.671H119.295L118.608 26.7945C118.497 26.9513 117.792 26.8303 117.57 26.8668L119.094 19.6805C119.147 19.6029 120.051 19.5786 120.081 19.7475L119.486 22.7569Z" fill="#1A1A1A"/>
<path d="M109.751 21.8428L108.832 21.8444C109.062 20.3595 107.569 20.052 106.434 20.4896C105.588 20.8154 105.048 21.9684 106.073 22.4144C106.989 22.8132 109.02 22.7904 109.208 24.0957C109.415 25.5311 108.472 26.7672 107.022 26.9346C105.811 27.0754 103.803 27.032 103.62 25.4588C103.502 24.4481 103.694 24.5546 104.617 24.5828C104.171 27.0031 108.712 26.5442 108.203 24.3324C107.96 23.2806 104.79 23.6801 104.545 22.1808C104.194 20.0276 106.504 19.2498 108.252 19.5656C109.434 19.7795 109.971 20.7004 109.751 21.8421L109.751 21.8428Z" fill="#1A1A1A"/>
<path d="M115.584 24.2106C115.649 24.1543 116.402 24.2349 116.573 24.203C116.137 26.3112 114.535 27.1005 112.469 26.946C109.056 26.6902 110.42 21.1989 112.536 20.004C114.039 19.1554 116.861 19.2946 117.035 21.4219C117.096 22.1678 117.093 22.4585 116.227 22.3002C115.914 22.2424 116.068 21.839 116.029 21.5833C115.808 20.1577 113.821 20.1494 112.855 20.8541C111.837 21.597 111.264 23.6915 111.471 24.8918C111.773 26.64 114.316 26.3409 115.192 25.1536C115.376 24.9047 115.544 24.2433 115.583 24.2098L115.584 24.2106Z" fill="#1A1A1A"/>
<path d="M110.135 13.3192C109.989 13.9738 109.91 14.6458 109.752 15.2981H101.321C101.425 14.6352 101.57 13.976 101.705 13.3192H110.135Z" fill="#1A1A1A"/>
<path d="M74.8027 26.8668L77.9336 23.158L76.5655 19.6371C76.8138 19.679 77.5381 19.545 77.6776 19.7125L78.8272 22.4539C79.0372 22.4539 80.8192 20.1775 81.1664 19.8266C81.23 19.7627 81.23 19.6371 81.2407 19.6371H82.467L79.5668 23.1108L81.164 26.8676H80.0144L78.6732 23.6702C77.827 24.7707 76.9089 25.8233 75.9907 26.8676H74.8027V26.8668Z" fill="#1A1A1A"/>
<path d="M128.912 13.167C128.869 13.3976 129.029 13.3131 129.176 13.3192C130.464 13.3695 131.763 13.2819 133.051 13.3192C132.608 13.9312 132.296 14.3452 131.618 14.7509C129.647 15.929 125.474 16.009 124.145 13.8292C124.041 13.6579 124.054 13.4928 124.007 13.3946C124.512 13.1579 127.806 13.4578 127.993 13.3185C128.01 13.3063 127.976 13.1784 127.993 13.1663C128.03 13.1389 128.751 13.1792 128.913 13.1663L128.912 13.167Z" fill="#1A1A1A"/>
<path d="M88.8283 13.3192C89.7633 13.3329 90.7451 13.3839 91.7031 13.3938C91.8327 13.3953 92.0442 13.3451 92.1239 13.4714C90.8946 15.413 88.6589 15.671 86.4869 15.5302C84.9931 15.4328 83.6358 14.9114 83.2334 13.3953C84.2083 13.2651 85.2721 13.3062 86.2669 13.3222C86.3642 13.3237 86.4424 13.2431 86.4524 13.2431C87.1422 13.2393 88.0634 13.3078 88.8283 13.3192Z" fill="#1A1A1A"/>
<path d="M138.876 9.2854H136.27L135.58 4.03381H138.454C138.497 4.03381 138.572 4.16168 138.569 4.22409C138.486 4.60159 139.142 9.2854 138.876 9.2854Z" fill="#1A1A1A"/>
<path d="M123.777 4.03381L122.76 8.84624C122.738 9.00075 122.509 9.36151 122.36 9.36151H119.945L121.018 4.03381H123.777Z" fill="#1A1A1A"/>
<path d="M97.5659 13.2432C98.458 13.2485 99.4375 13.3086 100.364 13.3178C100.494 13.3193 100.705 13.2691 100.785 13.3954C99.5525 15.6163 95.6598 16.0532 93.4832 15.2045C93.2464 15.1124 92.3849 14.652 92.4608 14.3833C92.5259 14.1527 92.9934 13.6291 93.1214 13.3193C93.6855 13.4403 94.2718 13.3931 94.8474 13.3946C94.9685 13.3946 95.098 13.32 95.1908 13.3193C95.9909 13.3178 96.8562 13.2394 97.5667 13.2432H97.5659Z" fill="#1A1A1A"/>
<path d="M136.807 13.6998C136.653 12.8101 136.537 11.8983 136.5 10.9979C136.497 10.9355 136.571 10.8076 136.615 10.8076H139.029C139.241 11.4766 139.203 12.1532 139.259 12.8261C139.268 12.9395 139.199 13.0452 139.373 13.0156C139.773 12.2803 140.088 11.4766 140.6 10.8076H143.13C143.465 10.8076 142.917 11.6334 142.858 11.7392C142.575 12.2469 142.238 12.7918 141.942 13.3192H136.883C136.952 13.4684 136.807 13.6792 136.807 13.6998Z" fill="#1A1A1A"/>
<path d="M70.2813 13.3193C70.3465 13.4829 70.5036 13.572 70.5327 13.6435C70.6002 13.8109 70.9259 14.9176 71.0102 14.9183C71.1359 14.9366 71.1635 14.8224 71.2164 14.7425C71.4869 14.3323 71.7973 13.7592 72.0441 13.3193C73.2804 13.355 74.5281 13.2706 75.7651 13.3193C75.913 13.3254 76.0724 13.2409 76.0295 13.4715C75.3037 14.0202 74.6369 14.658 73.9824 15.2821L67.9522 15.3027C67.7644 14.7463 67.5958 14.1801 67.4034 13.6237C67.3659 13.5156 67.3904 13.384 67.3682 13.3193H70.2806H70.2813Z" fill="#1A1A1A"/>
<path d="M117.339 13.3192C117.154 12.8732 116.36 11.3769 116.416 11.0002C116.426 10.9355 116.484 10.8076 116.535 10.8076H119.179C119.206 10.8076 119.298 11.2749 119.333 11.3404C119.567 11.332 119.607 10.8076 119.639 10.8076H122.245C122.192 11.7392 121.907 12.6426 121.708 13.5476L121.368 13.3139L117.339 13.3192Z" fill="#1A1A1A"/>
<path d="M140.562 26.8669C140.84 26.0433 141.788 19.8815 142.091 19.6699C142.171 19.6136 142.77 19.6159 142.902 19.6357C143.007 19.6509 143.033 19.5923 143.017 19.7506L141.741 25.8721C141.695 25.9277 141.808 26.0296 141.827 26.0296H145.314C145.318 26.121 145.28 26.8669 145.238 26.8669H140.562Z" fill="#1A1A1A"/>
<path d="M101.704 13.3192C101.877 12.4729 101.995 11.6014 102.356 10.8076H105.076L104.693 13.0148H110.211C110.27 13.1526 110.149 13.2538 110.135 13.3192H101.704Z" fill="#1A1A1A"/>
<path d="M141.942 13.3192C141.598 13.9311 141.273 14.5583 140.938 15.1763L140.755 15.2988H136.96C137.003 14.8041 136.784 14.1716 136.807 13.7005C136.808 13.68 136.953 13.4692 136.884 13.32H141.943L141.942 13.3192Z" fill="#1A1A1A"/>
<path d="M124.007 13.3954C123.995 13.3695 123.87 13.3109 123.815 13.1701C123.512 12.3953 123.462 11.6235 123.624 10.8076H126.268C126.574 10.8076 126.435 11.517 126.494 11.8016C126.524 11.947 126.928 12.7621 127.015 12.8436C127.15 12.9707 127.782 13.1 127.993 13.167C127.977 13.1792 128.011 13.3063 127.993 13.3192C127.806 13.4585 124.512 13.1587 124.007 13.3954H124.007Z" fill="#1A1A1A"/>
<path d="M92.1237 13.4715C92.044 13.3451 91.8333 13.3954 91.703 13.3938C90.745 13.3839 89.7624 13.3329 88.8281 13.3192C89.5409 12.8649 90.0169 12.3869 89.8084 11.4705C89.7417 11.1768 89.3999 11.0946 89.3646 10.8076H92.5453C92.9538 10.8076 92.6817 12.358 92.6081 12.6206C92.4916 13.0323 92.3154 13.1693 92.1237 13.4715Z" fill="#1A1A1A"/>
<path d="M128.912 13.167C129.726 13.103 130.321 12.6837 130.783 12.0185C131.014 11.6859 131.236 11.268 131.365 10.8837H134.124C134.125 11.6082 133.663 12.5071 133.267 13.1167C133.21 13.2043 133.102 13.2484 133.051 13.3192C131.763 13.2819 130.464 13.3694 129.177 13.3192C129.029 13.3131 128.869 13.3976 128.912 13.167Z" fill="#1A1A1A"/>
<path d="M121.708 13.5476C121.584 14.1169 121.557 14.7174 121.33 15.2646C121.206 15.3514 118.61 15.3385 118.294 15.3027C118.161 15.2875 118.122 15.2966 118.037 15.1779C117.774 14.8133 117.53 13.7767 117.34 13.32L121.368 13.3147L121.708 13.5484V13.5476Z" fill="#1A1A1A"/>
<path d="M97.5652 13.2431C98.1791 12.9424 98.5784 12.0649 98.3738 11.4119C98.3056 11.195 98.0297 11.1181 98.0251 10.8837H101.206C101.294 10.8837 101.398 11.2779 101.4 11.3814C101.403 11.5032 101.342 12.1753 101.318 12.2772C101.306 12.3313 101.19 12.3221 101.172 12.3861C101.032 12.8838 101.046 12.9242 100.783 13.3953C100.704 13.269 100.493 13.3192 100.363 13.3177C99.4361 13.3078 98.4558 13.2476 97.5645 13.2431H97.5652Z" fill="#1A1A1A"/>
<path d="M70.2809 13.3192H67.3685C67.3646 13.3078 67.2512 13.2575 67.2106 13.1365C66.9638 12.3929 66.6917 11.6509 66.5254 10.8837H69.3228C69.6677 10.8837 70.1467 12.9843 70.2809 13.3192Z" fill="#1A1A1A"/>
<path d="M84.8432 19.6364L83.3793 26.8592L82.3906 26.8669L83.8614 19.7658C83.9932 19.5139 84.5818 19.6844 84.8432 19.6364Z" fill="#1A1A1A"/>
<path d="M61.4668 13.3192C61.6362 12.5155 61.7404 11.6859 61.9267 10.8837H64.6475C64.846 10.8837 64.6406 11.8845 64.6038 12.0436C64.5264 12.3754 64.3922 12.8328 64.3026 13.2431L61.4668 13.3192Z" fill="#1A1A1A"/>
<path d="M111.285 13.3192C111.406 12.7369 111.426 12.0474 111.599 11.4621C111.658 11.2635 111.812 11.1013 111.822 10.8837H114.427C114.385 11.711 114.142 12.5147 113.968 13.3192H111.285Z" fill="#1A1A1A"/>
<path d="M82.2376 13.3192C82.3257 13.9738 82.4936 14.6329 82.4675 15.2981H79.4785C79.3919 14.6428 79.388 13.976 79.3252 13.3192H82.2376Z" fill="#1A1A1A"/>
<path d="M64.3025 13.2432C64.186 13.7767 64.0687 14.7113 63.9031 15.168C63.8832 15.2235 63.8549 15.2662 63.8043 15.2981H61.0068C61.0942 14.6284 61.3287 13.9746 61.4667 13.3193L64.3025 13.2432Z" fill="#1A1A1A"/>
<path d="M113.968 13.3192C113.825 13.9738 113.696 14.6374 113.584 15.2981H110.825C110.868 14.6199 111.149 13.9722 111.285 13.3192H113.968Z" fill="#1A1A1A"/>
<path d="M83.2333 13.3953C83.0824 12.8268 82.9889 12.4005 83.1567 11.797H85.9158C85.8331 12.4553 85.9848 12.8077 86.4523 13.2431C86.4424 13.2431 86.3642 13.3238 86.2668 13.3222C85.272 13.3063 84.2082 13.2652 83.2333 13.3953Z" fill="#1A1A1A"/>
<path d="M93.1201 13.3192C93.337 12.7926 93.3585 12.1768 93.5478 11.6403L94.5004 11.6441C94.4223 12.3915 94.5595 12.8839 95.1895 13.3192C95.0967 13.3192 94.9672 13.3946 94.8461 13.3946C94.2705 13.3938 93.6842 13.4403 93.1201 13.3192Z" fill="#1A1A1A"/>
<path d="M11.9389 8.24124C11.289 9.71701 9.17293 9.11498 7.89453 9.20936L8.51533 6.32555C10.006 6.4184 13.0602 5.69764 11.9389 8.24124Z" fill="#1A1A1A"/>
</g>
<defs>
<clipPath id="clip0_1350_10323">
<rect width="147" height="27" fill="white"/>
</clipPath>
</defs>
</svg>
