<svg width="78" height="78" viewBox="0 0 78 78" fill="none" xmlns="http://www.w3.org/2000/svg">
<path opacity="0.05" d="M31.4305 13.4415C31.6096 11.5576 32.4846 9.80816 33.8846 8.53493C35.2846 7.26169 37.109 6.55615 39.0014 6.55615C40.8938 6.55615 42.7182 7.26169 44.1182 8.53493C45.5182 9.80816 46.3932 11.5576 46.5723 13.4415C46.6799 14.6585 47.0791 15.8316 47.7362 16.8616C48.3933 17.8916 49.2888 18.7481 50.347 19.3587C51.4052 19.9693 52.595 20.3159 53.8155 20.3693C55.0361 20.4226 56.2516 20.1812 57.359 19.6653C59.0786 18.8845 61.0272 18.7716 62.8255 19.3483C64.6238 19.9251 66.1432 21.1504 67.088 22.7856C68.0327 24.4209 68.3352 26.3491 67.9366 28.1951C67.538 30.0411 66.4668 31.6728 64.9315 32.7725C63.9318 33.474 63.1157 34.406 62.5522 35.4896C61.9888 36.5732 61.6947 37.7766 61.6947 38.9979C61.6947 40.2192 61.9888 41.4226 62.5522 42.5062C63.1157 43.5898 63.9318 44.5218 64.9315 45.2233C66.4668 46.323 67.538 47.9547 67.9366 49.8007C68.3352 51.6467 68.0327 53.5749 67.088 55.2102C66.1432 56.8454 64.6238 58.0707 62.8255 58.6474C61.0272 59.2242 59.0786 59.1112 57.359 58.3305C56.2516 57.8146 55.0361 57.5731 53.8155 57.6265C52.595 57.6799 51.4052 58.0265 50.347 58.6371C49.2888 59.2476 48.3933 60.1042 47.7362 61.1342C47.0791 62.1642 46.6799 63.3373 46.5723 64.5543C46.3932 66.4382 45.5182 68.1876 44.1182 69.4609C42.7182 70.7341 40.8938 71.4396 39.0014 71.4396C37.109 71.4396 35.2846 70.7341 33.8846 69.4609C32.4846 68.1876 31.6096 66.4382 31.4305 64.5543C31.3231 63.3369 30.9238 62.1633 30.2666 61.1329C29.6093 60.1025 28.7134 59.2458 27.6548 58.6351C26.5961 58.0245 25.4059 57.678 24.1849 57.625C22.9639 57.5719 21.7481 57.8139 20.6405 58.3305C18.9209 59.1112 16.9723 59.2242 15.174 58.6474C13.3757 58.0707 11.8563 56.8454 10.9116 55.2102C9.96685 53.5749 9.66434 51.6467 10.0629 49.8007C10.4615 47.9547 11.5327 46.323 13.068 45.2233C14.0678 44.5218 14.8839 43.5898 15.4473 42.5062C16.0107 41.4226 16.3049 40.2192 16.3049 38.9979C16.3049 37.7766 16.0107 36.5732 15.4473 35.4896C14.8839 34.406 14.0678 33.474 13.068 32.7725C11.5349 31.6722 10.4656 30.0412 10.0679 28.1965C9.67031 26.3517 9.97275 24.425 10.9165 22.7908C11.8602 21.1566 13.3778 19.9317 15.1743 19.354C16.9708 18.7764 18.918 18.8873 20.6373 19.6653C21.7447 20.1812 22.9602 20.4226 24.1807 20.3693C25.4013 20.3159 26.591 19.9693 27.6493 19.3587C28.7075 18.7481 29.603 17.8916 30.2601 16.8616C30.9171 15.8316 31.3164 14.6585 31.424 13.4415" fill="#666666"/>
<path d="M39 48.75C44.3848 48.75 48.75 44.3848 48.75 39C48.75 33.6152 44.3848 29.25 39 29.25C33.6152 29.25 29.25 33.6152 29.25 39C29.25 44.3848 33.6152 48.75 39 48.75Z" fill="#FEFEFE"/>
</svg>
