<svg width="101" height="24" viewBox="0 0 101 24" fill="none" xmlns="http://www.w3.org/2000/svg">
<path d="M37.8025 13.9614H37.7719L35.8494 6H33.533L31.5705 13.8649H31.5387L29.7632 6.00482H27.2939L30.2724 17.5512H32.7781L34.6524 9.69243H34.6841L36.5913 17.5512H39.05L42.0707 6.00482H39.6438L37.8025 13.9614ZM49.6185 9.91075C49.3816 9.60115 49.0693 9.36107 48.713 9.21475C48.2428 9.03275 47.7421 8.94795 47.2397 8.96499C46.7895 8.97211 46.3468 9.08563 45.9463 9.29675C45.4894 9.53171 45.1104 9.90019 44.8575 10.3559H44.8104V6.00482H42.5763V17.5512H44.8104V13.1689C44.8104 12.3172 44.9468 11.7052 45.2196 11.3329C45.4925 10.9606 45.9338 10.7748 46.5437 10.7756C47.0786 10.7756 47.4525 10.9457 47.6618 11.2859C47.8711 11.626 47.977 12.1399 47.977 12.8299V17.5512H50.2111V12.4089C50.2146 11.9338 50.1696 11.4595 50.077 10.9939C50.0043 10.6025 49.8477 10.2324 49.6185 9.91075ZM58.837 15.6899V11.3474C58.837 10.8399 58.7269 10.4327 58.5066 10.1255C58.2856 9.81611 57.9936 9.56755 57.6565 9.40171C57.293 9.22483 56.9045 9.10803 56.5054 9.05547C56.0928 8.99675 55.6767 8.96691 55.2602 8.96619C54.8073 8.96571 54.3555 9.01139 53.9115 9.10251C53.4868 9.18523 53.079 9.34107 52.7051 9.56331C52.3507 9.77523 52.0489 10.0683 51.8232 10.4198C51.5771 10.8231 51.4407 11.2867 51.4281 11.7623H53.6622C53.7045 11.31 53.8527 10.9855 54.1043 10.7973C54.356 10.6091 54.7087 10.503 55.1508 10.503C55.3377 10.5021 55.5244 10.5155 55.7093 10.5428C55.8707 10.5648 56.0263 10.6198 56.1667 10.7044C56.2997 10.7867 56.4085 10.9043 56.4818 11.0447C56.5686 11.228 56.609 11.4309 56.5994 11.6345C56.611 11.7351 56.5983 11.837 56.5626 11.9313C56.527 12.0257 56.4693 12.1098 56.3949 12.1761C56.2171 12.3147 56.0114 12.4107 55.7928 12.4571C55.508 12.5283 55.2183 12.5771 54.9262 12.6031C54.5993 12.6361 54.2685 12.6791 53.9338 12.7322C53.5966 12.7867 53.2626 12.86 52.9332 12.9517C52.6177 13.0352 52.319 13.1744 52.0501 13.3631C51.7865 13.5544 51.5703 13.8064 51.4187 14.0989C51.2441 14.463 51.1604 14.8659 51.1753 15.2714C51.1656 15.6548 51.2382 16.0358 51.3881 16.3872C51.5214 16.6903 51.7229 16.9565 51.976 17.164C52.2377 17.3737 52.5375 17.5275 52.8579 17.6164C53.2121 17.7164 53.5782 17.7655 53.9455 17.7623C54.4472 17.7624 54.946 17.6864 55.4259 17.5368C55.9058 17.3873 56.3401 17.114 56.6876 16.7431C56.6975 16.8816 56.716 17.0194 56.7429 17.1556C56.7687 17.2896 56.8029 17.4218 56.8452 17.5512H59.1146C58.9892 17.3113 58.9138 17.0471 58.8935 16.7756C58.8525 16.4153 58.8337 16.0527 58.837 15.6899ZM56.603 14.3148C56.6005 14.488 56.5876 14.6608 56.5642 14.8323C56.5347 15.0576 56.4623 15.2749 56.3514 15.4716C56.221 15.6966 56.0364 15.8831 55.8152 16.0132C55.5745 16.1644 55.2331 16.24 54.791 16.24C54.6166 16.2403 54.4426 16.2237 54.2713 16.1906C54.1151 16.1633 53.9653 16.1055 53.8304 16.0205C53.7036 15.9395 53.6001 15.8255 53.5305 15.6899C53.4525 15.5295 53.4146 15.3517 53.4199 15.1725C53.4135 14.9878 53.4515 14.8043 53.5305 14.6381C53.6013 14.5015 53.7009 14.3828 53.8221 14.2907C53.9514 14.1945 54.0952 14.1207 54.2477 14.0723C54.4103 14.0185 54.576 13.9754 54.744 13.9433C54.9226 13.9119 55.0967 13.883 55.2789 13.8625C55.4612 13.8419 55.6317 13.813 55.7916 13.7816C55.9465 13.7515 56.0992 13.7112 56.249 13.6611C56.379 13.6198 56.4991 13.5511 56.6018 13.4596L56.603 14.3148ZM63.0172 6.68275H60.7831V9.19059H59.4214V10.7274H60.776V15.6599C60.7613 16.0113 60.8316 16.3611 60.9806 16.6779C61.1081 16.9291 61.3021 17.1381 61.5403 17.2811C61.7949 17.4275 62.0742 17.5232 62.3634 17.5633C62.6892 17.6127 63.0182 17.637 63.3476 17.6357C63.5698 17.6357 63.7944 17.6357 64.0261 17.62C64.2373 17.6118 64.4477 17.59 64.6563 17.5549V15.772C64.5469 15.7958 64.4362 15.8123 64.3247 15.8215C64.2072 15.8323 64.0896 15.8383 63.9625 15.8383C63.5851 15.8383 63.3323 15.772 63.2053 15.6429C63.0783 15.5139 63.0172 15.2557 63.0172 14.8673V10.7274H64.6563V9.19059H63.0136L63.0172 6.68275ZM72.2675 13.8866C72.1208 13.6243 71.9201 13.3979 71.6796 13.2231C71.427 13.0397 71.1498 12.8951 70.8565 12.7937C70.5472 12.6875 70.2286 12.5959 69.9029 12.5199C69.5772 12.4439 69.2785 12.3739 68.9739 12.31C68.6993 12.2532 68.428 12.1803 68.1615 12.0917C67.9519 12.0258 67.757 11.9184 67.5877 11.7756C67.5161 11.715 67.4589 11.6383 67.4206 11.5516C67.3823 11.4648 67.3639 11.3703 67.3666 11.2751C67.3582 11.1277 67.4016 10.9822 67.4889 10.8649C67.5718 10.7608 67.6773 10.6783 67.797 10.6236C67.9249 10.5685 68.0599 10.5331 68.198 10.5187C68.3347 10.5062 68.4721 10.501 68.6095 10.503C68.9701 10.4936 69.3275 10.5739 69.6513 10.7371C69.944 10.8927 70.1075 11.1918 70.1381 11.6345H72.2663C72.2434 11.1792 72.1105 10.7369 71.8795 10.3474C71.6728 10.016 71.3954 9.73715 71.0681 9.53195C70.7258 9.32027 70.3496 9.17243 69.957 9.09531C69.5347 9.00811 69.1049 8.96491 68.6741 8.96619C68.2403 8.96571 67.8073 9.00611 67.3807 9.08683C66.9818 9.15971 66.5981 9.30211 66.2461 9.50787C65.9122 9.70411 65.6328 9.98483 65.4347 10.3233C65.2155 10.7283 65.1093 11.1874 65.1278 11.6502C65.1178 11.9751 65.1942 12.2966 65.3489 12.5802C65.4958 12.8334 65.6968 13.0491 65.9368 13.2111C66.1916 13.3843 66.4685 13.5203 66.7599 13.6152C67.0691 13.7177 67.3878 13.807 67.7123 13.8818C68.3466 14.0079 68.9711 14.1812 69.5807 14.4005C70.0276 14.5718 70.251 14.8303 70.251 15.1761C70.2579 15.3571 70.2081 15.5355 70.1087 15.6851C70.0158 15.8183 69.8953 15.9287 69.756 16.0084C69.6087 16.0915 69.4501 16.1512 69.2856 16.1858C69.1227 16.2232 68.9563 16.2426 68.7894 16.2436C68.5745 16.2441 68.3604 16.2169 68.1521 16.1628C67.9575 16.1132 67.773 16.0283 67.6076 15.9119C67.449 15.7973 67.3169 15.6482 67.2208 15.4753C67.1173 15.2792 67.0658 15.0588 67.0715 14.8359H64.9361C64.9384 15.3275 65.0661 15.81 65.3065 16.2352C65.5243 16.5987 65.8208 16.9059 66.1732 17.1327C66.5441 17.3658 66.9527 17.5292 67.3795 17.6152C67.835 17.7131 68.2992 17.7621 68.7646 17.7611C69.2226 17.7616 69.6795 17.7155 70.1286 17.6236C70.5512 17.5403 70.9548 17.3767 71.3186 17.1411C71.6937 16.9026 71.9996 16.5653 72.2046 16.1643C72.4095 15.7634 72.506 15.3135 72.4838 14.8613C72.4944 14.5231 72.4186 14.1879 72.264 13.889L72.2675 13.8866ZM76.711 6.00242L72.4568 17.5488H74.9461L75.8292 14.9783H80.0363L80.8863 17.5488H83.4566L79.2463 6.00482L76.711 6.00242ZM76.4759 13.0856L77.9425 8.84923H77.9729L79.3922 13.0856H76.4759ZM91.1853 10.3233C90.8781 9.91043 90.4851 9.57331 90.0343 9.33659C89.5212 9.07651 88.9535 8.94899 88.3811 8.96499C87.9023 8.95875 87.4282 9.06347 86.9938 9.27139C86.5618 9.49035 86.2015 9.83475 85.959 10.2618H85.927V9.19059H83.7989V20.4789H86.0331V16.5175H86.0635C86.3263 16.9177 86.6881 17.2384 87.1124 17.4463C87.5483 17.659 88.0247 17.7671 88.5067 17.7623C89.0502 17.773 89.5883 17.6488 90.0741 17.4005C90.5116 17.1707 90.8945 16.8445 91.1939 16.4451C91.4996 16.0343 91.7265 15.5682 91.8638 15.0711C92.0112 14.5457 92.0853 14.0015 92.0837 13.4547C92.086 12.8783 92.0119 12.3041 91.8638 11.7479C91.7281 11.233 91.498 10.7495 91.1853 10.3233ZM89.752 14.3823C89.6967 14.682 89.5867 14.9684 89.4292 15.2267C89.1617 15.6115 88.7679 15.8836 88.3195 15.9923C87.8719 16.1011 87.4001 16.0391 86.9938 15.8179C86.7482 15.6734 86.54 15.4707 86.3871 15.2267C86.228 14.9681 86.1165 14.682 86.0565 14.3823C85.9879 14.0587 85.9535 13.7282 85.9543 13.3968C85.9535 13.06 85.9847 12.7239 86.0471 12.3932C86.104 12.0895 86.214 11.7989 86.3715 11.5355C86.5228 11.2894 86.7279 11.0829 86.9704 10.9324C87.2496 10.7647 87.5686 10.6811 87.8922 10.6912C88.2103 10.6824 88.5238 10.766 88.7975 10.9324C89.0432 11.0864 89.2506 11.2965 89.4042 11.5464C89.5664 11.8117 89.6811 12.1046 89.7427 12.4113C89.8121 12.7359 89.8464 13.0671 89.8448 13.3993C89.8472 13.7291 89.8175 14.0584 89.7567 14.3823H89.752ZM100.783 11.7539C100.648 11.2367 100.418 10.751 100.104 10.3233C99.7976 9.91051 99.4046 9.57339 98.9547 9.33659C98.4408 9.07675 97.8731 8.94923 97.2999 8.96499C96.8211 8.95915 96.3477 9.06387 95.9134 9.27139C95.4814 9.49067 95.1211 9.83499 94.8778 10.2618H94.8474V9.19059H92.7146V20.4789H94.948V16.5175H94.9799C95.242 16.9174 95.6038 17.238 96.028 17.4463C96.4632 17.659 96.9404 17.7671 97.4223 17.7623C97.9659 17.773 98.5039 17.6488 98.9905 17.4005C99.428 17.1707 99.8101 16.8444 100.109 16.4451C100.414 16.0343 100.642 15.5682 100.779 15.0711C100.928 14.5459 101.002 14.0016 101 13.4547C101.005 12.8806 100.933 12.3084 100.787 11.7539H100.783ZM98.6661 14.3823C98.6115 14.6822 98.5016 14.9687 98.3433 15.2267C98.178 15.4861 97.9526 15.6991 97.6867 15.8466C97.4215 15.994 97.1236 16.0713 96.8219 16.0713C96.5201 16.0713 96.223 15.994 95.957 15.8466C95.6919 15.6991 95.4665 15.4861 95.3012 15.2267C95.1429 14.9679 95.0306 14.6819 94.9706 14.3823C94.9027 14.0586 94.8684 13.7282 94.8684 13.3968C94.8676 13.0599 94.8988 12.7239 94.9628 12.3932C95.0236 12.0886 95.1382 11.7979 95.3012 11.5355C95.4525 11.2899 95.6576 11.0835 95.8993 10.9324C96.1785 10.7647 96.4982 10.6811 96.8211 10.6912C97.1393 10.6823 97.4535 10.7659 97.7264 10.9324C97.9729 11.0863 98.1811 11.2965 98.3347 11.5464C98.4969 11.8117 98.6115 12.1046 98.6731 12.4113C98.7426 12.7359 98.7769 13.0671 98.7753 13.3993C98.7737 13.7295 98.7402 14.0588 98.6755 14.3823H98.6661Z" fill="#25D366"/>
<path d="M23.1786 11.4596C23.0694 8.3945 21.8104 5.49119 19.6643 3.35583C17.5181 1.22048 14.6509 0.0181793 11.6612 3.2837e-06H11.6048C9.59143 -0.00153111 7.61249 0.534701 5.86247 1.55593C4.1125 2.57716 2.65185 4.0482 1.62424 5.8243C0.596639 7.60041 0.0374935 9.62042 0.00182077 11.6855C-0.0338512 13.7506 0.455179 15.7895 1.4208 17.6019L0.395461 23.8962C0.393792 23.9091 0.394822 23.9222 0.398487 23.9347C0.402144 23.9472 0.408359 23.9587 0.416703 23.9686C0.425047 23.9784 0.435333 23.9862 0.446874 23.9917C0.458416 23.9971 0.470955 23.9999 0.483651 24H0.50129L6.5698 22.6152C8.13777 23.3874 9.85485 23.7882 11.5942 23.7877C11.7047 23.7877 11.8152 23.7877 11.9257 23.7877C13.4557 23.7429 14.962 23.3877 16.3574 22.7426C17.7528 22.0974 19.0099 21.1752 20.0561 20.029C21.1023 18.8829 21.9169 17.5355 22.4528 16.0646C22.9887 14.5939 23.2354 13.0287 23.1786 11.4596ZM11.8681 21.7189C11.7764 21.7189 11.6847 21.7189 11.5942 21.7189C10.057 21.7209 8.54179 21.3435 7.17654 20.6188L6.86611 20.4523L2.75067 21.4499L3.51026 17.1785L3.33389 16.8721C2.49149 15.3987 2.03775 13.7256 2.01736 12.0175C1.99696 10.3095 2.41062 8.62546 3.21758 7.13134C4.02455 5.63719 5.19699 4.38446 6.61942 3.49654C8.04185 2.6086 9.6652 2.11611 11.3296 2.06755C11.4221 2.06755 11.515 2.06755 11.6083 2.06755C14.1212 2.07519 16.5306 3.09526 18.3174 4.90798C20.1042 6.72069 21.1254 9.18098 21.1609 11.7587C21.1963 14.3364 20.2433 16.8252 18.5071 18.689C16.7708 20.5527 14.3904 21.6422 11.8787 21.7226L11.8681 21.7189Z" fill="#25D366"/>
<path d="M7.56296 6.15205C7.4197 6.15493 7.27845 6.18725 7.14757 6.24713C7.0167 6.30701 6.89886 6.39323 6.80104 6.50067C6.52472 6.79138 5.75219 7.49102 5.70751 8.96027C5.66283 10.4295 6.66347 11.8831 6.80339 12.0869C6.94332 12.2907 8.71646 15.4645 11.6373 16.7515C13.354 17.5103 14.1066 17.6406 14.5945 17.6406C14.7956 17.6406 14.9473 17.6189 15.106 17.6092C15.641 17.5755 16.8486 16.941 17.112 16.251C17.3754 15.561 17.393 14.9579 17.3236 14.8372C17.2543 14.7166 17.0638 14.6297 16.7769 14.4753C16.49 14.3209 15.0825 13.5489 14.8179 13.4403C14.7198 13.3935 14.6142 13.3653 14.5063 13.3571C14.436 13.3609 14.3677 13.3822 14.3073 13.4192C14.2469 13.4562 14.1961 13.5078 14.1594 13.5694C13.9243 13.8698 13.3846 14.5223 13.2035 14.7106C13.1639 14.7573 13.1152 14.795 13.0605 14.8212C13.0058 14.8474 12.9464 14.8615 12.886 14.8626C12.7748 14.8575 12.666 14.8275 12.5674 14.7745C11.7148 14.4031 10.9375 13.8711 10.2756 13.2063C9.65724 12.5811 9.13257 11.8652 8.7188 11.0821C8.55894 10.7781 8.7188 10.6213 8.86463 10.479C9.01046 10.3366 9.16681 10.14 9.31731 9.96986C9.44084 9.82458 9.54377 9.66219 9.62308 9.48739C9.6641 9.40627 9.68484 9.31595 9.68336 9.22459C9.68196 9.13315 9.65841 9.04363 9.61481 8.96387C9.54549 8.81187 9.02691 7.31732 8.78353 6.7178C8.586 6.20513 8.35081 6.18825 8.14501 6.17257C7.97571 6.1605 7.7817 6.15447 7.58768 6.14844H7.56296" fill="#25D366"/>
</svg>
