<svg width="44" height="36" viewBox="0 0 44 36" fill="none" xmlns="http://www.w3.org/2000/svg">
<path d="M38.7788 25.3065H5.22046M34.4996 2.41675C35.6046 2.41675 36.6645 2.85573 37.4459 3.63714C38.2273 4.41854 38.6662 5.47835 38.6662 6.58341V24.3459C38.666 24.9947 38.8172 25.6346 39.1079 26.2147L41.3329 30.6459C41.4935 30.9646 41.5696 31.3193 41.5537 31.6758C41.5379 32.0324 41.4308 32.3789 41.2425 32.6821C41.0543 32.9854 40.7914 33.2352 40.4789 33.4076C40.1664 33.58 39.8148 33.6692 39.4579 33.6667H4.54124C4.18435 33.6692 3.83279 33.58 3.52029 33.4076C3.20779 33.2352 2.94483 32.9854 2.75661 32.6821C2.56839 32.3789 2.46123 32.0324 2.44541 31.6758C2.42958 31.3193 2.50563 30.9646 2.66624 30.6459L4.89124 26.2147C5.18195 25.6346 5.33319 24.9947 5.33291 24.3459V6.58341C5.33291 5.47835 5.7719 4.41854 6.5533 3.63714C7.3347 2.85573 8.39451 2.41675 9.49958 2.41675H34.4996Z" stroke="#FEE440" stroke-width="4" stroke-linecap="round" stroke-linejoin="round"/>
</svg>
