<svg width="38" height="34" viewBox="0 0 38 34" fill="none" xmlns="http://www.w3.org/2000/svg">
<path d="M28.9997 32C28.9997 28.4638 27.5949 25.0724 25.0944 22.5719C22.5939 20.0714 19.2026 18.6667 15.6663 18.6667M15.6663 18.6667C12.1301 18.6667 8.73874 20.0714 6.23825 22.5719C3.73777 25.0724 2.33301 28.4638 2.33301 32M15.6663 18.6667C20.2687 18.6667 23.9997 14.9357 23.9997 10.3333C23.9997 5.73096 20.2687 2 15.6663 2C11.064 2 7.33301 5.73096 7.33301 10.3333C7.33301 14.9357 11.064 18.6667 15.6663 18.6667ZM35.6664 30.3337C35.6664 24.717 32.3331 19.5003 28.9998 17.0003C30.0955 16.1783 30.9716 15.0988 31.5507 13.8574C32.1298 12.6161 32.3939 11.2511 32.3198 9.88333C32.2456 8.51555 31.8355 7.18714 31.1255 6.01566C30.4156 4.84418 29.4279 3.86576 28.2498 3.16699" stroke="#FEE440" stroke-width="4" stroke-linecap="round" stroke-linejoin="round"/>
</svg>
