<svg width="190" height="35" viewBox="0 0 190 35" fill="none" xmlns="http://www.w3.org/2000/svg">
<g clip-path="url(#clip0_1314_29489)">
<path d="M23.0692 13.6843C20.5479 12.9915 17.679 12.8978 16.092 13.6424C15.8551 13.7538 15.6084 13.5133 15.706 13.2706L18.8097 5.57079C19.8822 2.90784 17.9345 0 15.0787 0C13.4512 0 11.9849 0.985092 11.3609 2.49748L0.319284 29.2582C-0.808124 31.9918 1.18897 35.0011 4.13141 35.0011H4.14128C5.73918 35.0011 7.55531 34.1936 7.87555 32.6184C10.7686 18.3814 17.7064 19.5408 19.1277 19.6776C24.3425 20.1817 22.477 24.7895 25.278 24.8203C29.3533 24.8656 29.7065 15.5089 23.0703 13.6854L23.0692 13.6843Z" fill="#FDDB15"/>
<path d="M43.7069 19.8324C44.7794 17.1705 42.8317 14.2627 39.9759 14.2627C38.3484 14.2627 36.8821 15.2478 36.2581 16.7602L30.8974 29.2586C29.77 31.9921 31.7671 35.0015 34.7095 35.0015H34.7194C36.3173 35.0015 37.8626 34.1124 38.4537 32.6187C43.7606 19.1926 43.7069 19.8335 43.7069 19.8335V19.8324Z" fill="#FDDB15"/>
<path d="M25.102 32.2275C26.7634 32.2275 28.1102 30.8728 28.1102 29.2017C28.1102 27.5305 26.7634 26.1758 25.102 26.1758C23.4406 26.1758 22.0938 27.5305 22.0938 29.2017C22.0938 30.8728 23.4406 32.2275 25.102 32.2275Z" fill="#FDDB15"/>
<path d="M42.9926 12.71C44.654 12.71 46.0009 11.3552 46.0009 9.68408C46.0009 8.01293 44.654 6.6582 42.9926 6.6582C41.3312 6.6582 39.9844 8.01293 39.9844 9.68408C39.9844 11.3552 41.3312 12.71 42.9926 12.71Z" fill="#FDDB15"/>
</g>
<path d="M56.776 24.5V8.492H60.856V14.54H70.648V8.492H74.728V24.5H70.648V17.996H60.856V24.5H56.776ZM78.2448 24.5V8.492H82.3248V24.5H78.2448ZM95.4619 24.788C89.4139 24.788 84.9979 21.692 84.9979 16.508C84.9979 11.324 89.4139 8.228 95.4619 8.228C99.9259 8.228 102.998 9.956 104.438 12.236L101.03 14.036C99.8779 12.452 98.1499 11.54 95.4619 11.54C91.6459 11.54 89.1499 13.484 89.1499 16.508C89.1499 19.532 91.7179 21.476 95.6779 21.476C97.7899 21.476 99.5419 20.9 100.55 20.444V18.668H94.3819V15.596H104.582V22.052C102.59 23.588 99.5179 24.788 95.4619 24.788ZM107.26 24.5V8.492H118.852C122.572 8.492 124.756 10.508 124.756 13.748C124.756 16.556 123.172 18.092 120.556 18.668L124.996 24.5H120.028L116.092 18.956H111.34V24.5H107.26ZM111.34 15.692H118.372C119.836 15.692 120.676 14.996 120.676 13.724C120.676 12.5 119.836 11.804 118.372 11.804H111.34V15.692ZM136.894 24.788C130.99 24.788 126.67 21.692 126.67 16.508C126.67 11.324 130.99 8.228 136.894 8.228C142.798 8.228 147.118 11.324 147.118 16.508C147.118 21.692 142.798 24.788 136.894 24.788ZM130.87 16.508C130.87 19.556 133.246 21.5 136.894 21.5C140.542 21.5 142.918 19.556 142.918 16.508C142.918 13.484 140.542 11.516 136.894 11.516C133.246 11.516 130.87 13.484 130.87 16.508ZM158.775 24.788C153.231 24.788 149.799 21.86 149.799 17.132V8.492H153.879V17.084C153.879 19.7 155.751 21.284 158.775 21.284C161.799 21.284 163.671 19.7 163.671 17.084V8.492H167.751V17.132C167.751 21.836 164.319 24.788 158.775 24.788ZM171.268 24.5V8.492H182.932C186.604 8.492 188.764 10.532 188.764 13.724C188.764 16.892 186.58 18.956 182.932 18.956H175.348V24.5H171.268ZM175.348 15.668H182.38C183.844 15.668 184.66 14.996 184.66 13.724C184.66 12.5 183.844 11.804 182.38 11.804H175.348V15.668Z" fill="#FEFEFE"/>
<defs>
<clipPath id="clip0_1314_29489">
<rect width="46" height="35" fill="white"/>
</clipPath>
</defs>
</svg>
