<svg width="202" height="180" viewBox="0 0 202 180" fill="none" xmlns="http://www.w3.org/2000/svg">
<g clip-path="url(#clip0_1598_22465)">
<path d="M80.7423 47.3085C71.9177 44.9136 61.8763 44.5894 56.3221 47.1636C55.493 47.5488 54.6293 46.7174 54.971 45.8784L65.8338 19.259C69.5878 10.0528 62.7707 0 52.7754 0C47.0791 0 41.9471 3.4056 39.763 8.63414L1.11749 101.15C-2.82844 110.6 4.16138 121.004 14.4599 121.004H14.4945C20.0871 121.004 26.4436 118.212 27.5644 112.766C37.6903 63.5471 61.9723 67.5553 66.9469 68.0282C85.1988 69.771 78.6696 85.7007 88.473 85.8075C102.737 85.9639 103.973 53.6163 80.7462 47.3123L80.7423 47.3085Z" fill="#FEE440"/>
<path d="M152.97 68.562C156.724 59.3596 149.907 49.3068 139.912 49.3068C134.215 49.3068 129.083 52.7124 126.899 57.9409L108.137 101.15C104.191 110.6 111.181 121.004 121.479 121.004H121.514C127.107 121.004 132.515 117.93 134.584 112.766C153.158 66.35 152.97 68.5658 152.97 68.5658V68.562Z" fill="#FEE440"/>
<path d="M87.8472 111.416C93.6622 111.416 98.3761 106.732 98.3761 100.955C98.3761 95.1776 93.6622 90.4941 87.8472 90.4941C82.0323 90.4941 77.3184 95.1776 77.3184 100.955C77.3184 106.732 82.0323 111.416 87.8472 111.416Z" fill="#FEE440"/>
<path d="M150.47 43.9413C156.285 43.9413 160.999 39.2578 160.999 33.4804C160.999 27.703 156.285 23.0195 150.47 23.0195C144.655 23.0195 139.941 27.703 139.941 33.4804C139.941 39.2578 144.655 43.9413 150.47 43.9413Z" fill="#FEE440"/>
</g>
<path d="M2.664 169V144.988H8.784V154.06H23.472V144.988H29.592V169H23.472V159.244H8.784V169H2.664ZM34.8671 169V144.988H40.9871V169H34.8671ZM60.6929 169.432C51.6209 169.432 44.9969 164.788 44.9969 157.012C44.9969 149.236 51.6209 144.592 60.6929 144.592C67.3889 144.592 71.9969 147.184 74.1569 150.604L69.0449 153.304C67.3169 150.928 64.7249 149.56 60.6929 149.56C54.9689 149.56 51.2249 152.476 51.2249 157.012C51.2249 161.548 55.0769 164.464 61.0169 164.464C64.1849 164.464 66.8129 163.6 68.3249 162.916V160.252H59.0729V155.644H74.3729V165.328C71.3849 167.632 66.7769 169.432 60.6929 169.432ZM78.3906 169V144.988H95.7786C101.359 144.988 104.635 148.012 104.635 152.872C104.635 157.084 102.259 159.388 98.3346 160.252L104.995 169H97.5426L91.6386 160.684H84.5106V169H78.3906ZM84.5106 155.788H95.0586C97.2546 155.788 98.5146 154.744 98.5146 152.836C98.5146 151 97.2546 149.956 95.0586 149.956H84.5106V155.788ZM122.841 169.432C113.985 169.432 107.505 164.788 107.505 157.012C107.505 149.236 113.985 144.592 122.841 144.592C131.697 144.592 138.177 149.236 138.177 157.012C138.177 164.788 131.697 169.432 122.841 169.432ZM113.805 157.012C113.805 161.584 117.369 164.5 122.841 164.5C128.313 164.5 131.877 161.584 131.877 157.012C131.877 152.476 128.313 149.524 122.841 149.524C117.369 149.524 113.805 152.476 113.805 157.012ZM155.663 169.432C147.347 169.432 142.199 165.04 142.199 157.948V144.988H148.319V157.876C148.319 161.8 151.127 164.176 155.663 164.176C160.199 164.176 163.007 161.8 163.007 157.876V144.988H169.127V157.948C169.127 165.004 163.979 169.432 155.663 169.432ZM174.402 169V144.988H191.898C197.406 144.988 200.646 148.048 200.646 152.836C200.646 157.588 197.37 160.684 191.898 160.684H180.522V169H174.402ZM180.522 155.752H191.07C193.266 155.752 194.49 154.744 194.49 152.836C194.49 151 193.266 149.956 191.07 149.956H180.522V155.752Z" fill="#FEFEFE"/>
<defs>
<clipPath id="clip0_1598_22465">
<rect width="161" height="121" fill="white"/>
</clipPath>
</defs>
</svg>
