<svg width="21" height="21" viewBox="0 0 21 21" fill="none" xmlns="http://www.w3.org/2000/svg">
<path d="M18.2374 10.905C18.1593 12.3518 17.6638 13.745 16.8108 14.9162C15.9578 16.0874 14.7838 16.9864 13.4307 17.5046C12.0777 18.0228 10.6035 18.138 9.18637 17.8363C7.76924 17.5345 6.46985 16.8288 5.44527 15.8043C4.42069 14.7798 3.71479 13.4805 3.4129 12.0634C3.11101 10.6463 3.22605 9.17212 3.74412 7.81902C4.26219 6.46591 5.1611 5.29183 6.3322 4.4387C7.5033 3.58557 8.89644 3.08992 10.3432 3.01167C10.6807 2.99334 10.8574 3.395 10.6782 3.68084C10.079 4.63963 9.82237 5.77323 9.9503 6.89663C10.0782 8.02003 10.5832 9.0669 11.3827 9.8664C12.1822 10.6659 13.229 11.1708 14.3524 11.2988C15.4758 11.4267 16.6094 11.1701 17.5682 10.5708C17.8549 10.3917 18.2557 10.5675 18.2374 10.905Z" stroke="black" stroke-width="2" stroke-linecap="round" stroke-linejoin="round"/>
</svg>
