<svg width="17" height="17" viewBox="0 0 17 17" fill="none" xmlns="http://www.w3.org/2000/svg">
<path d="M10.0265 12.3067C10.1986 12.3857 10.3925 12.4038 10.5762 12.3579C10.76 12.312 10.9226 12.2049 11.0373 12.0542L11.3332 11.6667C11.4884 11.4597 11.6897 11.2917 11.9211 11.176C12.1526 11.0602 12.4078 11 12.6665 11H15.1665C15.6085 11 16.0325 11.1756 16.345 11.4882C16.6576 11.8007 16.8332 12.2246 16.8332 12.6667V15.1667C16.8332 15.6087 16.6576 16.0326 16.345 16.3452C16.0325 16.6577 15.6085 16.8333 15.1665 16.8333C11.1883 16.8333 7.37295 15.253 4.5599 12.4399C1.74686 9.62689 0.166504 5.81158 0.166504 1.83333C0.166504 1.3913 0.342099 0.96738 0.654659 0.654819C0.96722 0.342259 1.39114 0.166664 1.83317 0.166664H4.33317C4.7752 0.166664 5.19912 0.342259 5.51168 0.654819C5.82424 0.96738 5.99984 1.3913 5.99984 1.83333V4.33333C5.99984 4.59207 5.9396 4.84726 5.82388 5.07869C5.70817 5.31011 5.54016 5.51142 5.33317 5.66666L4.94317 5.95916C4.79018 6.07598 4.68235 6.24215 4.638 6.42946C4.59364 6.61676 4.61549 6.81364 4.69984 6.98666C5.83874 9.29989 7.71186 11.1707 10.0265 12.3067Z" fill="#1A1A1A"/>
</svg>
