<svg width="21" height="21" viewBox="0 0 21 21" fill="none" xmlns="http://www.w3.org/2000/svg">
<g clip-path="url(#clip0_1314_32858)">
<path d="M10.2501 2.16667V3.83333M10.2501 17.1667V18.8333M4.35846 4.60828L5.53346 5.78328M14.9668 15.2166L16.1418 16.3916M1.91675 10.5H3.58341M16.9167 10.5H18.5834M5.53346 15.2166L4.35846 16.3916M16.1418 4.60828L14.9668 5.78328M13.5834 10.5C13.5834 12.341 12.091 13.8333 10.2501 13.8333C8.40913 13.8333 6.91675 12.341 6.91675 10.5C6.91675 8.65905 8.40913 7.16667 10.2501 7.16667C12.091 7.16667 13.5834 8.65905 13.5834 10.5Z" stroke="black" stroke-width="2" stroke-linecap="round" stroke-linejoin="round"/>
</g>
<defs>
<clipPath id="clip0_1314_32858">
<rect width="20" height="20" fill="white" transform="translate(0.25 0.5)"/>
</clipPath>
</defs>
</svg>
